<svg preserveAspectRatio="none" width="100%" height="100%" overflow="visible" style="display: block;" viewBox="0 0 14 14.8333" fill="none" xmlns="http://www.w3.org/2000/svg">
<path id="Vector" d="M0.750001 7C0.750001 4.26043 0.750001 2.89065 1.50663 1.96869C1.64515 1.79991 1.79991 1.64515 1.96869 1.50663C2.89065 0.750001 4.26043 0.750001 7 0.750001C9.73957 0.750001 11.1094 0.750001 12.0313 1.50663C12.2001 1.64515 12.3549 1.79991 12.4934 1.96869C13.25 2.89065 13.25 4.26043 13.25 7V7.83333C13.25 10.5729 13.25 11.9427 12.4934 12.8646C12.3549 13.0334 12.2001 13.1882 12.0313 13.3267C11.1094 14.0833 9.73957 14.0833 7 14.0833C4.26043 14.0833 2.89065 14.0833 1.96869 13.3267C1.79991 13.1882 1.64515 13.0334 1.50663 12.8646C0.750001 11.9427 0.750001 10.5729 0.750001 7.83333V7Z" stroke="var(--stroke-0, white)" stroke-width="1.5"/>
</svg>
