<svg preserveAspectRatio="none" width="100%" height="100%" overflow="visible" style="display: block;" viewBox="0 0 477.66 143.3" fill="none" xmlns="http://www.w3.org/2000/svg">
<g id="Layer_1" clip-path="url(#clip0_19_14069)">
<path id="Vector" d="M214.67 67.17L209.69 65.18L212.25 70.03C214.57 70.63 233.35 64.61 238.25 64.27C239.25 64.2 241.46 63.59 240.62 65.65C238.89 69.97 218.62 71.59 214.09 74.1C215.87 81.73 216.87 88.09 213.7 95.62C209.17 106.38 196.33 113.69 189.7 101.09H187.74C187.3 103.78 182.5 108.53 180.01 108.91C175.5 109.6 170.26 102.01 168.77 103.08C167.18 112.2 154.96 114.53 151.77 105.08H150.32C145.8 110.38 140.41 113.26 133.31 113.13C130.94 113.08 128.7 111.86 126.43 112.07C120.16 112.65 118.03 118.98 107.59 116.82C93.63 113.92 97.3 96.12 94.86 86.62C94.58 85.53 95.57 84.72 93.37 85.11C91.4 85.46 85.66 89.91 85.1 91.82C83.43 97.53 85.6 104.34 82.67 112.34C75.41 132.19 35.69 143.61 16.59 140.91C-4.81 137.89 -1.93 102.44 7.52 89.12C6.98 102.81 -3.12 120.98 14.31 128.22C28.24 134.01 63.77 122.65 75.4 113.05C85.37 104.82 72.13 93.85 74.98 86.76C78.94 76.92 80.77 83.63 86.93 81.7C91.28 80.34 94.12 72.35 99.83 73.17C102.85 87.01 97.5 110.23 119.84 105.06C113.79 96.5 119.59 70.3 132.57 75.9C143.52 80.62 132.82 100.14 133.82 101.08C143.65 102.16 149.31 96.33 153.29 88.12C153.92 105.53 165.78 99.76 172.25 89.13L174.97 95.87C184.5 100.17 185.89 94.4 189.22 87.14C193.55 97.3 203.78 99.83 210.53 90.41L205.59 76.22L175.26 83.14C174.04 82.54 175.15 79.56 175.67 78.8C177.19 76.56 199.46 73.17 203.65 72.1C203.77 64.5 200.66 56.28 205.21 49.2C206.9 48.85 207.15 50.57 207.87 51.51C209.58 53.75 216.21 65.01 214.67 67.16V67.17ZM124.54 86.3C117.91 88.27 124.8 100.07 129.13 99C134.13 97.76 132.51 83.93 124.54 86.3Z" fill="var(--fill-0, white)"/>
<path id="Vector_2" d="M375.25 7.5C377.03 8.54 383.81 25.18 381.92 28.25L377.43 23.27C379.26 38.03 378.96 52.83 379.43 67.66C379.9 82.59 381.76 98.56 380.45 113.6C379.91 119.76 377.21 124.32 375.43 130.03L401.21 118.89L406.3 95.2C395.46 90.43 382.4 76.85 385.9 64.18L398.38 74.66L396.36 75.65C396.24 80.78 423.49 90.57 425.25 102.68C427.36 117.18 419.5 121.62 407.37 126.05C421.77 139.03 451.64 120.35 463.75 110.04C466.13 108.01 475.03 100.33 473.13 97.22C460.08 90.75 443.83 106.71 449.6 81.93C452.57 69.17 458.08 66.36 468.74 75.17C484.61 88.28 477 108.32 463.75 120.01C448.53 133.45 415.9 153.84 401.78 129.09C389.54 133.83 377 143.56 363.17 140.76C346.44 137.37 362.85 109.53 365.45 100.09C367.27 99.84 366.28 102.18 366.01 103.14C364.23 109.36 356.94 121.32 358.89 127.08C360.84 132.84 373.94 131.61 374.47 129.35L373.47 62.63C373.57 50.34 370.34 35.62 370.34 23.76C370.34 21.74 371.8 7.82 372.45 7.3C372.62 7.16 374.71 7.18 375.26 7.5H375.25ZM465.28 86.12C467.92 83.82 453.26 77.49 451.31 83.65C450.45 87.73 462.86 85.68 465.28 86.12ZM421.23 105.2C420.82 104.5 407.98 96.56 407.38 97.1L403.38 117.05C404.17 117.88 423.91 109.8 421.23 105.2Z" fill="var(--fill-0, white)"/>
<path id="Vector_3" d="M289.06 86.13C296.34 85.38 304.57 82.28 309.51 76.65C304.8 72.55 298.56 77.71 293.16 77.13C282.81 76.01 285.69 64.25 288.29 57.42C293.81 42.89 311.97 57.22 314.09 67.12C315.67 74.48 313.67 83.86 308.09 89.17C303.59 93.45 297.69 93.51 293.05 97.09C291.24 125.71 271.97 120.91 267.66 96.52L258.64 96.12C257.27 114.19 243.81 120.37 229.34 127.22C205.3 138.6 194.47 143.06 167.4 138.88C166.08 138.68 161.98 138.53 161.77 137.03C184.16 134.56 204.67 128.27 225.02 118.92C229.89 116.68 249.6 107.14 251.67 103.64C256.54 95.43 236.74 102.23 234.1 94.17C232.03 87.87 237.46 72.73 245.06 73.17C253.76 73.68 256.63 86.51 258.26 87.05C269.31 87.56 267.27 80.61 270.14 73.2C271.12 70.68 276.15 58.55 277.55 57.66C278.54 57.03 279.48 57.13 280.57 57.2C285.66 68.15 278.4 76.37 274.59 86.13C279.26 85.79 284.47 86.6 289.07 86.13H289.06ZM303.53 64.2C298.62 61.91 295.69 60.44 290.56 63.2C291.05 68.52 299.42 65.39 303.03 66.18L303.52 64.2H303.53ZM269.6 82.13C275.52 82.96 280.63 69.35 276.07 67.18C274.16 66.27 274.54 69.09 274.07 70.11C273.34 71.67 269.08 81.61 269.6 82.13ZM250.62 90.11C247.32 85.78 243.76 81.13 237.66 83.16C236.67 90.57 245.2 90.34 250.62 90.11ZM275.59 97.1C274.34 101.68 285.06 113.64 288.12 107.09C289.69 103.73 278.52 97.34 275.59 97.1Z" fill="var(--fill-0, white)"/>
<path id="Vector_4" d="M308.52 51.2C306.46 50.24 308.12 46.66 307.02 44.24C306.58 43.27 301.11 37.98 300.08 38.24C293.99 49.37 285.88 50.75 279.06 39.21C274.05 41.58 269.93 45.64 264.98 48.09C237.42 61.72 194.16 54.77 208.71 15.29C212.39 14.49 209.52 19.98 209.66 22.72C211.07 50.48 253.93 43.65 270.64 34.79C275.82 32.04 278.26 29.37 281.1 24.28C282.95 23.34 282.69 28.89 284.13 31.21C290.67 41.76 298.01 31.75 302.06 25.28L306.5 31.8C310.97 35.78 312.07 34.38 315.49 30.73C326.9 18.57 333.41 -4.55 354.49 0.8C369.11 4.52 367.91 23.96 359.45 32.75C352.07 40.41 328.54 46.72 317.97 47.26C313.43 47.5 309.77 43.31 308.52 51.2ZM339.19 10.51C332.64 12 323.18 29.4 318 34.25L319 36.21C332.67 33.42 347.5 31.89 358.99 23.27C359.91 13.16 347.72 8.58 339.2 10.51H339.19Z" fill="var(--fill-0, white)"/>
<path id="Vector_5" d="M234.74 141.91C231.59 135.11 250.61 130.73 250.6 128.53C246.93 125.76 249.45 121.07 251.23 117.97C256.18 117.91 263.23 124.22 261.5 129.38C260.28 133.01 254.62 129.76 252.35 130.22C250.87 130.52 248.23 133.32 246.31 134.2C243.08 135.67 238.45 135.85 236.65 139C263.7 143.51 295.84 129.8 315.99 112.04C318.96 109.42 326.09 103.35 324.78 99.42C322.43 92.38 313.87 89.92 319.68 80.3C325.22 79.38 330.69 79.52 335.81 76.97C342.56 73.61 350.63 59.79 356.45 58.61C362.72 57.34 368.88 68.84 368.25 74.39C367.99 76.71 363.74 86.91 362 88.22C357.02 91.97 344.06 78.91 341.47 80.58C338.99 86.18 333.62 87.13 328.92 90.12C332.67 108.42 325.26 116.63 311.99 127.01C289.88 144.31 284.17 139.68 258.12 141.02C250.79 141.4 242.51 145.33 234.73 141.91H234.74ZM361.44 78.14C361.29 72.83 355.61 67.92 350.47 70.18C349.23 71.49 354.36 74.46 355.14 74.97C356.21 75.68 360.64 78.99 361.44 78.14Z" fill="var(--fill-0, white)"/>
<path id="Vector_6" d="M441.31 24.27L436.34 19.28L438.33 56.19L469.27 50.7C466.24 57.18 439.76 57.84 438.42 61.83C437.92 64.53 439.28 66.94 439.37 69.62C439.76 82.49 440.99 106.97 437.11 118.33C436.5 120.12 434.95 123.99 433.35 125.03L432.34 62.18C423.9 63.3 415.13 66.94 406.78 68.06C405.21 68.27 402.88 68.98 403.38 66.66C403.51 64.87 404.67 64.09 406.15 63.44C410.14 61.68 430.41 59.07 431.3 58.15C433.56 40.83 426.99 23.11 430.57 6.03C432.37 -2.57 437.34 8.61 438.52 11.62C440.09 15.63 441.48 19.91 441.32 24.27H441.31Z" fill="var(--fill-0, white)"/>
<path id="Vector_7" d="M111.84 1.33L109.54 4.51L29.98 29.26C29.81 34.26 38.87 32.78 40.52 35.18C44.88 41.53 27.09 39.47 26.12 34.53C24.81 29.78 34.77 23.12 38.67 21.48C55.63 14.34 86.01 7.24 104.65 2.61C107.02 2.02 109.34 1.12 111.84 1.33Z" fill="var(--fill-0, white)"/>
<path id="Vector_8" d="M210.68 2.33C209.11 4.83 205.19 5.92 202.53 6.64C180.29 12.71 154.49 14.09 131.81 19.27C131.79 16.29 133.89 14.16 136.75 13.74L210.68 2.33Z" fill="var(--fill-0, white)"/>
<path id="Vector_9" d="M335.5 121.05C332.78 135.44 315.21 136.71 303.54 140L327.43 128.47C334.55 124.42 337.67 103.83 348.85 110.2C352.74 112.42 352.77 116.04 351.78 119.87C348.29 133.34 337.95 119.22 335.5 121.05Z" fill="var(--fill-0, white)"/>
<path id="Vector_10" d="M154.6 139.83C151.48 141.67 145.67 135.39 142.36 134.95L137.32 141.87L127.99 136.83C126.53 134.36 130.59 128.17 132.79 126.49L143.31 131.89L149.09 125.16L159.73 131.51L154.59 139.82L154.6 139.83Z" fill="var(--fill-0, white)"/>
<path id="Vector_11" d="M104.68 138.83C101.56 140.67 95.75 134.39 92.44 133.96L87.4 140.77L78.07 135.84C76.62 133.39 80.78 126.62 83.38 125.28L93.39 130.78C96.53 129.45 95.93 123.69 99.95 124.54C101.32 124.83 109.73 129.76 109.79 130.51L104.69 138.83H104.68Z" fill="var(--fill-0, white)"/>
<path id="Vector_12" d="M226.79 12.18C229.99 -6.9 237.81 7.7 243.07 7.36L248.11 0.55L258.59 6.87L252.14 16.03L242.95 10.41L236.16 16.99L226.78 12.17L226.79 12.18Z" fill="var(--fill-0, white)"/>
<path id="Vector_13" d="M192.57 44.35C193.84 46.56 187.64 52.24 186.12 54.16L176.34 48.28L169.7 54.81L160.87 47.57L167.4 39.34L177.18 45.28L183.06 38.33L192.57 44.35Z" fill="var(--fill-0, white)"/>
<path id="Vector_14" d="M67.92 34.24C60.14 32.77 63.55 44.24 61.87 49.54C63.88 51.11 66.22 51.57 68.41 53.21C81.13 62.75 62.22 62.29 60.95 68.69C59.62 75.37 65.27 87.7 65.9 95.62C66.01 96.95 66.76 101.8 64.93 102.09C67.04 88.42 47.8 65.66 65.91 58.7C64.03 56.24 62.75 55.65 59.93 57.2C61.19 52.75 60.66 44.91 56.9 41.76C54.66 39.89 50.44 40.96 50.87 36.75C51.79 27.87 60.3 42.68 60.91 42.23L62.93 29.26C66.05 28.81 68.35 31.08 67.92 34.24Z" fill="var(--fill-0, white)"/>
<path id="Vector_15" d="M146.79 39.73C147.46 35.11 150.45 30.93 154.86 34.91L155.77 41.22L149.84 40.25C149.99 41.17 148.79 42.37 148.79 42.72V65.17C144.99 62.7 142.52 53.34 139.38 51.13C136.96 49.43 134.17 50.83 131.82 49.71C128.91 48.34 129.55 43.07 131.81 41.69C137.03 38.49 143.02 51.8 146.8 54.19C147.26 49.66 146.16 44.09 146.8 39.72L146.79 39.73Z" fill="var(--fill-0, white)"/>
<path id="Vector_16" d="M20.98 10.3L16.02 9.31L14.99 26.75L13.02 34.24C12.52 30.84 8.41 19.31 5.38 18.57C4.64 18.39 3.43 19.16 2.66 18.99C-2.14 17.88 0.31 7.87 4.04 9.77L12.99 23.27C13.47 19.12 13.28 6.03 15.52 3.34C16.79 1.81 18.24 1.84 19.5 3.31L20.98 10.3Z" fill="var(--fill-0, white)"/>
<path id="Vector_17" d="M13.01 70.17C14.88 70.76 14.09 76.07 13.89 77.54C13.21 82.45 11.42 91.38 5.04 86.59C-4.92 79.12 3.62 50.85 5.03 40.23C6.89 40.02 5.86 42.33 5.73 43.42C4.56 53.92 -3.69 73.46 9.49 78.21C12.66 77.94 12.89 72.66 13.01 70.15V70.17Z" fill="var(--fill-0, white)"/>
<path id="Vector_18" d="M416.36 6.81C416.57 5.22 418.35 2.44 418.44 0.41L422.42 0.76L423.34 8.31L418.36 7.31L417.35 30.26C415.07 30.68 415.76 30.14 415.13 28.99C413.6 26.2 412.49 19.76 410.44 17.73C407.06 14.38 400.31 18.77 404.39 7.33C408.53 4.58 413.63 19.6 416.36 21.29C416.78 16.7 415.78 11.28 416.36 6.82V6.81Z" fill="var(--fill-0, white)"/>
<path id="Vector_19" d="M396.39 26.76C395.41 19.47 387.34 10.25 387.36 4.84C387.36 3.33 386.73 1.9 388.89 2.33C398.1 10.36 400.62 21.79 399.31 33.67L396.4 41.23C395.97 36.66 397 31.2 396.4 26.76H396.39Z" fill="var(--fill-0, white)"/>
<path id="Vector_20" d="M166.95 32.07C165.43 29.46 170.08 23.78 172.46 22.38L182.66 28.86C183.07 30.56 177.57 36.74 176.04 37.13C174.78 37.45 167.28 32.64 166.95 32.07Z" fill="var(--fill-0, white)"/>
<path id="Vector_21" d="M94.86 64.17C92.47 64.74 93.25 63.7 92.65 62.87C86.33 54.02 92.74 50.72 92.92 42.67C93.04 37.01 87.02 32.63 91.89 25.27C101.01 33.3 93.17 41.71 92.91 48.81C92.73 53.62 99.48 58.08 94.86 64.17Z" fill="var(--fill-0, white)"/>
<path id="Vector_22" d="M36.96 53.21C38.8 55 28.96 69.37 23.99 65.68L29.98 60.2L17.01 60.18C20.22 50.46 28.98 53.28 36.97 53.21H36.96Z" fill="var(--fill-0, white)"/>
<path id="Vector_23" d="M204.63 121.99C202.92 122.61 200.74 121 199.31 121.27C197.98 121.52 197.13 124.08 195.21 124.09C193.39 124.09 191.8 121.1 189.75 120.46C184.15 118.72 168.46 130.93 161.76 132.02L188.47 116.25L197.06 119.95L201.19 116.28L204.68 118.05L206.68 114.06L204.63 121.99Z" fill="var(--fill-0, white)"/>
<path id="Vector_24" d="M257.26 57.35L266.36 63.66L260.98 72.08L251.71 65.49L257.26 57.35Z" fill="var(--fill-0, white)"/>
<path id="Vector_25" d="M39.67 71.27C41.72 70.76 47.14 75.24 48.86 76.81L43.47 85.94L35.1 79.44C34.17 76.95 37.48 71.82 39.67 71.27Z" fill="var(--fill-0, white)"/>
<path id="Vector_26" d="M110.03 36.42C112.58 34.92 119.19 39.54 120.72 41.92C119.96 45.89 117.82 51.51 113.12 49.46C105.97 46.33 105.48 42.43 110.03 36.42Z" fill="var(--fill-0, white)"/>
<path id="Vector_27" d="M395.1 43.33C396.62 42.95 403.95 47.71 404.29 48.87C404.98 51.18 400.69 56.42 398.89 58.1C397.18 55.99 391.22 53.92 390.53 51.5C389.79 48.93 392.73 43.93 395.1 43.33Z" fill="var(--fill-0, white)"/>
<path id="Vector_28" d="M309.71 0.5C312.26 -1 318.87 3.62 320.4 6L315.88 14.23C307.96 11.46 303.41 8.55 309.71 0.5Z" fill="var(--fill-0, white)"/>
<path id="Vector_29" d="M30.97 99.09L26.99 98.09L25.49 118.04C22.96 115.91 22.39 108.82 20.51 107.05C17.87 104.55 12.17 107.13 15.01 99.09C21.21 98.68 21 106.35 24.97 109.07L26.99 93.11C31.28 92.36 31.27 95.85 30.96 99.09H30.97Z" fill="var(--fill-0, white)"/>
<path id="Vector_30" d="M469.27 22.28C455.99 42.21 455.52 13.08 464.78 5.31C465.27 8.25 462.78 10.68 462.37 13.87C461.58 20.08 462.64 22.34 469.27 22.27V22.28Z" fill="var(--fill-0, white)"/>
<path id="Vector_31" d="M459.29 35.25C460.74 37.36 452.94 47.38 449.31 44.72L453.29 40.23L443.31 40.21C445.77 33 452.99 33.34 459.28 35.24L459.29 35.25Z" fill="var(--fill-0, white)"/>
<path id="Vector_32" d="M350.46 132.03C351.68 133.38 343.85 144.25 340.48 141.5L344.46 137.01H334.49C336.46 129.57 344.44 130.52 350.46 132.02V132.03Z" fill="var(--fill-0, white)"/>
<path id="Vector_33" d="M168.75 75.16C167.95 81.27 157.93 81.94 156.17 76.18C154.9 72.01 159.88 64.79 163.27 62.19C164.16 65.83 159.08 68 160.51 71.87C161.94 75.74 165.38 75.4 168.76 75.16H168.75Z" fill="var(--fill-0, white)"/>
<path id="Vector_34" d="M53.94 111.08C52.83 115.06 50.27 119.29 45.64 117.14C40.76 113.88 46.92 98.78 50.45 95.12C50.75 99.36 46.31 102.64 47.12 107.34C47.77 111.13 50.55 111.46 53.94 111.09V111.08Z" fill="var(--fill-0, white)"/>
<path id="Vector_35" d="M471.27 129.03C472.79 130.38 463.75 142.04 460.3 139.51L465.28 134.02L455.3 134C457.55 126.33 465.14 129.63 471.27 129.03Z" fill="var(--fill-0, white)"/>
<path id="Vector_36" d="M286.57 12.31C285.49 16.41 282.23 17.27 278.28 16.09C272.24 14.28 277.6 4.5 281.08 2.33C282.23 4.3 279.3 5.92 279.04 8.19C278.55 12.6 283.22 12.7 286.56 12.31H286.57Z" fill="var(--fill-0, white)"/>
<path id="Vector_37" d="M39.96 1.33L36.4 7.33C38.57 10.22 41.81 10.05 44.94 10.79C42.2 14.64 36.98 13.65 33.1 12.15C31.86 6.81 34.62 2.41 39.95 1.32L39.96 1.33Z" fill="var(--fill-0, white)"/>
<path id="Vector_38" d="M119.08 12.05C120.82 13.72 123.94 12.67 125.82 13.78C123.23 17.54 118.5 19.1 115.32 15.28C113.61 11.85 116.22 5.91 119.82 4.3C119.72 6.97 116.46 9.53 119.08 12.04V12.05Z" fill="var(--fill-0, white)"/>
<path id="Vector_39" d="M230.66 101.1C224.26 111.15 216.88 99.67 225.66 94.11L225.09 100.16L230.66 101.1Z" fill="var(--fill-0, white)"/>
<path id="Vector_40" d="M246.63 32.25C246.76 36.32 241.64 35.39 238.78 35.1C236.79 31.29 239.24 26.87 242.14 24.26L240.61 28.75C241.09 31.8 243.8 32.48 246.63 32.24V32.25Z" fill="var(--fill-0, white)"/>
<path id="Vector_41" d="M351.46 92.12C347.41 99.42 353.65 98.61 353.46 105.08C345.55 102.85 346.26 100.63 349.21 94.3C349.86 92.89 348.61 91.58 351.47 92.13L351.46 92.12Z" fill="var(--fill-0, white)"/>
<path id="Vector_42" d="M309.53 108.08C310.26 111.75 303.3 112.01 301.98 110.14C300.57 106.28 301.95 102.59 305.04 100.1C306.64 101.4 303.89 103.17 303.88 104.56C303.85 107.43 306.99 108.55 309.53 108.08Z" fill="var(--fill-0, white)"/>
<path id="Vector_43" d="M330.73 63.94L335.49 65.19C329.2 73.31 323.95 64.38 330 58.2L330.73 63.94Z" fill="var(--fill-0, white)"/>
</g>
<defs>
<clipPath id="clip0_19_14069">
<rect width="477.66" height="143.3" fill="white"/>
</clipPath>
</defs>
</svg>
