<svg width="20" height="20" viewBox="0 0 20 20" fill="none" xmlns="http://www.w3.org/2000/svg">
<path d="M1.66602 9.58334C1.66602 6.84377 1.66602 5.47398 2.42265 4.55202C2.56116 4.38324 2.71592 4.22848 2.8847 4.08997C3.80666 3.33334 5.17645 3.33334 7.91602 3.33334C10.6556 3.33334 12.0254 3.33334 12.9473 4.08997C13.1161 4.22848 13.2709 4.38324 13.4094 4.55202C14.166 5.47398 14.166 6.84377 14.166 9.58334V10.4167C14.166 13.1562 14.166 14.526 13.4094 15.448C13.2709 15.6168 13.1161 15.7715 12.9473 15.91C12.0254 16.6667 10.6556 16.6667 7.91602 16.6667C5.17645 16.6667 3.80666 16.6667 2.8847 15.91C2.71592 15.7715 2.56116 15.6168 2.42265 15.448C1.66602 14.526 1.66602 13.1562 1.66602 10.4167V9.58334Z" stroke="white" stroke-width="1.5"/>
<path d="M14.166 7.91666L14.7146 7.64235C16.3362 6.83156 17.147 6.42617 17.7398 6.79256C18.3327 7.15895 18.3327 8.06544 18.3327 9.87842V10.1216C18.3327 11.9346 18.3327 12.841 17.7398 13.2074C17.147 13.5738 16.3362 13.1684 14.7146 12.3576L14.166 12.0833V7.91666Z" stroke="white" stroke-width="1.5"/>
</svg>
