<svg width="20" height="20" viewBox="0 0 20 20" fill="none" xmlns="http://www.w3.org/2000/svg">
<path d="M7.5 15.8333C7.5 17.214 6.38071 18.3333 5 18.3333C3.61929 18.3333 2.5 17.214 2.5 15.8333C2.5 14.4526 3.61929 13.3333 5 13.3333C6.38071 13.3333 7.5 14.4526 7.5 15.8333Z" stroke="white" stroke-width="1.5"/>
<path d="M17.5 14.1667C17.5 15.5474 16.3807 16.6667 15 16.6667C13.6193 16.6667 12.5 15.5474 12.5 14.1667C12.5 12.786 13.6193 11.6667 15 11.6667C16.3807 11.6667 17.5 12.786 17.5 14.1667Z" stroke="white" stroke-width="1.5"/>
<path d="M7.5 15.8333V6.66666" stroke="white" stroke-width="1.5"/>
<path d="M17.5 14.1667V5" stroke="white" stroke-width="1.5"/>
<path d="M13.1126 3.12914L9.77924 4.24025C8.67921 4.60693 8.12919 4.79027 7.8146 5.22675C7.5 5.66323 7.5 6.24299 7.5 7.40253V10L17.5 6.66666V6.29142C17.5 4.18104 17.5 3.12584 16.8078 2.62697C16.1157 2.1281 15.1147 2.46178 13.1126 3.12914Z" stroke="white" stroke-width="1.5" stroke-linecap="round"/>
</svg>
