<svg preserveAspectRatio="none" width="100%" height="100%" overflow="visible" style="display: block;" viewBox="0 0 45 44.994" fill="none" xmlns="http://www.w3.org/2000/svg">
<g id="Group">
<path id="Vector" d="M29.9226 21.6172L20.5785 14.8248C20.4107 14.7024 20.2122 14.6288 20.0051 14.6122C19.798 14.5956 19.5904 14.6367 19.4052 14.7307C19.22 14.8248 19.0644 14.9683 18.9556 15.1453C18.8469 15.3223 18.7893 15.526 18.7891 15.7337V29.3141C18.7884 29.5222 18.8456 29.7264 18.9542 29.9038C19.0628 30.0813 19.2186 30.2251 19.4042 30.3192C19.5898 30.4133 19.7978 30.454 20.0052 30.4368C20.2125 30.4196 20.411 30.3451 20.5785 30.2216L29.9226 23.4351C30.067 23.3316 30.1847 23.1951 30.2658 23.0371C30.3469 22.879 30.3893 22.7039 30.3893 22.5262C30.3893 22.3485 30.3469 22.1734 30.2658 22.0153C30.1847 21.8573 30.067 21.7208 29.9226 21.6172Z" fill="var(--fill-0, white)"/>
<path id="Vector_2" d="M22.5007 0C10.0719 0 0 10.0719 0 22.5007C0 34.9251 10.0719 44.994 22.5007 44.994C34.9266 44.994 45 34.9236 45 22.5007C45.0015 10.0719 34.9266 0 22.5007 0ZM22.5007 41.2399C12.1503 41.2399 3.75861 32.8526 3.75861 22.5007C3.75861 12.1533 12.1503 3.75562 22.5007 3.75562C32.8497 3.75562 41.2399 12.1518 41.2399 22.5007C41.2414 32.8526 32.8497 41.2399 22.5007 41.2399Z" fill="var(--fill-0, white)"/>
</g>
</svg>
