<svg width="18" height="15" viewBox="0 0 18 15" fill="none" xmlns="http://www.w3.org/2000/svg">
<path fill-rule="evenodd" clip-rule="evenodd" d="M7.24465 2.68013e-07H10.672C12.2035 -1.29443e-05 13.4165 -2.34693e-05 14.3659 0.127613C15.3429 0.258969 16.1337 0.535734 16.7573 1.15937C17.3809 1.78301 17.6577 2.5738 17.7891 3.55081C17.9167 4.50016 17.9167 5.71319 17.9167 7.24466V7.33868C17.9167 8.87014 17.9167 10.0832 17.7891 11.0325C17.6577 12.0095 17.3809 12.8003 16.7573 13.424C16.1337 14.0476 15.3429 14.3244 14.3659 14.4557C13.4165 14.5834 12.2035 14.5833 10.672 14.5833H7.24466C5.71319 14.5833 4.50016 14.5834 3.55081 14.4557C2.5738 14.3244 1.78301 14.0476 1.15937 13.424C0.535734 12.8003 0.258969 12.0095 0.127613 11.0325C-2.34693e-05 10.0832 -1.29443e-05 8.87015 2.68013e-07 7.33868V7.24465C-1.29443e-05 5.71319 -2.34693e-05 4.50016 0.127613 3.55081C0.258969 2.5738 0.535734 1.78301 1.15937 1.15937C1.78301 0.535734 2.5738 0.258969 3.55081 0.127613C4.50016 -2.34693e-05 5.71319 -1.29443e-05 7.24465 2.68013e-07ZM3.71737 1.36647C2.87897 1.47919 2.39593 1.69058 2.04325 2.04325C1.69058 2.39593 1.47919 2.87897 1.36647 3.71737C1.25133 4.57376 1.25 5.70265 1.25 7.29167C1.25 8.88068 1.25133 10.0096 1.36647 10.866C1.47919 11.7044 1.69058 12.1874 2.04325 12.5401C2.39593 12.8928 2.87897 13.1041 3.71737 13.2169C4.57376 13.332 5.70265 13.3333 7.29167 13.3333H10.625C12.214 13.3333 13.3429 13.332 14.1993 13.2169C15.0377 13.1041 15.5207 12.8928 15.8734 12.5401C16.2261 12.1874 16.4375 11.7044 16.5502 10.866C16.6653 10.0096 16.6667 8.88068 16.6667 7.29167C16.6667 5.70265 16.6653 4.57376 16.5502 3.71737C16.4375 2.87897 16.2261 2.39593 15.8734 2.04325C15.5207 1.69058 15.0377 1.47919 14.1993 1.36647C13.3429 1.25133 12.214 1.25 10.625 1.25H7.29167C5.70265 1.25 4.57376 1.25133 3.71737 1.36647ZM3.4782 3.55822C3.69917 3.29305 4.09328 3.25722 4.35845 3.4782L6.15753 4.97743C6.93499 5.62532 7.47478 6.07368 7.93049 6.36677C8.37162 6.65049 8.67077 6.74573 8.95833 6.74573C9.24589 6.74573 9.54505 6.65049 9.98618 6.36677C10.4419 6.07368 10.9817 5.62532 11.7591 4.97743L13.5582 3.4782C13.8234 3.25722 14.2175 3.29305 14.4385 3.55822C14.6594 3.82339 14.6236 4.21749 14.3584 4.43847L12.528 5.96381C11.7894 6.57936 11.1907 7.07827 10.6624 7.4181C10.1119 7.77211 9.5759 7.99573 8.95833 7.99573C8.34077 7.99573 7.80473 7.77211 7.25431 7.4181C6.72593 7.07827 6.12726 6.57936 5.38863 5.96382L3.55822 4.43847C3.29305 4.21749 3.25722 3.82339 3.4782 3.55822Z" fill="#002E62"/>
</svg>
