<svg width="49" height="49" viewBox="0 0 49 49" fill="none" xmlns="http://www.w3.org/2000/svg">
<g clip-path="url(#clip0_6329_10234)">
<path fill-rule="evenodd" clip-rule="evenodd" d="M32.8319 48.9898H0.861899C0.384275 48.9898 0 48.6537 0 48.236V42.612C0 39.9481 1.79977 37.4985 4.59166 36.3649C5.62508 35.9472 10.3706 35.296 11.645 35.2124C11.7775 35.2067 11.9164 35.2276 12.0445 35.2751L16.8402 37.0979L21.636 35.2751C21.7576 35.2257 21.8965 35.2067 22.0355 35.2124C23.3077 35.2959 28.0601 35.9472 29.0888 36.3649C31.8742 37.4966 33.6805 39.9479 33.6805 42.612V48.236C33.6805 48.6537 33.2962 48.9898 32.8186 48.9898H32.8319ZM1.72335 47.4841H31.9699V42.6136C31.9699 40.5325 30.5587 38.6186 28.3746 37.7338C27.7472 37.4756 23.7396 36.8642 22.1333 36.7332L17.1921 38.6148C16.9706 38.7022 16.7188 38.7022 16.5082 38.6148L11.567 36.7332C9.95614 36.8642 5.94865 37.4813 5.32562 37.7338C3.14159 38.6186 1.73041 40.5344 1.73041 42.6136V47.4841H1.72335Z" fill="white"/>
<path fill-rule="evenodd" clip-rule="evenodd" d="M10.451 21.4329C10.1193 21.4329 9.82813 21.2278 9.72588 20.9133C9.6526 20.6788 7.8302 15.0915 11.3208 12.0208C12.3178 10.9697 13.6022 10.5908 14.7264 10.2645C15.4323 10.0535 16.1034 9.86015 16.6819 9.52022L19.6498 7.78543C19.8022 7.69948 19.9507 7.65454 20.1146 7.65454C20.3422 7.65454 20.8841 7.74441 21.0577 8.58445C21.102 8.81888 21.1213 9.09431 21.1464 9.38933C21.1657 9.61399 21.1907 9.99886 21.2351 10.204C23.0517 11.0186 24.4788 12.3939 25.2791 14.0954C26.2164 16.0803 26.2723 18.4421 25.4411 20.9114C25.3331 21.2318 25.0323 21.4409 24.6948 21.4311C24.3592 21.4213 24.0681 21.1869 23.9793 20.8568C23.8019 20.1574 23.4355 19.7159 22.1878 19.7159C21.453 19.7159 20.564 19.8703 19.6055 20.0305C18.4947 20.216 17.2258 20.4251 15.9973 20.4251H15.9915C14.5895 20.4251 13.4054 20.1496 12.4065 19.585C11.9764 19.8058 11.3555 20.2395 11.1916 20.8549C11.1067 21.1909 10.8155 21.4194 10.4857 21.4292H10.4607L10.451 21.4329ZM12.4547 17.9556C12.5974 17.9556 12.7459 17.9947 12.8751 18.0748C13.7005 18.6198 14.7169 18.8796 15.9858 18.8796C17.0966 18.8796 18.2517 18.6901 19.3568 18.4987C20.3692 18.3229 21.3315 18.1627 22.1859 18.1627C23.1039 18.1627 23.8444 18.3678 24.3921 18.7781C24.9938 14.953 22.7722 12.5167 20.4522 11.546C19.7714 11.2568 19.6866 10.411 19.6229 9.58067L17.4399 10.8564C16.7051 11.2861 15.9145 11.5206 15.1488 11.7413C14.1074 12.0461 13.1201 12.341 12.3988 13.1108C12.3795 13.1303 12.3602 13.1498 12.339 13.1615C10.6015 14.6716 10.586 17.1566 10.8136 18.7878C11.4693 18.2428 12.1655 17.9986 12.2098 17.9868C12.2947 17.9614 12.3718 17.9478 12.4509 17.9478L12.4547 17.9556Z" fill="white"/>
<path fill-rule="evenodd" clip-rule="evenodd" d="M21.9846 15.3005C21.5387 15.3005 21.1227 15.0797 21.0207 14.7583C20.8239 14.1472 20.4079 13.6421 19.7454 13.2076C18.515 12.3987 16.7291 12.0102 14.8611 12.1356C14.3181 12.1762 13.8398 11.8919 13.7826 11.5122C13.7328 11.1236 14.1263 10.7845 14.6618 10.7474C17.0977 10.5797 19.4365 11.1007 21.0827 12.1851C22.0317 12.8085 22.6518 13.5679 22.9383 14.451C23.0604 14.8254 22.7341 15.2069 22.2061 15.2917C22.1289 15.3058 22.0591 15.3093 21.9819 15.3093L21.9846 15.3005Z" fill="white"/>
<path fill-rule="evenodd" clip-rule="evenodd" d="M17.597 33.6729C14.7193 33.6729 12.2735 31.2343 11.1629 27.3068C10.4962 26.5444 8.42254 23.7354 9.48126 19.0746C9.59868 18.5647 10.0305 18.2689 10.4544 18.4036C10.8724 18.5455 11.1211 19.0673 11.0037 19.5797C10.0564 23.7283 12.2515 25.9267 12.343 26.0252C12.4644 26.143 12.552 26.297 12.6037 26.4749C13.4595 29.7385 15.3759 31.7707 17.6009 31.7707C19.8278 31.7707 21.7522 29.7457 22.608 26.4749C22.6537 26.297 22.7453 26.1358 22.8687 26.0204C22.9602 25.9338 25.1454 23.7357 24.208 19.5872C24.0906 19.0773 24.3413 18.553 24.7573 18.4111C25.1752 18.2764 25.613 18.5722 25.7304 19.0821C26.7892 23.7429 24.7115 26.5496 24.0488 27.3143C22.9383 31.2416 20.4885 33.6804 17.6086 33.6804L17.597 33.6729Z" fill="white"/>
<path fill-rule="evenodd" clip-rule="evenodd" d="M11.5156 36.7401C11.4225 36.7401 11.3294 36.7223 11.2363 36.6887C10.8273 36.5232 10.6148 36.0065 10.7646 35.5502L12.2201 31.1929C12.37 30.7411 12.8376 30.5062 13.2506 30.6717C13.6696 30.8372 13.8822 31.3472 13.7284 31.8103L12.2667 36.1631C12.1473 36.5232 11.8416 36.7424 11.5157 36.7424L11.5156 36.7401Z" fill="white"/>
<path fill-rule="evenodd" clip-rule="evenodd" d="M21.7644 36.7424C21.2752 36.7424 20.8163 36.5254 20.628 36.1631L18.4432 31.8103C18.2183 31.3472 18.5374 30.8417 19.1512 30.6717C19.7802 30.5062 20.4669 30.7411 20.6979 31.1929L22.8918 35.5502C23.1167 36.002 22.7976 36.5187 22.1838 36.6887C22.044 36.7223 21.9042 36.7401 21.7644 36.7401L21.7644 36.7424Z" fill="white"/>
<path fill-rule="evenodd" clip-rule="evenodd" d="M8.41711 48.9899C7.99519 48.9899 7.65454 48.5582 7.65454 48.0217V42.296C7.65454 41.7644 7.99711 41.3352 8.41711 41.3352C8.83903 41.3352 9.18547 41.7668 9.18547 42.296V48.0217C9.18547 48.5582 8.84291 48.9899 8.41711 48.9899Z" fill="white"/>
<path fill-rule="evenodd" clip-rule="evenodd" d="M26.7884 48.9899C26.3665 48.9899 26.0259 48.5582 26.0259 48.0217V42.296C26.0259 41.7644 26.3684 41.3352 26.7884 41.3352C27.2104 41.3352 27.5568 41.7668 27.5568 42.296V48.0217C27.5568 48.5582 27.2142 48.9899 26.7884 48.9899Z" fill="white"/>
<path fill-rule="evenodd" clip-rule="evenodd" d="M13.1712 48.9896C12.9601 48.9896 12.7567 48.8467 12.642 48.5887L9.46227 41.2481C9.31698 40.9068 9.38427 40.4861 9.61828 40.2479L10.3968 39.4601L7.86399 36.5905C7.6101 36.3067 7.58257 35.8086 7.80587 35.4772C8.02458 35.1517 8.40848 35.122 8.6593 35.4057L11.7442 38.9005C11.8818 39.0473 11.9599 39.2755 11.9553 39.5097C11.9507 39.7439 11.865 39.9661 11.7197 40.109L10.776 41.0636L13.7004 47.8209C13.8655 48.196 13.7585 48.6802 13.4694 48.8886C13.3792 48.96 13.2737 48.9896 13.1712 48.9896Z" fill="white"/>
<path fill-rule="evenodd" clip-rule="evenodd" d="M19.2783 48.9898C19.1247 48.9898 18.9779 48.96 18.8311 48.8886C18.3977 48.6802 18.244 48.198 18.4848 47.8209L22.8697 41.0636L21.4547 40.109C21.2437 39.9661 21.1153 39.7439 21.1084 39.5097C21.1016 39.2755 21.2139 39.0473 21.4203 38.9005L26.0529 35.4057C26.429 35.122 26.9977 35.1517 27.3326 35.4772C27.6605 35.8066 27.6261 36.3047 27.2454 36.5905L23.4476 39.4601L24.6149 40.2479C24.9681 40.4861 25.0667 40.9127 24.8374 41.2481L20.0764 48.5887C19.9113 48.8487 19.6017 48.9898 19.2783 48.9898Z" fill="white"/>
<path fill-rule="evenodd" clip-rule="evenodd" d="M18.5253 39.8042H15.154C14.6542 39.8042 14.2153 39.6057 14.0613 39.328L12.3059 36.1299C12.1053 35.7609 12.4395 35.3691 13.0411 35.2478C13.6427 35.1266 14.2995 35.3252 14.5001 35.6924L15.9881 38.4143H17.7057L19.1937 35.6924C19.3942 35.3234 20.0423 35.1249 20.6526 35.2478C21.2542 35.3691 21.5739 35.7609 21.3733 36.1299L19.6179 39.328C19.4697 39.6109 19.0309 39.8042 18.531 39.8042H18.5253Z" fill="white"/>
<path fill-rule="evenodd" clip-rule="evenodd" d="M20.2802 48.9832C19.7133 48.9832 19.2219 48.6758 19.1346 48.2421L17.5355 39.9949H16.1428L14.5349 48.2421C14.4447 48.7173 13.8574 49.0398 13.2323 48.9723C12.5984 48.9047 12.1739 48.471 12.2582 48.0024L14.0144 39.0142C14.1045 38.5849 14.5872 38.2732 15.16 38.2732H18.5328C19.1056 38.2732 19.5911 38.5849 19.6638 39.0142L21.42 48.0024C21.5159 48.4775 21.0769 48.9112 20.4459 48.9723C20.3878 48.9788 20.3355 48.9897 20.2831 48.9897L20.2802 48.9832Z" fill="white"/>
<path fill-rule="evenodd" clip-rule="evenodd" d="M37.2999 36.7322C36.9558 36.7322 36.6497 36.5064 36.5476 36.1551C36.4096 35.7159 36.6397 35.2496 37.0598 35.1116C37.3419 35.0154 37.674 34.9192 38.0321 34.8125C39.5027 34.3734 41.9495 33.6394 42.4257 32.6398C42.4657 32.5603 42.5017 32.4515 42.4917 32.3135C41.7595 31.7029 41.8115 30.4984 41.8315 30.0592C41.8715 29.1224 42.0715 27.9659 42.2976 26.7447C42.5997 25.08 42.9118 23.3569 42.7898 22.1733C42.4317 18.5534 40.551 14.1848 33.6627 13.9026C28.9971 14.095 26.0558 16.1569 24.9357 20.0485C24.8136 20.4876 24.3715 20.7343 23.9513 20.6047C23.5312 20.4772 23.2951 20.0108 23.4191 19.5758C24.3454 16.3742 26.8664 12.514 33.6325 12.2523C33.6525 12.246 33.6725 12.246 33.6945 12.2523C37.3558 12.3924 40.149 13.6011 42.0016 15.8596C43.3081 17.449 44.1223 19.5694 44.3625 21.9953C44.5065 23.4298 44.1724 25.2722 43.8503 27.0539C43.6662 28.0597 43.4961 29.007 43.4301 29.785C43.3581 30.6466 43.4561 30.9415 43.4921 31.0209C43.6862 31.1129 43.8463 31.2719 43.9163 31.4873C44.1524 32.1397 44.1264 32.7984 43.8443 33.3924C43.05 35.036 40.4071 35.8328 38.4725 36.4121C38.1244 36.5145 37.8023 36.6107 37.5402 36.7006C37.4642 36.7278 37.3821 36.7425 37.3041 36.7425L37.2999 36.7322ZM30.0372 36.7322C29.9652 36.7322 29.8992 36.7155 29.8331 36.705C29.583 36.636 29.275 36.5608 28.9168 36.4792C26.9041 36.0087 24.1491 35.3604 23.2469 33.6205C22.9028 32.9576 22.8728 32.1964 23.1549 31.4206C23.2269 31.2219 23.371 31.0567 23.5551 30.9647C23.5951 30.8727 23.6731 30.5904 23.6431 29.7769C23.6131 29.0282 23.485 28.0914 23.361 27.1001C23.285 26.5104 23.2029 25.906 23.1349 25.2912C23.0829 24.8353 23.397 24.4296 23.8312 24.3815C24.2673 24.3272 24.6555 24.6555 24.7115 25.1093C24.7775 25.7032 24.8556 26.3034 24.9276 26.8764C25.0856 28.0809 25.2297 29.2206 25.2357 30.1199C25.2357 30.5381 25.2357 31.6778 24.5654 32.2508C24.5134 32.5248 24.5815 32.7067 24.6415 32.8342C25.1937 33.9049 27.8366 34.526 29.2611 34.8585C29.6152 34.9505 29.9573 35.0237 30.2334 35.099C30.6536 35.2161 30.9096 35.6657 30.7976 36.1049C30.7056 36.4792 30.3835 36.7322 30.0354 36.7322H30.0372Z" fill="white"/>
<path fill-rule="evenodd" clip-rule="evenodd" d="M31.158 36.7423C31.0903 36.7423 31.0282 36.7239 30.9605 36.7124C30.5656 36.5768 30.3305 36.0781 30.4358 35.5955L31.2013 32.1113C28.1245 29.7234 27.596 24.821 27.5659 24.6027C27.5602 24.5729 27.5602 24.5499 27.5602 24.5269C27.4925 22.4791 28.3783 20.7624 30.1311 19.5558C31.3592 18.7031 32.5967 18.4021 32.6494 18.386C33.0443 18.2986 33.4336 18.6043 33.5201 19.0869C33.6781 19.9925 33.4581 20.829 33.1496 21.4932C35.5419 21.4219 37.415 18.9214 37.4451 18.8915C37.6576 18.6043 37.9943 18.5146 38.282 18.6686C40.6893 19.8981 41.2667 21.9689 41.3287 23.4926C41.4641 26.7286 39.3973 30.2704 37.2175 32.0767L38.6469 35.4069C38.8293 35.855 38.6958 36.402 38.3347 36.6364C37.9642 36.8708 37.5166 36.6962 37.3285 36.2549L35.5758 32.1709C35.3933 31.7366 35.5175 31.1873 35.8785 30.9483C37.8476 29.6359 39.9559 26.2874 39.8449 23.5939C39.7866 22.3045 39.2243 21.2933 38.1542 20.5993C37.3492 21.4933 35.4479 23.3181 33.0705 23.3181C32.5834 23.3181 32.0831 23.2422 31.5641 23.0699C31.2989 22.9825 31.0977 22.7228 31.0337 22.3988C30.9717 22.0747 31.0582 21.7346 31.2594 21.5094C31.3948 21.3554 31.6694 20.9969 31.8556 20.574C30.6896 21.1164 28.9951 22.2678 29.044 24.4098C29.1023 24.8396 29.6985 29.181 32.3991 30.8634C32.7113 31.0565 32.875 31.4977 32.779 31.9114L31.8651 36.0644C31.7785 36.4712 31.4758 36.74 31.1485 36.74L31.158 36.7423Z" fill="white"/>
<path fill-rule="evenodd" clip-rule="evenodd" d="M46.6624 48.9898H22.232C21.7893 48.9898 21.4331 48.6449 21.4331 48.2162C21.4331 47.7875 21.7893 47.4426 22.232 47.4426H45.8634V42.6138C45.8634 40.5229 44.7928 38.6132 43.1527 37.7441C42.6275 37.4752 39.0474 36.8418 37.9706 36.7522C37.5279 36.723 37.2039 36.3488 37.2381 35.9181C37.2783 35.4933 37.6607 35.1757 38.0994 35.2147C38.9285 35.279 43.0398 35.924 43.9151 36.3819C46.0684 37.5199 47.4589 39.9596 47.4589 42.6076V48.2098C47.4589 48.6385 47.1027 48.9834 46.666 48.9834L46.6624 48.9898ZM27.5146 37.2766C27.1443 37.2766 26.8143 37.0214 26.7358 36.6589C26.6472 36.2458 26.927 35.8366 27.3536 35.7508C28.5691 35.5072 29.9858 35.2773 30.6458 35.2227C31.0845 35.1779 31.4709 35.4917 31.5172 35.9203C31.5574 36.3452 31.2334 36.7193 30.7968 36.7583C30.2716 36.8089 28.9575 37.0077 27.6756 37.263C27.6232 37.2786 27.5629 37.2825 27.5106 37.2825L27.5146 37.2766Z" fill="white"/>
<path fill-rule="evenodd" clip-rule="evenodd" d="M35.7252 48.9824C35.6527 48.9824 35.579 48.9504 35.5131 48.8938C35.2545 48.6672 35.1394 48.086 35.2584 47.6007C35.9333 44.7954 37.1151 42.8349 38.685 41.9064C39.8499 41.2118 40.8262 41.3399 40.8624 41.3522C41.1468 41.3892 41.3589 41.8621 41.333 42.4064C41.3136 42.9433 41.0654 43.3448 40.7874 43.3029C40.7706 43.3029 39.9366 43.1946 38.95 43.7955C37.6687 44.5714 36.7416 46.1279 36.1895 48.416C36.1003 48.7805 35.918 48.9899 35.7227 48.9899L35.7252 48.9824Z" fill="white"/>
<path fill-rule="evenodd" clip-rule="evenodd" d="M45.7115 38.2668C45.3719 38.2668 45.0432 38.0663 44.9148 37.7329C44.7363 37.3066 44.9583 36.8191 45.4002 36.646C46.5147 36.224 47.2614 35.1667 47.2614 34.0039V25.2799C47.2614 21.3694 45.2326 17.7482 41.8279 15.5931C41.4274 15.3441 41.3142 14.825 41.5776 14.4367C41.8345 14.0484 42.37 13.9386 42.7705 14.194C46.6606 16.6568 48.9897 20.8013 48.9897 25.28V34.004C48.9897 35.8464 47.7968 37.5325 46.0248 38.2078C45.9247 38.25 45.818 38.2732 45.7135 38.2732L45.7115 38.2668ZM23.8256 16.4395C23.5753 16.4395 23.3249 16.3361 23.1573 16.1272C22.8569 15.7642 22.9114 15.2408 23.2858 14.9496C23.7865 14.5718 24.3045 14.2152 24.8509 13.8965C25.258 13.658 25.7935 13.7931 26.0373 14.1877C26.2833 14.5824 26.144 15.0952 25.7369 15.3379C25.258 15.608 24.8009 15.9203 24.372 16.2559C24.211 16.3741 24.0216 16.4332 23.8322 16.4332L23.8256 16.4395Z" fill="white"/>
<path fill-rule="evenodd" clip-rule="evenodd" d="M34.3956 39.8007H34.3904C34.2088 39.7955 34.0323 39.7203 33.9078 39.591L30.8129 36.3865C30.5517 36.1173 30.5517 35.675 30.8267 35.411C31.0966 35.1417 31.5308 35.147 31.7972 35.425L34.4147 38.1242L37.103 35.4127C37.3729 35.1435 37.8071 35.1435 38.0735 35.4179C38.3399 35.6872 38.3399 36.1242 38.0735 36.3934L34.8852 39.5979C34.7606 39.7273 34.5842 39.8042 34.4026 39.8042L34.3956 39.8007Z" fill="white"/>
<path fill-rule="evenodd" clip-rule="evenodd" d="M35.974 39.8041C35.5521 39.8041 35.2114 39.6323 35.2114 39.4187V38.6586C35.2114 38.445 35.554 38.2732 35.974 38.2732C36.3959 38.2732 36.7424 38.445 36.7424 38.6586V39.4187C36.7424 39.6323 36.3998 39.8041 35.974 39.8041Z" fill="white"/>
<path fill-rule="evenodd" clip-rule="evenodd" d="M27.55 12.2474C27.3167 12.2474 27.0881 12.1605 26.912 11.9843C24.2137 9.2891 21.4331 6.50238 21.4331 3.5143C21.4331 1.58096 23.0086 0 24.9455 0C26.1803 0 26.9761 0.480469 27.5568 1.17143C28.1354 0.480463 28.9265 0 30.1682 0C32.1005 0 33.6806 1.5764 33.6806 3.5143C33.6806 6.50238 30.8999 9.2891 28.2016 11.9843C28.0324 12.1536 27.7969 12.2474 27.5637 12.2474H27.55ZM24.9386 1.80999C24.001 1.80999 23.235 2.57646 23.235 3.51454C23.235 5.55313 25.325 7.83191 27.55 10.0628C29.7635 7.82523 31.865 5.5533 31.865 3.51454C31.865 2.57646 31.0989 1.80999 30.1614 1.80999C29.4182 1.80999 28.9837 2.02049 28.364 3.26743C28.2062 3.57859 27.9021 3.77078 27.5568 3.77078C27.2115 3.77078 26.896 3.57859 26.7496 3.26743C26.1299 2.0205 25.6909 1.80999 24.9523 1.80999H24.9386Z" fill="white"/>
<path fill-rule="evenodd" clip-rule="evenodd" d="M5.35826 10.7165C5.04258 10.7165 4.75407 10.5283 4.60983 10.25L3.26557 7.44904L0.466208 6.09981C0.181882 5.95966 0 5.67726 0 5.36139C0 5.04552 0.188155 4.75059 0.466208 4.61253L3.26557 3.26748L4.60983 0.46648C4.75409 0.177806 5.04259 0 5.35826 0C5.68021 0 5.96871 0.175713 6.10668 0.46648L7.45095 3.26748L10.2503 4.61253C10.5388 4.75268 10.7165 5.03508 10.7165 5.36139C10.7165 5.6877 10.5409 5.96593 10.2503 6.09981L7.45095 7.44904L6.10668 10.25C5.96661 10.5345 5.68438 10.7165 5.35826 10.7165ZM2.73663 5.36139L4.24606 6.08936C4.41749 6.16467 4.55547 6.30273 4.63073 6.47426L5.35829 7.98457L6.08584 6.47426C6.16528 6.30273 6.30535 6.16467 6.47678 6.08936L7.97995 5.36139L6.47678 4.63341C6.30535 4.55392 6.16737 4.41376 6.08584 4.24223L5.35829 2.73819L4.63073 4.24223C4.55129 4.41376 4.41749 4.55182 4.24606 4.63341L2.73663 5.36139Z" fill="white"/>
<path fill-rule="evenodd" clip-rule="evenodd" d="M42.8662 12.2474C42.5653 12.2474 42.2845 12.0682 42.153 11.8032L40.5414 8.44852L37.1867 6.83688C36.9118 6.69943 36.7424 6.42452 36.7424 6.12372C36.7424 5.82292 36.9098 5.54204 37.1867 5.41057L40.5414 3.79893L42.153 0.444238C42.2865 0.169328 42.5654 0 42.8662 0C43.167 0 43.4478 0.167334 43.5793 0.444238L45.1909 3.79893L48.5456 5.41057C48.8206 5.54404 48.9899 5.81297 48.9899 6.12372C48.9899 6.43447 48.8225 6.69944 48.5456 6.83688L45.1909 8.44852L43.5793 11.8032C43.4458 12.0741 43.1669 12.2474 42.8662 12.2474ZM39.3481 6.12362L41.4797 7.14954C41.6371 7.22524 41.7645 7.35274 41.8462 7.51609L42.8721 9.64765L43.8981 7.51609C43.9738 7.35274 44.1072 7.23122 44.2646 7.14954L46.3962 6.12362L44.2646 5.09769C44.1072 5.02199 43.9798 4.88852 43.8981 4.72517L42.8721 2.60355L41.8462 4.72517C41.7705 4.88852 41.6371 5.02 41.4797 5.09769L39.3481 6.12362Z" fill="white"/>
</g>
<defs>
<clipPath id="clip0_6329_10234">
<rect width="48.9898" height="48.9898" fill="white"/>
</clipPath>
</defs>
</svg>
