<svg width="20" height="20" viewBox="0 0 20 20" fill="none" xmlns="http://www.w3.org/2000/svg">
<path fill-rule="evenodd" clip-rule="evenodd" d="M8.28664 2.70833H11.714C13.2455 2.70832 14.4585 2.70831 15.4078 2.83594C16.3849 2.9673 17.1757 3.24407 17.7993 3.8677C18.4229 4.49134 18.6997 5.28213 18.831 6.25915C18.9587 7.20849 18.9587 8.42152 18.9587 9.95299V10.047C18.9587 11.5785 18.9587 12.7915 18.831 13.7409C18.6997 14.7179 18.4229 15.5087 17.7993 16.1323C17.1757 16.7559 16.3849 17.0327 15.4078 17.1641C14.4585 17.2917 13.2455 17.2917 11.714 17.2917H8.28665C6.75518 17.2917 5.54215 17.2917 4.59281 17.1641C3.61579 17.0327 2.825 16.7559 2.20136 16.1323C1.57773 15.5087 1.30096 14.7179 1.1696 13.7409C1.04197 12.7915 1.04198 11.5785 1.04199 10.047V9.95298C1.04198 8.42152 1.04197 7.20849 1.1696 6.25915C1.30096 5.28213 1.57773 4.49134 2.20136 3.8677C2.825 3.24407 3.61579 2.9673 4.59281 2.83594C5.54215 2.70831 6.75518 2.70832 8.28664 2.70833ZM4.75937 4.0748C3.92096 4.18752 3.43792 4.39891 3.08525 4.75159C2.73257 5.10426 2.52118 5.5873 2.40846 6.42571C2.29332 7.28209 2.29199 8.41098 2.29199 10C2.29199 11.589 2.29332 12.7179 2.40846 13.5743C2.52118 14.4127 2.73257 14.8957 3.08525 15.2484C3.43792 15.6011 3.92096 15.8125 4.75937 15.9252C5.61575 16.0403 6.74464 16.0417 8.33366 16.0417H11.667C13.256 16.0417 14.3849 16.0403 15.2413 15.9252C16.0797 15.8125 16.5627 15.6011 16.9154 15.2484C17.2681 14.8957 17.4795 14.4127 17.5922 13.5743C17.7073 12.7179 17.7087 11.589 17.7087 10C17.7087 8.41098 17.7073 7.28209 17.5922 6.42571C17.4795 5.5873 17.2681 5.10426 16.9154 4.75159C16.5627 4.39891 16.0797 4.18752 15.2413 4.0748C14.3849 3.95966 13.256 3.95833 11.667 3.95833H8.33366C6.74464 3.95833 5.61575 3.95966 4.75937 4.0748ZM4.52019 6.26655C4.74117 6.00138 5.13527 5.96555 5.40044 6.18653L7.19952 7.68576C7.97699 8.33365 8.51677 8.78201 8.97248 9.07511C9.41361 9.35882 9.71277 9.45406 10.0003 9.45406C10.2879 9.45406 10.587 9.35882 11.0282 9.07511C11.4839 8.78201 12.0237 8.33365 12.8011 7.68576L14.6002 6.18653C14.8654 5.96555 15.2595 6.00138 15.4805 6.26655C15.7014 6.53172 15.6656 6.92583 15.4004 7.1468L13.57 8.67214C12.8314 9.28769 12.2327 9.7866 11.7043 10.1264C11.1539 10.4804 10.6179 10.7041 10.0003 10.7041C9.38276 10.7041 8.84672 10.4804 8.29631 10.1264C7.76792 9.7866 7.16925 9.28769 6.43063 8.67215L4.60021 7.1468C4.33504 6.92583 4.29921 6.53172 4.52019 6.26655Z" fill="#002E62"/>
</svg>
