<svg width="48" height="48" viewBox="0 0 48 48" fill="none" xmlns="http://www.w3.org/2000/svg">
<path d="M24 11.708V41.9998" stroke="white" stroke-width="1.5"/>
<path d="M10 18L18 20" stroke="white" stroke-width="1.5" stroke-linecap="round"/>
<path d="M38 18L30 20" stroke="white" stroke-width="1.5" stroke-linecap="round"/>
<path d="M10 26L18 28" stroke="white" stroke-width="1.5" stroke-linecap="round"/>
<path d="M38 26L30 28" stroke="white" stroke-width="1.5" stroke-linecap="round"/>
<path d="M40.1639 6.03549L40.1901 6.78504L40.1901 6.78504L40.1639 6.03549ZM33 6.97489L32.7849 6.25639L32.7849 6.25639L33 6.97489ZM27.3477 9.60551L26.972 8.95638L26.972 8.95638L27.3477 9.60551ZM7.9648 6.14978L7.9188 6.89836L7.9648 6.14978ZM14 6.97489L14.1914 6.24971L14.1914 6.24971L14 6.97489ZM20.5645 9.75092L20.2139 10.4139L20.2139 10.4139L20.5645 9.75092ZM27.2552 40.1385L27.608 40.8003L27.608 40.8003L27.2552 40.1385ZM34 37.2667L33.8086 36.5415L33.8086 36.5415L34 37.2667ZM39.9703 36.4456L40.0171 37.1942L40.0171 37.1942L39.9703 36.4456ZM20.7448 40.1385L20.392 40.8003L20.392 40.8003L20.7448 40.1385ZM14 37.2667L14.1914 36.5415L14.1914 36.5415L14 37.2667ZM8.02972 36.4456L7.9829 37.1942L7.9829 37.1942L8.02972 36.4456ZM44.75 21.0768C44.75 20.6626 44.4142 20.3268 44 20.3268C43.5858 20.3268 43.25 20.6626 43.25 21.0768H44H44.75ZM43.25 14C43.25 14.4142 43.5858 14.75 44 14.75C44.4142 14.75 44.75 14.4142 44.75 14H44H43.25ZM3.25 21.1414C3.25 21.5556 3.58579 21.8914 4 21.8914C4.41421 21.8914 4.75 21.5556 4.75 21.1414H4H3.25ZM4.75 28C4.75 27.5858 4.41421 27.25 4 27.25C3.58579 27.25 3.25 27.5858 3.25 28H4H4.75ZM40.1639 6.03549L40.1378 5.28595C37.8709 5.36491 34.9765 5.6003 32.7849 6.25639L33 6.97489L33.2151 7.69338C35.2112 7.09581 37.9426 6.86332 40.1901 6.78504L40.1639 6.03549ZM33 6.97489L32.7849 6.25639C30.8822 6.826 28.706 7.95286 26.972 8.95638L27.3477 9.60551L27.7234 10.2546C29.4353 9.26387 31.4872 8.21065 33.2151 7.69338L33 6.97489ZM7.9648 6.14978L7.9188 6.89836C9.86115 7.01774 12.1099 7.2518 13.8086 7.70006L14 6.97489L14.1914 6.24971C12.344 5.76224 9.97394 5.52184 8.01081 5.40119L7.9648 6.14978ZM14 6.97489L13.8086 7.70006C15.82 8.23081 18.251 9.37597 20.2139 10.4139L20.5645 9.75092L20.9151 9.0879C18.9335 8.04007 16.3769 6.82642 14.1914 6.24971L14 6.97489ZM27.2552 40.1385L27.608 40.8003C29.5985 39.7393 32.1173 38.5392 34.1914 37.9919L34 37.2667L33.8086 36.5415C31.5568 37.1357 28.9098 38.4066 26.9024 39.4766L27.2552 40.1385ZM34 37.2667L34.1914 37.9919C35.871 37.5487 38.0889 37.3148 40.0171 37.1942L39.9703 36.4456L39.9235 35.6971C37.974 35.819 35.6358 36.0594 33.8086 36.5415L34 37.2667ZM20.7448 40.1385L21.0976 39.4766C19.0902 38.4066 16.4432 37.1357 14.1914 36.5415L14 37.2667L13.8086 37.9919C15.8827 38.5392 18.4015 39.7393 20.392 40.8003L20.7448 40.1385ZM14 37.2667L14.1914 36.5415C12.3642 36.0594 10.026 35.819 8.07653 35.6971L8.02972 36.4456L7.9829 37.1942C9.91108 37.3148 12.129 37.5487 13.8086 37.9919L14 37.2667ZM44 32.2872H43.25C43.25 34.0839 41.7756 35.5813 39.9235 35.6971L39.9703 36.4456L40.0171 37.1942C42.6002 37.0326 44.75 34.9344 44.75 32.2872H44ZM44 9.86639H44.75C44.75 7.33063 42.7385 5.19536 40.1378 5.28595L40.1639 6.03549L40.1901 6.78504C41.8766 6.72629 43.25 8.11235 43.25 9.86639H44ZM4 32.2872H3.25C3.25 34.9344 5.39983 37.0326 7.9829 37.1942L8.02972 36.4456L8.07654 35.6971C6.22435 35.5813 4.75 34.0839 4.75 32.2872H4ZM27.2552 40.1385L26.9024 39.4766C25.0973 40.4388 22.9027 40.4388 21.0976 39.4766L20.7448 40.1385L20.392 40.8003C22.6381 41.9976 25.3619 41.9976 27.608 40.8003L27.2552 40.1385ZM27.3477 9.60551L26.972 8.95638C25.1156 10.0308 22.8044 10.0869 20.9151 9.0879L20.5645 9.75092L20.2139 10.4139C22.5667 11.658 25.4265 11.5839 27.7234 10.2546L27.3477 9.60551ZM4 9.9956H4.75C4.75 8.20025 6.18873 6.79203 7.9188 6.89836L7.9648 6.14978L8.01081 5.40119C5.35647 5.23805 3.25 7.39828 3.25 9.9956H4ZM44 32.2872H44.75V21.0768H44H43.25V32.2872H44ZM44 14H44.75V9.86639H44H43.25V14H44ZM4 21.1414H4.75V9.9956H4H3.25V21.1414H4ZM4 32.2872H4.75V28H4H3.25V32.2872H4Z" fill="white"/>
</svg>
