<svg width="17" height="16" viewBox="0 0 17 16" fill="none" xmlns="http://www.w3.org/2000/svg">
<path d="M10.8339 10.2163L10.3051 9.68451L10.3051 9.68451L10.8339 10.2163ZM11.2135 9.83896L11.7423 10.3708L11.7423 10.3708L11.2135 9.83896ZM13.2274 9.575L12.8691 10.2339L12.8691 10.2339L13.2274 9.575ZM14.8194 10.4405L14.4612 11.0994L14.8194 10.4405ZM15.2681 13.153L15.7969 13.6848L15.7969 13.6848L15.2681 13.153ZM14.0843 14.33L13.5555 13.7982L13.5555 13.7982L14.0843 14.33ZM12.9802 14.8881L13.0498 15.6349L13.0498 15.6349L12.9802 14.8881ZM4.7628 11.356L5.29162 10.8241L4.7628 11.356ZM0.752406 3.87183L0.00361453 3.91438L0.00361458 3.91438L0.752406 3.87183ZM6.14793 5.08164L6.67675 5.61348L6.67675 5.61348L6.14793 5.08164ZM6.27853 2.87006L6.87893 2.42059L6.87893 2.42059L6.27853 2.87006ZM5.22771 1.46639L4.62732 1.91586L4.62732 1.91586L5.22771 1.46639ZM2.63454 1.22951L3.16336 1.76135L3.16336 1.76135L2.63454 1.22951ZM1.32654 2.53009L0.797723 1.99825L0.797723 1.99825L1.32654 2.53009ZM7.46927 8.66485L7.99809 8.13302L7.46927 8.66485ZM10.8339 10.2163L11.3627 10.7482L11.7423 10.3708L11.2135 9.83896L10.6846 9.30712L10.3051 9.68451L10.8339 10.2163ZM13.2274 9.575L12.8691 10.2339L14.4612 11.0994L14.8194 10.4405L15.1776 9.78154L13.5856 8.91607L13.2274 9.575ZM15.2681 13.153L14.7392 12.6211L13.5555 13.7982L14.0843 14.33L14.6131 14.8619L15.7969 13.6848L15.2681 13.153ZM12.9802 14.8881L12.9106 14.1413C11.7323 14.2512 8.64528 14.1587 5.29162 10.8241L4.7628 11.356L4.23398 11.8878C7.95829 15.591 11.5124 15.7782 13.0498 15.6349L12.9802 14.8881ZM4.7628 11.356L5.29162 10.8241C2.08768 7.63838 1.566 4.9695 1.5012 3.82927L0.752406 3.87183L0.00361458 3.91438C0.089059 5.41784 0.763507 8.43703 4.23398 11.8878L4.7628 11.356ZM5.90892 5.3193L6.43774 5.85114L6.67675 5.61348L6.14793 5.08164L5.61911 4.5498L5.3801 4.78746L5.90892 5.3193ZM6.27853 2.87006L6.87893 2.42059L5.82811 1.01692L5.22771 1.46639L4.62732 1.91586L5.67814 3.31953L6.27853 2.87006ZM2.63454 1.22951L2.10572 0.697674L0.797723 1.99825L1.32654 2.53009L1.85536 3.06192L3.16336 1.76135L2.63454 1.22951ZM5.90892 5.3193C5.3801 4.78746 5.37939 4.78817 5.37867 4.78888C5.37843 4.78913 5.37771 4.78985 5.37722 4.79034C5.37625 4.79132 5.37526 4.79232 5.37425 4.79334C5.37225 4.79538 5.37018 4.7975 5.36806 4.7997C5.36382 4.8041 5.35936 4.80883 5.3547 4.81389C5.34539 4.824 5.33527 4.83545 5.32453 4.84826C5.30306 4.87388 5.27907 4.90503 5.25406 4.94194C5.2039 5.01597 5.15004 5.11267 5.1046 5.23328C5.01169 5.47987 4.96411 5.79944 5.02452 6.18886C5.1423 6.94807 5.66022 7.92373 6.94045 9.19669L7.46927 8.66485L7.99809 8.13302C6.81581 6.95746 6.55355 6.26033 6.50679 5.9589C6.4955 5.88612 6.49665 5.83646 6.4996 5.80699C6.50254 5.77762 6.50774 5.76357 6.50827 5.76215C6.50893 5.7604 6.50631 5.7679 6.49587 5.78331C6.49072 5.79091 6.4837 5.80039 6.47424 5.81168C6.46951 5.81732 6.46416 5.82343 6.45811 5.83C6.45508 5.83329 6.45188 5.83669 6.44849 5.84022C6.44679 5.84198 6.44505 5.84377 6.44326 5.84559C6.44236 5.8465 6.44146 5.84741 6.44054 5.84834C6.44008 5.8488 6.43938 5.8495 6.43915 5.84973C6.43844 5.85043 6.43774 5.85114 5.90892 5.3193ZM7.46927 8.66485L6.94045 9.19669C8.2212 10.4702 9.20121 10.9835 9.96133 11.1001C10.3508 11.1599 10.67 11.1128 10.9163 11.0211C11.0368 10.9762 11.1336 10.9229 11.2078 10.8732C11.2447 10.8485 11.276 10.8247 11.3017 10.8034C11.3145 10.7927 11.326 10.7827 11.3362 10.7734C11.3413 10.7688 11.346 10.7644 11.3504 10.7601C11.3527 10.758 11.3548 10.756 11.3568 10.754C11.3579 10.753 11.3589 10.752 11.3599 10.751C11.3603 10.7506 11.3611 10.7498 11.3613 10.7496C11.362 10.7489 11.3627 10.7482 10.8339 10.2163C10.3051 9.68451 10.3058 9.6838 10.3065 9.68311C10.3068 9.68288 10.3075 9.68218 10.3079 9.68172C10.3089 9.68081 10.3098 9.67991 10.3107 9.67902C10.3125 9.67724 10.3143 9.6755 10.3161 9.67382C10.3196 9.67045 10.323 9.66727 10.3263 9.66427C10.3329 9.65826 10.3391 9.65296 10.3447 9.64828C10.356 9.63892 10.3654 9.63201 10.373 9.62699C10.3882 9.61679 10.3952 9.61449 10.3927 9.61543C10.3905 9.61625 10.3754 9.62166 10.3447 9.6247C10.314 9.62775 10.2629 9.62884 10.1887 9.61746C9.88216 9.57044 9.17985 9.30807 7.99809 8.13302L7.46927 8.66485ZM5.22771 1.46639L5.82811 1.01692C4.93596 -0.174806 3.1773 -0.367822 2.10572 0.697674L2.63454 1.22951L3.16336 1.76135C3.54929 1.37761 4.24785 1.40898 4.62732 1.91586L5.22771 1.46639ZM0.752406 3.87183L1.5012 3.82927C1.4874 3.58649 1.59771 3.31811 1.85536 3.06192L1.32654 2.53009L0.797723 1.99825C0.332673 2.46066 -0.0413144 3.12381 0.00361453 3.91438L0.752406 3.87183ZM14.0843 14.33L13.5555 13.7982C13.3408 14.0116 13.1209 14.1217 12.9106 14.1413L12.9802 14.8881L13.0498 15.6349C13.6985 15.5744 14.2257 15.247 14.6131 14.8619L14.0843 14.33ZM6.14793 5.08164L6.67675 5.61348C7.5435 4.75165 7.60558 3.39123 6.87893 2.42059L6.27853 2.87006L5.67814 3.31953C5.97889 3.72126 5.92996 4.24073 5.61911 4.5498L6.14793 5.08164ZM14.8194 10.4405L14.4612 11.0994C15.0746 11.4328 15.1569 12.2059 14.7392 12.6211L15.2681 13.153L15.7969 13.6848C16.9774 12.511 16.6091 10.5597 15.1776 9.78154L14.8194 10.4405ZM11.2135 9.83896L11.7423 10.3708C12.0214 10.0933 12.4759 10.0201 12.8691 10.2339L13.2274 9.575L13.5856 8.91607C12.6362 8.39999 11.4549 8.54122 10.6846 9.30712L11.2135 9.83896Z" fill="black"/>
</svg>
