<svg width="32" height="32" viewBox="0 0 32 32" fill="none" xmlns="http://www.w3.org/2000/svg">
<path d="M1 9C1 4.58172 4.58172 1 9 1H23C27.4183 1 31 4.58172 31 9V23C31 27.4183 27.4183 31 23 31H9C4.58172 31 1 27.4183 1 23V9Z" fill="url(#paint0_linear_11748_13933)"/>
<path d="M19.1954 19.1373C19.7459 19.1273 20.0298 19.1358 20.0839 19.7472C20.1271 20.2315 20.1407 21.8682 19.9535 22.2499C19.8158 22.5317 19.4872 22.8009 19.3237 23.0921C18.9278 23.7977 19.2317 25.0764 19.1365 25.9018C19.1002 26.2183 18.9215 26.2709 18.6381 26.2972C16.9535 26.4534 15.0329 26.1742 13.3231 26.2977C13.1312 26.2935 12.8831 26.1984 12.8378 25.9944C12.7716 25.2436 12.8867 24.4339 12.8284 23.6905C12.7669 22.905 11.9935 22.558 11.9298 21.9076C11.8541 21.1284 11.9724 20.1983 11.9561 19.405C12.1002 19.0585 12.4645 19.1521 12.7742 19.1452C12.7563 17.7172 12.7963 16.2861 12.7763 14.8576C12.7537 13.2467 12.4498 12.0043 13.4882 10.5795C14.0855 9.75978 14.7048 9.59785 15.3983 9.01951C15.9362 8.5705 15.4167 8.45694 15.1149 8.20773C14.8704 8.00583 14.5124 7.64726 14.7469 7.31655C15.0955 6.82549 15.4519 7.54894 15.6985 7.6767C16.2537 7.9643 16.7695 7.29973 16.5003 6.77028C16.3047 6.38595 15.6812 6.57154 15.7159 6.02843C15.7432 5.59993 16.1896 5.66039 16.4914 5.78027C17.4031 6.14304 17.6864 7.33548 17.0061 8.05105C16.77 8.29921 16.1554 8.44379 16.3757 8.89332C16.4125 8.96903 17.2574 9.47009 17.4178 9.58628C18.8084 10.5963 19.3431 11.9333 19.2406 13.6504C19.1381 15.3676 19.013 17.192 19.1339 18.8587C19.1407 18.9559 19.1507 19.0511 19.1964 19.1384L19.1954 19.1373ZM18.452 13.7293C18.6433 12.6005 18.2117 11.2577 17.3484 10.4953C17.188 10.3534 16.1991 9.66672 16.0471 9.63623C15.8641 9.59943 15.4735 9.86914 15.3016 9.97482C14.5445 10.4412 13.4572 11.6031 13.4572 12.5469V13.651L13.5361 13.7298H18.452V13.7293ZM18.3468 14.518H13.5623V15.0963H18.3468V14.518ZM18.3468 15.9375H13.5623V19.1447H14.4561V17.6463C14.4561 16.4533 16.1486 15.8886 17.0082 16.7241C17.6665 17.3634 17.3841 18.0669 17.4509 18.8576C17.4966 19.4018 17.9357 19.1394 18.3468 19.1973V15.9375ZM16.7169 19.1447V17.6463C16.7169 17.4155 16.248 17.0958 16.0077 17.0942C15.7674 17.0926 15.2448 17.3923 15.2448 17.6463V19.1447H16.7169ZM19.2406 19.9333L12.6754 19.9407C12.7811 20.8456 12.3352 22.1258 13.3368 22.6563C14.6302 22.6894 15.9251 22.651 17.2185 22.6652C17.6696 22.67 18.0813 22.8072 18.5566 22.6405C18.7906 22.5585 19.2406 22.0906 19.2406 21.8524V19.9333ZM13.5623 23.456V25.5065H18.3468V23.456H13.5623Z" fill="white"/>
<path d="M8.60687 9.26795C8.83611 9.22641 9.06324 9.43777 9.00645 9.67016C8.94547 9.91779 8.52485 10.2727 8.35924 10.4967C7.03483 12.2843 6.93599 14.8915 8.12632 16.7738C8.25356 16.9751 8.95703 17.7428 8.97859 17.8143C9.09215 18.1897 8.83137 18.4305 8.46439 18.2754C8.38079 18.2401 7.70729 17.3805 7.61002 17.2375C6.30349 15.3179 6.24619 12.698 7.40287 10.6965C7.56112 10.4225 8.33978 9.31632 8.6074 9.26742L8.60687 9.26795Z" fill="white"/>
<path d="M23.2714 9.27567C23.5285 9.26306 23.814 9.67526 23.9712 9.86558C25.9528 12.2594 25.8098 15.7936 23.7078 18.0644C23.3508 18.4498 22.8339 18.4361 22.9864 17.8688C23.029 17.7095 23.6436 17.0749 23.795 16.8378C24.9496 15.0307 24.9622 12.6642 23.8366 10.8414C23.6746 10.579 23.029 9.91395 22.9854 9.74623C22.9281 9.52489 23.0159 9.28882 23.2708 9.2762L23.2714 9.27567Z" fill="white"/>
<path d="M9.55282 10.2158C9.80518 10.1627 10.0307 10.3898 9.97816 10.6411C9.95398 10.7579 9.45713 11.282 9.3341 11.4724C8.44082 12.8551 8.44661 14.7174 9.32306 16.1017C9.42243 16.2589 9.96344 16.8709 9.97816 16.9214C10.0723 17.2447 9.7158 17.4714 9.43189 17.3068C9.20055 17.1727 8.6832 16.4083 8.54019 16.1485C7.8078 14.8162 7.78414 12.8278 8.50602 11.4855C8.6506 11.2168 9.27626 10.2736 9.55229 10.2153L9.55282 10.2158Z" fill="white"/>
<path d="M22.3171 10.229C22.4922 10.229 22.7556 10.5182 22.8681 10.6539C24.3287 12.4115 24.3792 15.2538 22.8434 16.9888C22.6499 17.207 22.2088 17.6818 22.0027 17.1975C21.8723 16.8915 22.2814 16.6018 22.4596 16.3426C23.5243 14.7943 23.6074 12.8894 22.5127 11.3237C22.4223 11.1943 22.0043 10.758 21.9848 10.6938C21.9165 10.4693 22.0732 10.229 22.3161 10.2285L22.3171 10.229Z" fill="white"/>
<path d="M10.974 16.1878C10.6207 16.5416 10.1233 15.8271 9.96559 15.5653C9.37358 14.5821 9.34413 13.2672 9.83625 12.2372C9.9719 11.9538 10.6543 10.886 10.9893 11.4386C11.2006 11.7871 10.7442 12.0726 10.5749 12.345C10.0665 13.1636 10.066 14.3981 10.5749 15.2183C10.7206 15.4533 11.2716 15.8892 10.9735 16.1878H10.974Z" fill="white"/>
<path d="M21.1184 11.3217C21.3833 11.2423 21.6057 11.5157 21.7635 11.7066C22.6257 12.7518 22.6762 14.5788 21.9133 15.6924C21.7335 15.9548 21.3034 16.5394 20.9748 16.1756C20.6972 15.868 21.1956 15.5194 21.366 15.2502C21.8928 14.4164 21.8991 13.2013 21.366 12.3669C21.2382 12.1671 20.9096 11.8916 20.8797 11.6929C20.8607 11.5667 21.0006 11.3569 21.1184 11.3217Z" fill="white"/>
<defs>
<linearGradient id="paint0_linear_11748_13933" x1="0.999999" y1="0.380435" x2="30.987" y2="30.987" gradientUnits="userSpaceOnUse">
<stop stop-color="#7752CF"/>
<stop offset="1" stop-color="#9432E4"/>
</linearGradient>
</defs>
</svg>
