<svg width="72" height="72" viewBox="0 0 72 72" fill="none" xmlns="http://www.w3.org/2000/svg">
<g filter="url(#filter0_dd_10606_15998)">
<g clip-path="url(#clip0_10606_15998)">
<path d="M12 26C12 12.7452 22.7452 2 36 2C49.2548 2 60 12.7452 60 26C60 39.2548 49.2548 50 36 50C22.7452 50 12 39.2548 12 26Z" fill="#F4F4F5"/>
<path fill-rule="evenodd" clip-rule="evenodd" d="M36 37.25C41.799 37.25 46.5 32.549 46.5 26.75C46.5 20.951 41.799 16.25 36 16.25C30.201 16.25 25.5 20.951 25.5 26.75C25.5 28.6332 25.9957 30.4005 26.8639 31.9287L25.5 37.25L30.9861 35.9778C32.476 36.7891 34.1842 37.25 36 37.25ZM36 35.6346C40.9068 35.6346 44.8846 31.6568 44.8846 26.75C44.8846 21.8432 40.9068 17.8654 36 17.8654C31.0932 17.8654 27.1154 21.8432 27.1154 26.75C27.1154 28.6445 27.7084 30.4006 28.7189 31.8427L27.9231 34.8269L30.9599 34.0677C32.392 35.0559 34.1284 35.6346 36 35.6346Z" fill="#BFC8D0"/>
<path d="M45 26C45 30.9706 40.9706 35 36 35C34.1041 35 32.3452 34.4138 30.8945 33.4127L27.8182 34.1818L28.6243 31.1588C27.6007 29.698 27 27.9192 27 26C27 21.0294 31.0294 17 36 17C40.9706 17 45 21.0294 45 26Z" fill="url(#paint0_linear_10606_15998)"/>
<path fill-rule="evenodd" clip-rule="evenodd" d="M36 36.5C41.799 36.5 46.5 31.799 46.5 26C46.5 20.201 41.799 15.5 36 15.5C30.201 15.5 25.5 20.201 25.5 26C25.5 27.8832 25.9957 29.6505 26.8639 31.1787L25.5 36.5L30.9861 35.2278C32.476 36.0391 34.1842 36.5 36 36.5ZM36 34.8846C40.9068 34.8846 44.8846 30.9068 44.8846 26C44.8846 21.0932 40.9068 17.1154 36 17.1154C31.0932 17.1154 27.1154 21.0932 27.1154 26C27.1154 27.8945 27.7084 29.6506 28.7189 31.0927L27.9231 34.0769L30.9599 33.3177C32.392 34.3059 34.1284 34.8846 36 34.8846Z" fill="white"/>
<path d="M33.375 21.125C33.1254 20.6236 32.7424 20.668 32.3555 20.668C31.6641 20.668 30.5859 21.4962 30.5859 23.0376C30.5859 24.3008 31.1426 25.6836 33.0183 27.7522C34.8285 29.7485 37.207 30.7812 39.1817 30.7461C41.1563 30.7109 41.5625 29.0117 41.5625 28.4379C41.5625 28.1835 41.4047 28.0566 41.296 28.0221C40.6231 27.6992 39.382 27.0975 39.0996 26.9844C38.8172 26.8714 38.6698 27.0243 38.5781 27.1075C38.3221 27.3515 37.8144 28.0707 37.6406 28.2325C37.4668 28.3942 37.2077 28.3124 37.0999 28.2512C36.7031 28.092 35.6272 27.6134 34.7696 26.7821C33.709 25.754 33.6467 25.4002 33.4469 25.0854C33.2871 24.8335 33.4044 24.6789 33.4629 24.6114C33.6914 24.3477 34.007 23.9406 34.1485 23.7383C34.29 23.536 34.1776 23.2289 34.1102 23.0376C33.8203 22.2149 33.5747 21.5262 33.375 21.125Z" fill="white"/>
</g>
</g>
<defs>
<filter id="filter0_dd_10606_15998" x="0" y="0" width="72" height="72" filterUnits="userSpaceOnUse" color-interpolation-filters="sRGB">
<feFlood flood-opacity="0" result="BackgroundImageFix"/>
<feColorMatrix in="SourceAlpha" type="matrix" values="0 0 0 0 0 0 0 0 0 0 0 0 0 0 0 0 0 0 127 0" result="hardAlpha"/>
<feMorphology radius="4" operator="erode" in="SourceAlpha" result="effect1_dropShadow_10606_15998"/>
<feOffset dy="4"/>
<feGaussianBlur stdDeviation="3"/>
<feColorMatrix type="matrix" values="0 0 0 0 0 0 0 0 0 0 0 0 0 0 0 0 0 0 0.1 0"/>
<feBlend mode="normal" in2="BackgroundImageFix" result="effect1_dropShadow_10606_15998"/>
<feColorMatrix in="SourceAlpha" type="matrix" values="0 0 0 0 0 0 0 0 0 0 0 0 0 0 0 0 0 0 127 0" result="hardAlpha"/>
<feMorphology radius="3" operator="erode" in="SourceAlpha" result="effect2_dropShadow_10606_15998"/>
<feOffset dy="10"/>
<feGaussianBlur stdDeviation="7.5"/>
<feColorMatrix type="matrix" values="0 0 0 0 0 0 0 0 0 0 0 0 0 0 0 0 0 0 0.1 0"/>
<feBlend mode="normal" in2="effect1_dropShadow_10606_15998" result="effect2_dropShadow_10606_15998"/>
<feBlend mode="normal" in="SourceGraphic" in2="effect2_dropShadow_10606_15998" result="shape"/>
</filter>
<linearGradient id="paint0_linear_10606_15998" x1="43.875" y1="19.25" x2="27" y2="35" gradientUnits="userSpaceOnUse">
<stop stop-color="#5BD066"/>
<stop offset="1" stop-color="#27B43E"/>
</linearGradient>
<clipPath id="clip0_10606_15998">
<path d="M12 26C12 12.7452 22.7452 2 36 2C49.2548 2 60 12.7452 60 26C60 39.2548 49.2548 50 36 50C22.7452 50 12 39.2548 12 26Z" fill="white"/>
</clipPath>
</defs>
</svg>
