<svg width="16" height="16" viewBox="0 0 16 16" fill="none" xmlns="http://www.w3.org/2000/svg">
<g clip-path="url(#clip0_11253_534)">
<path d="M15.6811 4.12377C15.5906 3.78338 15.4123 3.47272 15.1641 3.22287C14.9159 2.97303 14.6063 2.79277 14.2665 2.70013C13.0156 2.36377 8.01562 2.36377 8.01562 2.36377C8.01562 2.36377 3.01563 2.36377 1.76472 2.70013C1.42491 2.79277 1.1154 2.97303 0.86715 3.22287C0.618902 3.47272 0.440629 3.78338 0.35017 4.12377C0.015625 5.38013 0.015625 8.00013 0.015625 8.00013C0.015625 8.00013 0.015625 10.6201 0.35017 11.8765C0.440629 12.2169 0.618902 12.5275 0.86715 12.7774C1.1154 13.0272 1.42491 13.2075 1.76472 13.3001C3.01563 13.6365 8.01562 13.6365 8.01562 13.6365C8.01562 13.6365 13.0156 13.6365 14.2665 13.3001C14.6063 13.2075 14.9159 13.0272 15.1641 12.7774C15.4123 12.5275 15.5906 12.2169 15.6811 11.8765C16.0156 10.6201 16.0156 8.00013 16.0156 8.00013C16.0156 8.00013 16.0156 5.38013 15.6811 4.12377Z" fill="#FF0302"/>
<path d="M6.37891 10.379V5.62085L10.5607 7.99994L6.37891 10.379Z" fill="#FEFEFE"/>
</g>
<defs>
<clipPath id="clip0_11253_534">
<rect width="16" height="16" fill="white"/>
</clipPath>
</defs>
</svg>
