<svg width="478" height="144" viewBox="0 0 478 144" fill="none" xmlns="http://www.w3.org/2000/svg">
<g clip-path="url(#clip0_10955_18172)">
<path d="M214.67 67.17L209.69 65.18L212.25 70.03C214.57 70.63 233.35 64.61 238.25 64.27C239.25 64.2 241.46 63.59 240.62 65.65C238.89 69.97 218.62 71.59 214.09 74.1C215.87 81.73 216.87 88.09 213.7 95.62C209.17 106.38 196.33 113.69 189.7 101.09H187.74C187.3 103.78 182.5 108.53 180.01 108.91C175.5 109.6 170.26 102.01 168.77 103.08C167.18 112.2 154.96 114.53 151.77 105.08H150.32C145.8 110.38 140.41 113.26 133.31 113.13C130.94 113.08 128.7 111.86 126.43 112.07C120.16 112.65 118.03 118.98 107.59 116.82C93.6297 113.92 97.2997 96.12 94.8597 86.62C94.5797 85.53 95.5697 84.72 93.3697 85.11C91.3997 85.46 85.6597 89.91 85.0997 91.82C83.4297 97.53 85.5997 104.34 82.6697 112.34C75.4097 132.19 35.6897 143.61 16.5897 140.91C-4.81029 137.89 -1.93029 102.44 7.51971 89.12C6.97971 102.81 -3.12029 120.98 14.3097 128.22C28.2397 134.01 63.7697 122.65 75.3997 113.05C85.3697 104.82 72.1297 93.85 74.9797 86.76C78.9397 76.92 80.7697 83.63 86.9297 81.7C91.2797 80.34 94.1197 72.35 99.8297 73.17C102.85 87.01 97.4997 110.23 119.84 105.06C113.79 96.5 119.59 70.3 132.57 75.9C143.52 80.62 132.82 100.14 133.82 101.08C143.65 102.16 149.31 96.33 153.29 88.12C153.92 105.53 165.78 99.76 172.25 89.13L174.97 95.87C184.5 100.17 185.89 94.4 189.22 87.14C193.55 97.3 203.78 99.83 210.53 90.41L205.59 76.22L175.26 83.14C174.04 82.54 175.15 79.56 175.67 78.8C177.19 76.56 199.46 73.17 203.65 72.1C203.77 64.5 200.66 56.28 205.21 49.2C206.9 48.85 207.15 50.57 207.87 51.51C209.58 53.75 216.21 65.01 214.67 67.16V67.17ZM124.54 86.3C117.91 88.27 124.8 100.07 129.13 99C134.13 97.76 132.51 83.93 124.54 86.3Z" fill="white"/>
<path d="M375.249 7.50002C377.029 8.54002 383.809 25.18 381.919 28.25L377.429 23.27C379.259 38.03 378.959 52.83 379.429 67.66C379.899 82.59 381.759 98.56 380.449 113.6C379.909 119.76 377.209 124.32 375.429 130.03L401.209 118.89L406.299 95.2C395.459 90.43 382.399 76.85 385.899 64.18L398.379 74.66L396.359 75.65C396.239 80.78 423.489 90.57 425.249 102.68C427.359 117.18 419.499 121.62 407.369 126.05C421.769 139.03 451.639 120.35 463.749 110.04C466.129 108.01 475.029 100.33 473.129 97.22C460.079 90.75 443.829 106.71 449.599 81.93C452.569 69.17 458.079 66.36 468.739 75.17C484.609 88.28 476.999 108.32 463.749 120.01C448.529 133.45 415.899 153.84 401.779 129.09C389.539 133.83 376.999 143.56 363.169 140.76C346.439 137.37 362.849 109.53 365.449 100.09C367.269 99.84 366.279 102.18 366.009 103.14C364.229 109.36 356.939 121.32 358.889 127.08C360.839 132.84 373.939 131.61 374.469 129.35L373.469 62.63C373.569 50.34 370.339 35.62 370.339 23.76C370.339 21.74 371.799 7.82002 372.449 7.30002C372.619 7.16002 374.709 7.18002 375.259 7.50002H375.249ZM465.279 86.12C467.919 83.82 453.259 77.49 451.309 83.65C450.449 87.73 462.859 85.68 465.279 86.12ZM421.229 105.2C420.819 104.5 407.979 96.56 407.379 97.1L403.379 117.05C404.169 117.88 423.909 109.8 421.229 105.2Z" fill="white"/>
<path d="M289.06 86.13C296.34 85.38 304.57 82.28 309.51 76.65C304.8 72.55 298.56 77.71 293.16 77.13C282.81 76.01 285.69 64.25 288.29 57.42C293.81 42.89 311.97 57.22 314.09 67.12C315.67 74.48 313.67 83.86 308.09 89.17C303.59 93.45 297.69 93.51 293.05 97.09C291.24 125.71 271.97 120.91 267.66 96.52L258.64 96.12C257.27 114.19 243.81 120.37 229.34 127.22C205.3 138.6 194.47 143.06 167.4 138.88C166.08 138.68 161.98 138.53 161.77 137.03C184.16 134.56 204.67 128.27 225.02 118.92C229.89 116.68 249.6 107.14 251.67 103.64C256.54 95.43 236.74 102.23 234.1 94.17C232.03 87.87 237.46 72.73 245.06 73.17C253.76 73.68 256.63 86.51 258.26 87.05C269.31 87.56 267.27 80.61 270.14 73.2C271.12 70.68 276.15 58.55 277.55 57.66C278.54 57.03 279.48 57.13 280.57 57.2C285.66 68.15 278.4 76.37 274.59 86.13C279.26 85.79 284.47 86.6 289.07 86.13H289.06ZM303.53 64.2C298.62 61.91 295.69 60.44 290.56 63.2C291.05 68.52 299.42 65.39 303.03 66.18L303.52 64.2H303.53ZM269.6 82.13C275.52 82.96 280.63 69.35 276.07 67.18C274.16 66.27 274.54 69.09 274.07 70.11C273.34 71.67 269.08 81.61 269.6 82.13ZM250.62 90.11C247.32 85.78 243.76 81.13 237.66 83.16C236.67 90.57 245.2 90.34 250.62 90.11ZM275.59 97.1C274.34 101.68 285.06 113.64 288.12 107.09C289.69 103.73 278.52 97.34 275.59 97.1Z" fill="white"/>
<path d="M308.521 51.2C306.461 50.24 308.121 46.66 307.021 44.24C306.581 43.27 301.111 37.98 300.081 38.24C293.991 49.37 285.881 50.75 279.061 39.21C274.051 41.58 269.931 45.64 264.981 48.09C237.421 61.72 194.161 54.77 208.711 15.29C212.391 14.49 209.521 19.98 209.661 22.72C211.071 50.48 253.931 43.65 270.641 34.79C275.821 32.04 278.261 29.37 281.101 24.28C282.951 23.34 282.691 28.89 284.131 31.21C290.671 41.76 298.011 31.75 302.061 25.28L306.501 31.8C310.971 35.78 312.071 34.38 315.491 30.73C326.901 18.57 333.411 -4.55001 354.491 0.79999C369.111 4.51999 367.911 23.96 359.451 32.75C352.071 40.41 328.541 46.72 317.971 47.26C313.431 47.5 309.771 43.31 308.521 51.2ZM339.191 10.51C332.641 12 323.181 29.4 318.001 34.25L319.001 36.21C332.671 33.42 347.501 31.89 358.991 23.27C359.911 13.16 347.721 8.57999 339.201 10.51H339.191Z" fill="white"/>
<path d="M234.741 141.91C231.591 135.11 250.611 130.73 250.601 128.53C246.931 125.76 249.451 121.07 251.231 117.97C256.181 117.91 263.231 124.22 261.501 129.38C260.281 133.01 254.621 129.76 252.351 130.22C250.871 130.52 248.231 133.32 246.311 134.2C243.081 135.67 238.451 135.85 236.651 139C263.701 143.51 295.841 129.8 315.991 112.04C318.961 109.42 326.091 103.35 324.781 99.42C322.431 92.38 313.871 89.92 319.681 80.3C325.221 79.38 330.691 79.52 335.811 76.97C342.561 73.61 350.631 59.79 356.451 58.61C362.721 57.34 368.881 68.84 368.251 74.39C367.991 76.71 363.741 86.91 362.001 88.22C357.021 91.97 344.061 78.91 341.471 80.58C338.991 86.18 333.621 87.13 328.921 90.12C332.671 108.42 325.261 116.63 311.991 127.01C289.881 144.31 284.171 139.68 258.121 141.02C250.791 141.4 242.511 145.33 234.731 141.91H234.741ZM361.441 78.14C361.291 72.83 355.611 67.92 350.471 70.18C349.231 71.49 354.361 74.46 355.141 74.97C356.211 75.68 360.641 78.99 361.441 78.14Z" fill="white"/>
<path d="M441.31 24.27L436.34 19.28L438.329 56.19L469.269 50.7C466.239 57.18 439.76 57.84 438.42 61.83C437.92 64.53 439.28 66.94 439.37 69.62C439.76 82.49 440.989 106.97 437.109 118.33C436.499 120.12 434.95 123.99 433.35 125.03L432.34 62.18C423.9 63.3 415.13 66.94 406.78 68.06C405.21 68.27 402.88 68.98 403.38 66.66C403.51 64.87 404.67 64.09 406.15 63.44C410.14 61.68 430.409 59.07 431.299 58.15C433.559 40.83 426.99 23.11 430.57 6.02997C432.37 -2.57003 437.339 8.60997 438.519 11.62C440.089 15.63 441.48 19.91 441.32 24.27H441.31Z" fill="white"/>
<path d="M111.84 1.33001L109.54 4.51001L29.9798 29.26C29.8098 34.26 38.8698 32.78 40.5198 35.18C44.8798 41.53 27.0898 39.47 26.1198 34.53C24.8098 29.78 34.7698 23.12 38.6698 21.48C55.6298 14.34 86.0098 7.24001 104.65 2.61001C107.02 2.02001 109.34 1.12001 111.84 1.33001Z" fill="white"/>
<path d="M210.681 2.33002C209.111 4.83002 205.191 5.92002 202.531 6.64002C180.291 12.71 154.491 14.09 131.811 19.27C131.791 16.29 133.891 14.16 136.751 13.74L210.681 2.33002Z" fill="white"/>
<path d="M335.499 121.05C332.779 135.44 315.209 136.71 303.539 140L327.429 128.47C334.549 124.42 337.669 103.83 348.849 110.2C352.739 112.42 352.769 116.04 351.779 119.87C348.289 133.34 337.949 119.22 335.499 121.05Z" fill="white"/>
<path d="M154.599 139.83C151.479 141.67 145.669 135.39 142.359 134.95L137.319 141.87L127.989 136.83C126.529 134.36 130.589 128.17 132.789 126.49L143.309 131.89L149.089 125.16L159.729 131.51L154.589 139.82L154.599 139.83Z" fill="white"/>
<path d="M104.68 138.83C101.56 140.67 95.7504 134.39 92.4404 133.96L87.4004 140.77L78.0704 135.84C76.6204 133.39 80.7804 126.62 83.3804 125.28L93.3904 130.78C96.5304 129.45 95.9304 123.69 99.9504 124.54C101.32 124.83 109.73 129.76 109.79 130.51L104.69 138.83H104.68Z" fill="white"/>
<path d="M226.789 12.18C229.989 -6.90001 237.809 7.69999 243.069 7.35999L248.109 0.549988L258.589 6.86999L252.139 16.03L242.949 10.41L236.159 16.99L226.779 12.17L226.789 12.18Z" fill="white"/>
<path d="M192.569 44.35C193.839 46.56 187.639 52.24 186.119 54.16L176.339 48.28L169.699 54.81L160.869 47.57L167.399 39.34L177.179 45.28L183.059 38.33L192.569 44.35Z" fill="white"/>
<path d="M67.9204 34.24C60.1404 32.77 63.5504 44.24 61.8704 49.54C63.8804 51.11 66.2204 51.57 68.4104 53.21C81.1304 62.75 62.2204 62.29 60.9504 68.69C59.6204 75.37 65.2704 87.7 65.9004 95.62C66.0104 96.95 66.7604 101.8 64.9304 102.09C67.0404 88.42 47.8004 65.66 65.9104 58.7C64.0304 56.24 62.7504 55.65 59.9304 57.2C61.1904 52.75 60.6604 44.91 56.9004 41.76C54.6604 39.89 50.4404 40.96 50.8704 36.75C51.7904 27.87 60.3004 42.68 60.9104 42.23L62.9304 29.26C66.0504 28.81 68.3504 31.08 67.9204 34.24Z" fill="white"/>
<path d="M146.79 39.73C147.46 35.11 150.45 30.93 154.86 34.91L155.77 41.22L149.84 40.25C149.99 41.17 148.79 42.37 148.79 42.72V65.17C144.99 62.7 142.52 53.34 139.38 51.13C136.96 49.43 134.17 50.83 131.82 49.71C128.91 48.34 129.55 43.07 131.81 41.69C137.03 38.49 143.02 51.8 146.8 54.19C147.26 49.66 146.16 44.09 146.8 39.72L146.79 39.73Z" fill="white"/>
<path d="M20.9804 10.3L16.0204 9.31001L14.9904 26.75L13.0204 34.24C12.5204 30.84 8.41044 19.31 5.38044 18.57C4.64044 18.39 3.43044 19.16 2.66044 18.99C-2.13956 17.88 0.310436 7.87001 4.04044 9.77001L12.9904 23.27C13.4704 19.12 13.2804 6.03001 15.5204 3.34001C16.7904 1.81001 18.2404 1.84001 19.5004 3.31001L20.9804 10.3Z" fill="white"/>
<path d="M13.0092 70.17C14.8792 70.76 14.0892 76.07 13.8892 77.54C13.2092 82.45 11.4192 91.38 5.03921 86.59C-4.92079 79.12 3.61921 50.85 5.02921 40.23C6.88921 40.02 5.85921 42.33 5.72921 43.42C4.55921 53.92 -3.69079 73.46 9.48921 78.21C12.6592 77.94 12.8892 72.66 13.0092 70.15V70.17Z" fill="white"/>
<path d="M416.361 6.80997C416.571 5.21997 418.351 2.43997 418.441 0.409973L422.421 0.759973L423.341 8.30997L418.361 7.30997L417.351 30.26C415.071 30.68 415.761 30.14 415.131 28.99C413.601 26.2 412.491 19.76 410.441 17.73C407.061 14.38 400.311 18.77 404.391 7.32997C408.531 4.57997 413.631 19.6 416.361 21.29C416.781 16.7 415.781 11.28 416.361 6.81997V6.80997Z" fill="white"/>
<path d="M396.391 26.76C395.411 19.47 387.341 10.25 387.361 4.84C387.361 3.33 386.731 1.9 388.891 2.33C398.101 10.36 400.621 21.79 399.311 33.67L396.401 41.23C395.971 36.66 397.001 31.2 396.401 26.76H396.391Z" fill="white"/>
<path d="M166.949 32.07C165.429 29.46 170.079 23.78 172.459 22.38L182.659 28.86C183.069 30.56 177.569 36.74 176.039 37.13C174.779 37.45 167.279 32.64 166.949 32.07Z" fill="white"/>
<path d="M94.8604 64.17C92.4704 64.74 93.2504 63.7 92.6504 62.87C86.3304 54.02 92.7404 50.72 92.9204 42.67C93.0404 37.01 87.0204 32.63 91.8904 25.27C101.01 33.3 93.1704 41.71 92.9104 48.81C92.7304 53.62 99.4804 58.08 94.8604 64.17Z" fill="white"/>
<path d="M36.9598 53.21C38.7998 55 28.9598 69.37 23.9898 65.68L29.9798 60.2L17.0098 60.18C20.2198 50.46 28.9798 53.28 36.9698 53.21H36.9598Z" fill="white"/>
<path d="M204.63 121.99C202.92 122.61 200.74 121 199.31 121.27C197.98 121.52 197.13 124.08 195.21 124.09C193.39 124.09 191.8 121.1 189.75 120.46C184.15 118.72 168.46 130.93 161.76 132.02L188.47 116.25L197.06 119.95L201.19 116.28L204.68 118.05L206.68 114.06L204.63 121.99Z" fill="white"/>
<path d="M257.261 57.35L266.361 63.66L260.981 72.08L251.711 65.49L257.261 57.35Z" fill="white"/>
<path d="M39.6704 71.27C41.7204 70.76 47.1404 75.24 48.8604 76.81L43.4704 85.94L35.1004 79.44C34.1704 76.95 37.4804 71.82 39.6704 71.27Z" fill="white"/>
<path d="M110.03 36.42C112.58 34.92 119.19 39.54 120.72 41.92C119.96 45.89 117.82 51.51 113.12 49.46C105.97 46.33 105.48 42.43 110.03 36.42Z" fill="white"/>
<path d="M395.1 43.33C396.62 42.95 403.95 47.71 404.29 48.87C404.98 51.18 400.69 56.42 398.89 58.1C397.18 55.99 391.22 53.92 390.53 51.5C389.79 48.93 392.73 43.93 395.1 43.33Z" fill="white"/>
<path d="M309.709 0.500001C312.259 -0.999999 318.869 3.62 320.399 6L315.879 14.23C307.959 11.46 303.409 8.55 309.709 0.500001Z" fill="white"/>
<path d="M30.9698 99.09L26.9898 98.09L25.4898 118.04C22.9598 115.91 22.3898 108.82 20.5098 107.05C17.8698 104.55 12.1698 107.13 15.0098 99.09C21.2098 98.68 20.9998 106.35 24.9698 109.07L26.9898 93.11C31.2798 92.36 31.2698 95.85 30.9598 99.09H30.9698Z" fill="white"/>
<path d="M469.269 22.28C455.989 42.21 455.519 13.08 464.779 5.31C465.269 8.25 462.779 10.68 462.369 13.87C461.579 20.08 462.639 22.34 469.269 22.27V22.28Z" fill="white"/>
<path d="M459.291 35.25C460.741 37.36 452.941 47.38 449.311 44.72L453.291 40.23L443.311 40.21C445.771 33 452.991 33.34 459.281 35.24L459.291 35.25Z" fill="white"/>
<path d="M350.46 132.03C351.68 133.38 343.85 144.25 340.48 141.5L344.46 137.01H334.49C336.46 129.57 344.44 130.52 350.46 132.02V132.03Z" fill="white"/>
<path d="M168.749 75.16C167.949 81.27 157.929 81.94 156.169 76.18C154.899 72.01 159.879 64.79 163.269 62.19C164.159 65.83 159.079 68 160.509 71.87C161.939 75.74 165.379 75.4 168.759 75.16H168.749Z" fill="white"/>
<path d="M53.9402 111.08C52.8302 115.06 50.2702 119.29 45.6402 117.14C40.7602 113.88 46.9202 98.78 50.4502 95.12C50.7502 99.36 46.3102 102.64 47.1202 107.34C47.7702 111.13 50.5502 111.46 53.9402 111.09V111.08Z" fill="white"/>
<path d="M471.271 129.03C472.791 130.38 463.751 142.04 460.301 139.51L465.281 134.02L455.301 134C457.551 126.33 465.141 129.63 471.271 129.03Z" fill="white"/>
<path d="M286.57 12.31C285.49 16.41 282.229 17.27 278.279 16.09C272.239 14.28 277.599 4.50002 281.079 2.33002C282.229 4.30002 279.3 5.92002 279.04 8.19002C278.55 12.6 283.219 12.7 286.559 12.31H286.57Z" fill="white"/>
<path d="M39.9605 1.33001L36.4005 7.33001C38.5705 10.22 41.8105 10.05 44.9405 10.79C42.2005 14.64 36.9805 13.65 33.1005 12.15C31.8605 6.81001 34.6205 2.41001 39.9505 1.32001L39.9605 1.33001Z" fill="white"/>
<path d="M119.08 12.05C120.82 13.72 123.94 12.67 125.82 13.78C123.23 17.54 118.5 19.1 115.32 15.28C113.61 11.85 116.22 5.90999 119.82 4.29999C119.72 6.96999 116.46 9.52999 119.08 12.04V12.05Z" fill="white"/>
<path d="M230.66 101.1C224.26 111.15 216.88 99.67 225.66 94.11L225.09 100.16L230.66 101.1Z" fill="white"/>
<path d="M246.629 32.25C246.759 36.32 241.639 35.39 238.779 35.1C236.789 31.29 239.239 26.87 242.139 24.26L240.609 28.75C241.089 31.8 243.799 32.48 246.629 32.24V32.25Z" fill="white"/>
<path d="M351.46 92.12C347.41 99.42 353.65 98.61 353.46 105.08C345.55 102.85 346.26 100.63 349.21 94.3C349.86 92.89 348.61 91.58 351.47 92.13L351.46 92.12Z" fill="white"/>
<path d="M309.529 108.08C310.259 111.75 303.299 112.01 301.979 110.14C300.569 106.28 301.949 102.59 305.039 100.1C306.639 101.4 303.889 103.17 303.879 104.56C303.849 107.43 306.989 108.55 309.529 108.08Z" fill="white"/>
<path d="M330.731 63.94L335.491 65.19C329.201 73.31 323.951 64.38 330.001 58.2L330.731 63.94Z" fill="white"/>
</g>
<defs>
<clipPath id="clip0_10955_18172">
<rect width="477.66" height="143.3" fill="white"/>
</clipPath>
</defs>
</svg>
