<svg preserveAspectRatio="none" width="100%" height="100%" overflow="visible" style="display: block;" viewBox="0 0 17.0833 17.0833" fill="none" xmlns="http://www.w3.org/2000/svg">
<g id="Vector">
<path fill-rule="evenodd" clip-rule="evenodd" d="M6.45833 0C4.27221 0 2.5 1.77221 2.5 3.95833C2.5 6.14446 4.27221 7.91667 6.45833 7.91667C8.64446 7.91667 10.4167 6.14446 10.4167 3.95833C10.4167 1.77221 8.64446 0 6.45833 0ZM3.75 3.95833C3.75 2.46256 4.96256 1.25 6.45833 1.25C7.95411 1.25 9.16667 2.46256 9.16667 3.95833C9.16667 5.4541 7.95411 6.66667 6.45833 6.66667C4.96256 6.66667 3.75 5.4541 3.75 3.95833Z" fill="var(--fill-0, #71717A)"/>
<path d="M11.4583 0.833333C11.1132 0.833333 10.8333 1.11316 10.8333 1.45833C10.8333 1.80351 11.1132 2.08333 11.4583 2.08333C12.4939 2.08333 13.3333 2.9228 13.3333 3.95833C13.3333 4.99387 12.4939 5.83333 11.4583 5.83333C11.1132 5.83333 10.8333 6.11316 10.8333 6.45833C10.8333 6.80351 11.1132 7.08333 11.4583 7.08333C13.1842 7.08333 14.5833 5.68422 14.5833 3.95833C14.5833 2.23244 13.1842 0.833333 11.4583 0.833333Z" fill="var(--fill-0, #71717A)"/>
<path fill-rule="evenodd" clip-rule="evenodd" d="M2.02346 10.2253C3.1896 9.55896 4.75889 9.16667 6.45833 9.16667C8.15778 9.16667 9.72707 9.55896 10.8932 10.2253C12.0417 10.8816 12.9167 11.8834 12.9167 13.125C12.9167 14.3666 12.0417 15.3684 10.8932 16.0247C9.72707 16.691 8.15778 17.0833 6.45833 17.0833C4.75889 17.0833 3.1896 16.691 2.02346 16.0247C0.874997 15.3684 0 14.3666 0 13.125C0 11.8834 0.874997 10.8816 2.02346 10.2253ZM2.64363 11.3106C1.68084 11.8608 1.25 12.5256 1.25 13.125C1.25 13.7244 1.68084 14.3892 2.64363 14.9394C3.58874 15.4794 4.93612 15.8333 6.45833 15.8333C7.98055 15.8333 9.32793 15.4794 10.273 14.9394C11.2358 14.3892 11.6667 13.7244 11.6667 13.125C11.6667 12.5256 11.2358 11.8608 10.273 11.3106C9.32793 10.7706 7.98055 10.4167 6.45833 10.4167C4.93612 10.4167 3.58874 10.7706 2.64363 11.3106Z" fill="var(--fill-0, #71717A)"/>
<path d="M14.0922 10.0145C13.755 9.94057 13.4218 10.154 13.3478 10.4911C13.2739 10.8283 13.4873 11.1616 13.8245 11.2355C14.4848 11.3803 15.0125 11.629 15.3607 11.914C15.7095 12.1994 15.8333 12.4781 15.8333 12.7083C15.8333 12.9173 15.7328 13.1625 15.4558 13.4199C15.1767 13.6792 14.7479 13.9187 14.1948 14.0852C13.8643 14.1848 13.677 14.5334 13.7765 14.8639C13.8761 15.1944 14.2247 15.3817 14.5552 15.2822C15.2407 15.0758 15.8536 14.7565 16.3065 14.3357C16.7615 13.9131 17.0833 13.3572 17.0833 12.7083C17.0833 11.9877 16.6881 11.385 16.1523 10.9466C15.6161 10.5078 14.8938 10.1903 14.0922 10.0145Z" fill="var(--fill-0, #71717A)"/>
</g>
</svg>
