<svg preserveAspectRatio="none" width="100%" height="100%" overflow="visible" style="display: block;" viewBox="0 0 13.3333 13.3333" fill="none" xmlns="http://www.w3.org/2000/svg">
<g id="Vector">
<path fill-rule="evenodd" clip-rule="evenodd" d="M0 6.66667C-9.35703e-09 6.92354 0.20824 7.13178 0.465116 7.13178H1.72694C1.94719 9.50058 3.83276 11.3861 6.20155 11.6064V12.8682C6.20155 13.1251 6.40979 13.3333 6.66667 13.3333C6.92354 13.3333 7.13178 13.1251 7.13178 12.8682V11.6064C9.50058 11.3861 11.3861 9.50058 11.6064 7.13178H12.8682C13.1251 7.13178 13.3333 6.92354 13.3333 6.66667C13.3333 6.40979 13.1251 6.20155 12.8682 6.20155H11.6064C11.3861 3.83276 9.50058 1.94719 7.13178 1.72694V0.465116C7.13178 0.20824 6.92354 0 6.66667 0C6.40979 0 6.20155 0.20824 6.20155 0.465116V1.72694C3.83276 1.94719 1.94719 3.83276 1.72694 6.20155H0.465116C0.20824 6.20155 9.35703e-09 6.40979 0 6.66667ZM4.34109 6.66667C4.34109 5.38228 5.38228 4.34109 6.66667 4.34109C7.95105 4.34109 8.99225 5.38228 8.99225 6.66667C8.99225 7.95105 7.95105 8.99225 6.66667 8.99225C5.38228 8.99225 4.34109 7.95105 4.34109 6.66667Z" fill="var(--fill-0, #52525B)"/>
<path d="M5.27132 6.66667C5.27132 5.89604 5.89604 5.27132 6.66667 5.27132C7.4373 5.27132 8.06202 5.89604 8.06202 6.66667C8.06202 7.4373 7.4373 8.06202 6.66667 8.06202C5.89604 8.06202 5.27132 7.4373 5.27132 6.66667Z" fill="var(--fill-0, #52525B)"/>
</g>
</svg>
