<svg preserveAspectRatio="none" width="100%" height="100%" overflow="visible" style="display: block;" viewBox="0 0 20.4004 28.0059" fill="none" xmlns="http://www.w3.org/2000/svg">
<path id="Union" d="M20.4004 27.4746C20.4004 27.7694 20.1639 28.0059 19.8691 28.0059H0.530273C0.23565 28.0057 0 27.7693 0 27.4746V20.6357H20.4004V27.4746ZM3.9209 10.583C4.21569 12.0275 4.98253 13.3244 6.07324 14.2383H4.06836C3.862 14.2383 3.71503 14.3864 3.68555 14.5928L3.56738 15.4766C3.53791 15.7123 3.71447 15.9188 3.9502 15.9189H16.4502C16.6858 15.9187 16.8625 15.7123 16.833 15.4766L16.7148 14.5928C16.6854 14.3865 16.5383 14.2384 16.332 14.2383H14.3271C15.4178 13.3244 16.2142 12.0274 16.4795 10.583H18.0713C18.3365 10.5831 18.5426 10.7603 18.6016 10.9961L20.3408 19.5742H0.0888672L1.79883 10.9961C1.85779 10.7603 2.06379 10.583 2.3291 10.583H3.9209ZM10.2002 4.03906C13.1479 4.0392 15.536 6.397 15.5361 9.34473C15.5361 12.2926 13.148 14.6805 10.2002 14.6807C7.25239 14.6807 4.86451 12.3227 4.86426 9.375C4.86426 6.42704 7.25223 4.03906 10.2002 4.03906ZM10.3115 6.33789C9.9943 6.33791 9.70946 6.3986 9.45703 6.51953C9.20461 6.63878 9.00658 6.81425 8.86328 7.0459C8.72168 7.27594 8.65725 7.55737 8.6709 7.88965L8.69824 8.68945H8.13672V9.56152H8.72852L8.74805 10.126C8.74975 10.2161 8.74407 10.3048 8.73047 10.3916C8.71853 10.4785 8.69256 10.5541 8.65332 10.6172C8.61579 10.6784 8.55935 10.7171 8.48438 10.7324H8.14941V11.6445H11.957V10.7324H9.63672C9.66051 10.7052 9.68441 10.6792 9.70312 10.6504C9.80546 10.4936 9.85228 10.2979 9.84375 10.0645L9.8252 9.56152H10.9434V8.68945H9.79199L9.76172 7.88965C9.76001 7.73969 9.78353 7.61568 9.83301 7.51855C9.88417 7.41988 9.95287 7.34649 10.0381 7.29883C10.125 7.24953 10.2227 7.22461 10.3301 7.22461C10.4407 7.22466 10.5418 7.2451 10.6338 7.28418C10.7259 7.32335 10.7999 7.38582 10.8545 7.47266C10.909 7.5595 10.934 7.67562 10.9307 7.82031L11.9678 7.84863C11.9763 7.62889 11.9449 7.42714 11.875 7.24316C11.8051 7.05913 11.6977 6.89927 11.5527 6.76465C11.4095 6.62844 11.2334 6.52343 11.0254 6.4502C10.8173 6.37531 10.5792 6.33789 10.3115 6.33789ZM7.63574 0.677734C7.93036 0.677933 8.16602 0.914312 8.16602 1.20898V3.21289C8.16602 3.50756 7.93036 3.74394 7.63574 3.74414C7.37043 3.74414 7.10449 3.50787 7.10449 3.18359V1.20898C7.10449 0.914188 7.34095 0.677734 7.63574 0.677734ZM12.7354 0.677734C13.0301 0.677816 13.2656 0.914239 13.2656 1.20898V3.21289C13.2656 3.50764 13.0301 3.74406 12.7354 3.74414C12.4406 3.74414 12.2041 3.50787 12.2041 3.18359V1.20898C12.2041 0.914188 12.4406 0.677734 12.7354 0.677734ZM10.2002 0C10.4948 0.000104203 10.7302 0.235737 10.7305 0.530273V2.50586C10.7305 2.80057 10.4949 3.03603 10.2002 3.03613C9.90541 3.03613 9.66896 2.80064 9.66895 2.50586V0.530273C9.66917 0.235671 9.90554 0 10.2002 0Z" fill="var(--fill-0, black)"/>
</svg>
