<svg width="129" height="52" viewBox="0 0 129 52" fill="none" xmlns="http://www.w3.org/2000/svg">
<g clip-path="url(#clip0_11750_14474)">
<path d="M11.9853 5.91016L9.1377 7.7852L13.463 8.07898L11.9853 5.91016Z" stroke="white" stroke-width="0.24"/>
<path d="M11.9853 6.10938C12.0844 6.20874 13.1657 7.78568 13.2605 7.9801L9.43066 7.68631L11.9853 6.10938Z" stroke="white" stroke-width="0.24"/>
<path d="M11.9853 5.91016L9.1377 7.7852L13.463 8.07898L11.9853 5.91016Z" stroke="white" stroke-width="0.24"/>
<path d="M11.9853 6.10938C12.0844 6.20874 13.1657 7.78568 13.2605 7.9801L9.43066 7.68631L11.9853 6.10938Z" stroke="white" stroke-width="0.24"/>
<path d="M21.6177 10.9395L19.4551 11.9245V14.1927L20.2391 15.0784L20.3382 14.979C20.6312 14.2877 21.2214 13.6008 22.1088 12.8102C22.4018 12.6114 23.384 12.0239 23.5822 11.8251H23.6813L21.6177 10.9395Z" stroke="white" stroke-width="0.24"/>
<path d="M21.6177 11.0346C21.7167 11.134 23.2892 11.7259 23.483 11.8209C23.1901 12.0196 22.3026 12.5122 22.0097 12.7066C21.1265 13.4929 20.5363 14.1841 20.2391 14.8754L19.5498 14.1841V11.9159L21.6134 11.0303L21.6177 11.0346Z" stroke="white" stroke-width="0.24"/>
<path d="M21.6177 10.9395L19.4551 11.9245V14.1927L20.2391 15.0784L20.3382 14.979C20.6312 14.2877 21.2214 13.6008 22.1088 12.8102C22.4018 12.6114 23.384 12.0239 23.5822 11.8251H23.6813L21.6177 10.9395Z" stroke="white" stroke-width="0.24"/>
<path d="M21.6177 11.0346C21.7167 11.134 23.2892 11.7259 23.483 11.8209C23.1901 12.0196 22.3026 12.5122 22.0097 12.7066C21.1265 13.4929 20.5363 14.1841 20.2391 14.8754L19.5498 14.1841V11.9159L21.6134 11.0303L21.6177 11.0346Z" stroke="white" stroke-width="0.24"/>
<path d="M19.4551 15.2729V17.7355H20.5364H20.4373C20.1444 17.0442 20.0453 16.5517 20.0453 15.9598V15.8604L19.4551 15.2686V15.2729Z" stroke="white" stroke-width="0.24"/>
<path d="M19.5547 15.4717C19.6538 15.6704 19.9467 15.8648 19.9467 15.9642C19.9467 16.5561 20.0458 17.0486 20.3388 17.6405H19.5547V15.4717Z" stroke="white" stroke-width="0.24"/>
<path d="M19.4551 15.2729V17.7355H20.5364H20.4373C20.1444 17.0442 20.0453 16.5517 20.0453 15.9598V15.8604L19.4551 15.2686V15.2729Z" stroke="white" stroke-width="0.24"/>
<path d="M19.5547 15.4717C19.6538 15.6704 19.9467 15.8648 19.9467 15.9642C19.9467 16.5561 20.0458 17.0486 20.3388 17.6405H19.5547V15.4717Z" stroke="white" stroke-width="0.24"/>
<path d="M31.3449 5.91016L29.7725 8.07898L34.1925 7.7852L31.3449 5.91016Z" stroke="white" stroke-width="0.24"/>
<path d="M31.3449 6.10938C31.5431 6.20874 33.6066 7.48757 33.8005 7.68631L30.0654 7.9801L31.3406 6.10938H31.3449Z" stroke="white" stroke-width="0.24"/>
<path d="M31.3449 5.91016L29.7725 8.07898L34.1925 7.7852L31.3449 5.91016Z" stroke="white" stroke-width="0.24"/>
<path d="M31.3449 6.10938C31.5431 6.20874 33.6066 7.48757 33.8005 7.68631L30.0654 7.9801L31.3406 6.10938H31.3449Z" stroke="white" stroke-width="0.24"/>
<path d="M6.38423 12.0195L3.63139 13.4971L1.46875 17.4373H5.8888L8.44347 15.9597C8.44347 15.9597 7.95235 14.8753 7.85327 14.6809L8.63733 13.4021L7.0649 13.3027L6.37561 12.0239L6.38423 12.0195Z" stroke="white" stroke-width="0.24"/>
<path d="M6.2901 12.2178L6.97938 13.4016L8.45273 13.5009L7.76345 14.6847C7.76345 14.6847 8.25456 15.6698 8.35365 15.8685L5.89806 17.3461L1.67188 17.2467L3.73543 13.6003L6.2901 12.2221V12.2178Z" stroke="white" stroke-width="0.24"/>
<path d="M6.38423 12.0195L3.63139 13.4971L1.46875 17.4373H5.8888L8.44347 15.9597C8.44347 15.9597 7.95235 14.8753 7.85327 14.6809L8.63733 13.4021L7.0649 13.3027L6.37561 12.0239L6.38423 12.0195Z" stroke="white" stroke-width="0.24"/>
<path d="M6.2901 12.2178L6.97938 13.4016L8.45273 13.5009L7.76345 14.6847C7.76345 14.6847 8.25456 15.6698 8.35365 15.8685L5.89806 17.3461L1.67188 17.2467L3.73543 13.6003L6.2901 12.2221V12.2178Z" stroke="white" stroke-width="0.24"/>
<path d="M5.89368 23.3516H1.47363L3.63627 27.1924L5.30779 28.078C6.09185 27.5855 6.78114 27.2917 7.47043 27.2917C7.6686 27.2917 7.96154 27.2917 8.15971 27.3911H8.65083L7.86677 26.1123L8.45697 24.8335L5.9023 23.3559L5.89368 23.3516Z" stroke="white" stroke-width="0.24"/>
<path d="M5.89318 23.4506C5.99227 23.55 8.1549 24.7294 8.34876 24.8288L7.75856 26.1076L8.44785 27.2914H8.1549C7.95673 27.2914 7.66379 27.1921 7.46562 27.1921C6.77633 27.1921 6.09135 27.4858 5.30298 27.9784L3.73054 27.1921L1.66699 23.4463H5.89318V23.4506Z" stroke="white" stroke-width="0.24"/>
<path d="M5.89368 23.3516H1.47363L3.63627 27.1924L5.30779 28.078C6.09185 27.5855 6.78114 27.2917 7.47043 27.2917C7.6686 27.2917 7.96154 27.2917 8.15971 27.3911H8.65083L7.86677 26.1123L8.45697 24.8335L5.9023 23.3559L5.89368 23.3516Z" stroke="white" stroke-width="0.24"/>
<path d="M5.89318 23.4506C5.99227 23.55 8.1549 24.7294 8.34876 24.8288L7.75856 26.1076L8.44785 27.2914H8.1549C7.95673 27.2914 7.66379 27.1921 7.46562 27.1921C6.77633 27.1921 6.09135 27.4858 5.30298 27.9784L3.73054 27.1921L1.66699 23.4463H5.89318V23.4506Z" stroke="white" stroke-width="0.24"/>
<path d="M0.589844 26.3115L0.788014 32.6193L2.26136 31.928L3.04543 32.3212V32.2218C3.2436 31.4355 3.43746 30.5455 3.73471 29.8585C3.73471 29.6598 3.8338 29.5648 3.93288 29.4654L4.03197 29.366V29.2667L3.14882 27.7891L0.594152 26.3115H0.589844Z" stroke="white" stroke-width="0.24"/>
<path d="M0.688878 26.5059L3.04538 27.7847L3.92853 29.3616V29.461C3.73036 29.5604 3.63558 29.6597 3.63558 29.7548C3.34263 30.5411 3.14446 31.3317 2.94629 32.118L2.25701 31.8242L0.88274 32.4161C0.88274 32.2174 0.68457 26.7003 0.68457 26.5059" stroke="white" stroke-width="0.24"/>
<path d="M0.589844 26.3115L0.788014 32.6193L2.26136 31.928L3.04543 32.3212V32.2218C3.2436 31.4355 3.43746 30.5455 3.73471 29.8585C3.73471 29.6598 3.8338 29.5648 3.93288 29.4654L4.03197 29.366V29.2667L3.14882 27.7891L0.594152 26.3115H0.589844Z" stroke="white" stroke-width="0.24"/>
<path d="M0.688878 26.5059L3.04538 27.7847L3.92853 29.3616V29.461C3.73036 29.5604 3.63558 29.6597 3.63558 29.7548C3.34263 30.5411 3.14446 31.3317 2.94629 32.118L2.25701 31.8242L0.88274 32.4161C0.88274 32.2174 0.68457 26.7003 0.68457 26.5059H0.688878Z" stroke="white" stroke-width="0.24"/>
<path d="M16.5088 18.4268L17.9821 19.9043L18.6671 19.4118V18.4268H16.5088Z" stroke="white" stroke-width="0.24"/>
<path d="M16.8018 18.5254H18.5724V19.4111C18.4733 19.5104 18.1803 19.7049 17.9822 19.8042L16.8018 18.5254Z" stroke="white" stroke-width="0.24"/>
<path d="M16.5088 18.4268L17.9821 19.9043L18.6671 19.4118V18.4268H16.5088Z" stroke="white" stroke-width="0.24"/>
<path d="M16.8018 18.5254H18.5724V19.4111C18.4733 19.5104 18.1803 19.7049 17.9822 19.8042L16.8018 18.5254Z" stroke="white" stroke-width="0.24"/>
<path d="M12.8723 18.4262L11.498 20.3963L12.3812 21.6751L12.4803 21.5757C12.6784 20.5907 13.5616 19.6057 15.0349 18.5212L15.134 18.4219H12.8723V18.4262Z" stroke="white" stroke-width="0.24"/>
<path d="M12.9719 18.5254H14.8373C13.463 19.6098 12.6747 20.4955 12.3817 21.4805L11.5977 20.3961L12.9719 18.5254Z" stroke="white" stroke-width="0.24"/>
<path d="M16.5087 19.4111V19.5105C15.8194 20.3962 15.7246 21.0874 16.0176 21.6793V21.7787L17.4909 20.4005L16.5087 19.4155V19.4111Z" stroke="white" stroke-width="0.24"/>
<path d="M16.5088 19.6104C16.707 19.7097 17.1981 20.2022 17.2929 20.3967L16.1125 21.5804C15.8196 20.9886 16.0134 20.3967 16.5045 19.6104" stroke="white" stroke-width="0.24"/>
<path d="M12.8723 18.4262L11.498 20.3963L12.3812 21.6751L12.4803 21.5757C12.6784 20.5907 13.5616 19.6057 15.0349 18.5212L15.134 18.4219H12.8723V18.4262Z" stroke="white" stroke-width="0.24"/>
<path d="M12.9719 18.5254H14.8373C13.463 19.6098 12.6747 20.4955 12.3817 21.4805L11.5977 20.3961L12.9719 18.5254Z" stroke="white" stroke-width="0.24"/>
<path d="M16.5087 19.4111V19.5105C15.8194 20.3962 15.7246 21.0874 16.0176 21.6793V21.7787L17.4909 20.4005L16.5087 19.4155V19.4111Z" stroke="white" stroke-width="0.24"/>
<path d="M16.5088 19.6104C16.707 19.7097 17.1981 20.2022 17.2929 20.3967L16.1125 21.5804C15.8196 20.9886 16.0134 20.3967 16.5045 19.6104H16.5088Z" stroke="white" stroke-width="0.24"/>
<path d="M10.9084 20.8887L9.92622 21.3812L9.82713 23.3513H7.27246L9.33601 24.5351L8.64673 26.0126L9.33601 27.1964L9.82713 26.9026C9.72804 26.3107 9.72805 25.8182 10.0253 25.3257C10.3182 24.5394 11.0075 23.6494 12.1879 22.6643H12.287L10.9128 20.8887H10.9084Z" stroke="white" stroke-width="0.24"/>
<path d="M10.908 20.9883C11.0071 21.0876 11.9893 22.4658 12.0884 22.5652C10.908 23.6496 10.223 24.4359 9.92578 25.2266C9.72761 25.8185 9.63284 26.311 9.72761 26.9029L9.33558 27.1016L8.74538 26.0172L9.52944 24.5396L7.66406 23.4552H9.92578L10.0249 21.4851L10.908 20.9926V20.9883Z" stroke="white" stroke-width="0.24"/>
<path d="M10.9084 20.8887L9.92622 21.3812L9.82713 23.3513H7.27246L9.33601 24.5351L8.64673 26.0126L9.33601 27.1964L9.82713 26.9026C9.72804 26.3107 9.72805 25.8182 10.0253 25.3257C10.3182 24.5394 11.0075 23.6494 12.1879 22.6643H12.287L10.9128 20.8887H10.9084Z" stroke="white" stroke-width="0.24"/>
<path d="M10.908 20.9883C11.0071 21.0876 11.9893 22.4658 12.0884 22.5652C10.908 23.6496 10.223 24.4359 9.92578 25.2266C9.72761 25.8185 9.63284 26.311 9.72761 26.9029L9.33558 27.1016L8.74538 26.0172L9.52944 24.5396L7.66406 23.4552H9.92578L10.0249 21.4851L10.908 20.9926V20.9883Z" stroke="white" stroke-width="0.24"/>
<path d="M6.09202 18.1328L2.16309 20.401L6.09202 22.6692H9.1378L9.23689 20.9929C9.33598 20.8935 10.3182 20.401 10.3182 20.401L9.23689 19.8091L9.1378 18.1328H6.09202Z" stroke="white" stroke-width="0.24"/>
<path d="M6.09152 18.2275H9.03822L9.1373 19.8045L10.1195 20.3964C9.92137 20.4957 9.1373 20.8889 9.1373 20.8889L9.03822 22.5652H6.09152L2.35645 20.3964L6.09152 18.2275Z" stroke="white" stroke-width="0.24"/>
<path d="M6.09202 18.1328L2.16309 20.401L6.09202 22.6692H9.1378L9.23689 20.9929C9.33598 20.8935 10.3182 20.401 10.3182 20.401L9.23689 19.8091L9.1378 18.1328H6.09202Z" stroke="white" stroke-width="0.24"/>
<path d="M6.09152 18.2275H9.03822L9.1373 19.8045L10.1195 20.3964C9.92137 20.4957 9.1373 20.8889 9.1373 20.8889L9.03822 22.5652H6.09152L2.35645 20.3964L6.09152 18.2275Z" stroke="white" stroke-width="0.24"/>
<path d="M1.08096 18.1328L0.589844 19.2129L1.47299 20.0035L4.61786 18.1328H1.08096Z" stroke="white" stroke-width="0.24"/>
<path d="M1.08108 18.2275H4.32504L1.47742 19.8045L0.693359 19.1132L1.08539 18.2275H1.08108Z" stroke="white" stroke-width="0.24"/>
<path d="M1.08096 18.1328L0.589844 19.2129L1.47299 20.0035L4.61786 18.1328H1.08096Z" stroke="white" stroke-width="0.24"/>
<path d="M1.08108 18.2275H4.32504L1.47742 19.8045L0.693359 19.1132L1.08539 18.2275H1.08108Z" stroke="white" stroke-width="0.24"/>
<path d="M1.47292 20.79L0.391602 21.4813L1.08089 22.6651H4.61779L1.47292 20.79Z" stroke="white" stroke-width="0.24"/>
<path d="M1.47344 20.8887C1.57253 20.988 3.92903 22.3662 4.32106 22.565H1.08141L0.491211 21.5799L1.47344 20.8887Z" stroke="white" stroke-width="0.24"/>
<path d="M1.47292 20.79L0.391602 21.4813L1.08089 22.6651H4.61779L1.47292 20.79Z" stroke="white" stroke-width="0.24"/>
<path d="M1.47344 20.8887C1.57253 20.988 3.92903 22.3662 4.32106 22.565H1.08141L0.491211 21.5799L1.47344 20.8887Z" stroke="white" stroke-width="0.24"/>
<path d="M36.9453 12.019L36.256 13.2978L34.6836 13.3972C34.6836 13.3972 35.3729 14.581 35.4677 14.676L34.8775 15.9548L37.4321 17.4324H41.8522L39.6895 13.4922L36.9367 12.0146L36.9453 12.019Z" stroke="white" stroke-width="0.24"/>
<path d="M37.0406 12.2182L39.5952 13.5964L41.6588 17.2428L37.4326 17.3421L34.977 15.8646L35.5672 14.6808C35.5672 14.6808 34.977 13.5964 34.8779 13.497L36.3513 13.3976L37.0406 12.2139V12.2182Z" stroke="white" stroke-width="0.24"/>
<path d="M36.9453 12.019L36.256 13.2978L34.6836 13.3972C34.6836 13.3972 35.3729 14.581 35.4677 14.676L34.8775 15.9548L37.4321 17.4324H41.8522L39.6895 13.4922L36.9367 12.0146L36.9453 12.019Z" stroke="white" stroke-width="0.24"/>
<path d="M37.0406 12.2182L39.5952 13.5964L41.6588 17.2428L37.4326 17.3421L34.977 15.8646L35.5672 14.6808C35.5672 14.6808 34.977 13.5964 34.8779 13.497L36.3513 13.3976L37.0406 12.2139V12.2182Z" stroke="white" stroke-width="0.24"/>
<path d="M37.4367 23.3516L36.1572 24.0428C36.1572 24.0428 37.5315 25.8185 38.0226 26.4061C38.3156 26.7992 38.6128 27.1924 38.9058 27.5898V27.6892L39.6898 27.1967L41.8525 23.3559H37.4324L37.4367 23.3516Z" stroke="white" stroke-width="0.24"/>
<path d="M37.4368 23.4506H41.663L39.5994 27.1964L38.9101 27.4902C38.6172 27.097 38.419 26.7038 38.1261 26.3064C37.635 25.8139 36.5536 24.3363 36.3555 24.1375L37.4368 23.4463V23.4506Z" stroke="white" stroke-width="0.24"/>
<path d="M37.4367 23.3516L36.1572 24.0428C36.1572 24.0428 37.5315 25.8185 38.0226 26.4061C38.3156 26.7992 38.6128 27.1924 38.9058 27.5898V27.6892L39.6898 27.1967L41.8525 23.3559H37.4324L37.4367 23.3516Z" stroke="white" stroke-width="0.24"/>
<path d="M37.4368 23.4506H41.663L39.5994 27.1964L38.9101 27.4902C38.6172 27.097 38.419 26.7038 38.1261 26.3064C37.635 25.8139 36.5536 24.3363 36.3555 24.1375L37.4368 23.4463V23.4506Z" stroke="white" stroke-width="0.24"/>
<path d="M41.8574 26.8037L40.1859 27.7888L39.5957 28.8732C40.0868 29.9576 40.3798 31.042 40.4788 32.1264V32.2258L41.0691 31.932L42.4433 32.6233L42.9344 31.7376L41.8531 26.8124L41.8574 26.8037Z" stroke="white" stroke-width="0.24"/>
<path d="M41.8566 26.998C41.8566 27.1968 42.8388 31.5301 42.8388 31.7289L42.4468 32.4201L41.0725 31.8282L40.5814 32.027C40.4823 30.9425 40.1894 29.8581 39.6982 28.8731L40.2884 27.7887L41.8609 27.0024L41.8566 26.998Z" stroke="white" stroke-width="0.24"/>
<path d="M41.8574 26.8037L40.1859 27.7888L39.5957 28.8732C40.0868 29.9576 40.3798 31.042 40.4788 32.1264V32.2258L41.0691 31.932L42.4433 32.6233L42.9344 31.7376L41.8531 26.8124L41.8574 26.8037Z" stroke="white" stroke-width="0.24"/>
<path d="M41.8566 26.998C41.8566 27.1968 42.8388 31.5301 42.8388 31.7289L42.4468 32.4201L41.0725 31.8282L40.5814 32.027C40.4823 30.9425 40.1894 29.8581 39.6982 28.8731L40.2884 27.7887L41.8609 27.0024L41.8566 26.998Z" stroke="white" stroke-width="0.24"/>
<path d="M41.8572 20.79L38.6133 22.6651H42.2493L42.9386 21.4813L41.8572 20.79Z" stroke="white" stroke-width="0.24"/>
<path d="M41.8568 20.8887L42.839 21.5799C42.74 21.6793 42.3479 22.3662 42.2488 22.565H39.0049L41.8525 20.8887H41.8568Z" stroke="white" stroke-width="0.24"/>
<path d="M41.8572 20.79L38.6133 22.6651H42.2493L42.9386 21.4813L41.8572 20.79Z" stroke="white" stroke-width="0.24"/>
<path d="M41.8568 20.8887L42.839 21.5799C42.74 21.6793 42.3479 22.3662 42.2488 22.565H39.0049L41.8525 20.8887H41.8568Z" stroke="white" stroke-width="0.24"/>
<path d="M42.2493 18.1328H38.6133L41.8572 20.0035L42.7404 19.2129L42.2493 18.1328Z" stroke="white" stroke-width="0.24"/>
<path d="M42.2488 18.2275L42.5418 19.1132L41.8525 19.8045C41.6543 19.8045 39.3969 18.4263 39.0049 18.2275H42.2488Z" stroke="white" stroke-width="0.24"/>
<path d="M42.2493 18.1328H38.6133L41.8572 20.0035L42.7404 19.2129L42.2493 18.1328Z" stroke="white" stroke-width="0.24"/>
<path d="M42.2488 18.2275L42.5418 19.1132L41.8525 19.8045C41.6543 19.8045 39.3969 18.4263 39.0049 18.2275H42.2488Z" stroke="white" stroke-width="0.24"/>
<path d="M37.239 18.1328H34.1932L34.0941 19.8048L33.2109 20.2973L33.4048 20.5954L34.0941 20.9886V21.4811L35.0763 22.6649H37.239L41.1679 20.3967L37.239 18.1328Z" stroke="white" stroke-width="0.24"/>
<path d="M37.2389 18.2275C37.338 18.3269 40.6767 20.1976 40.974 20.3964L37.2389 22.5652H35.0763C34.9772 22.4658 34.2922 21.5801 34.1931 21.4808V20.8889L33.5038 20.4957L33.3057 20.297L34.1888 19.8045L34.2879 18.2275H37.2346H37.2389Z" stroke="white" stroke-width="0.24"/>
<path d="M37.239 18.1328H34.1932L34.0941 19.8048L33.2109 20.2973L33.4048 20.5954L34.0941 20.9886V21.4811L35.0763 22.6649H37.239L41.1679 20.3967L37.239 18.1328Z" stroke="white" stroke-width="0.24"/>
<path d="M37.2389 18.2275C37.338 18.3269 40.6767 20.1976 40.974 20.3964L37.2389 22.5652H35.0763C34.9772 22.4658 34.2922 21.5801 34.1931 21.4808V20.8889L33.5038 20.4957L33.3057 20.297L34.1888 19.8045L34.2879 18.2275H37.2346H37.2389Z" stroke="white" stroke-width="0.24"/>
<path d="M34.6845 8.37695L34.4863 12.7103L35.8649 12.6109L36.748 11.034L39.0098 12.3171L37.6312 10.0489L34.6845 8.37695Z" stroke="white" stroke-width="0.24"/>
<path d="M34.7831 8.57129C35.0761 8.67066 37.536 10.0489 37.6307 10.1482L38.7121 12.1183L36.6485 10.9345L35.7654 12.5115H34.585L34.7831 8.57129Z" stroke="white" stroke-width="0.24"/>
<path d="M34.6845 8.37695L34.4863 12.7103L35.8649 12.6109L36.748 11.034L39.0098 12.3171L37.6312 10.0489L34.6845 8.37695Z" stroke="white" stroke-width="0.24"/>
<path d="M34.7831 8.57129C35.0761 8.67066 37.536 10.0489 37.6307 10.1482L38.7121 12.1183L36.6485 10.9345L35.7654 12.5115H34.585L34.7831 8.57129Z" stroke="white" stroke-width="0.24"/>
<path d="M33.9947 13.5961L31.7329 14.8749L31.0436 14.6762C30.4534 15.4625 30.3544 15.955 30.4534 16.5469C30.5525 16.9401 30.7464 17.3332 31.4357 18.0245C31.5348 18.2232 32.7109 19.7008 32.7109 19.7008L33.4001 19.3076L33.4992 17.4369H35.9548L33.9903 16.2531L34.6796 14.6762L33.9903 13.5918L33.9947 13.5961Z" stroke="white" stroke-width="0.24"/>
<path d="M33.9943 13.6953C34.0934 13.894 34.4854 14.581 34.4854 14.7797L33.7961 16.2573L35.6615 17.3417H33.3998L33.3007 19.3118L32.7105 19.6056C32.6114 19.4068 31.6292 18.2274 31.4353 18.0286C30.8451 17.2423 30.6512 16.9442 30.5522 16.5511C30.4531 16.0586 30.5522 15.4667 31.0433 14.7754L31.7326 14.9741L33.9943 13.6953Z" stroke="white" stroke-width="0.24"/>
<path d="M33.9947 13.5961L31.7329 14.8749L31.0436 14.6762C30.4534 15.4625 30.3544 15.955 30.4534 16.5469C30.5525 16.9401 30.7464 17.3332 31.4357 18.0245C31.5348 18.2232 32.7109 19.7008 32.7109 19.7008L33.4001 19.3076L33.4992 17.4369H35.9548L33.9903 16.2531L34.6796 14.6762L33.9903 13.5918L33.9947 13.5961Z" stroke="white" stroke-width="0.24"/>
<path d="M33.9943 13.6953C34.0934 13.894 34.4854 14.581 34.4854 14.7797L33.7961 16.2573L35.6615 17.3417H33.3998L33.3007 19.3118L32.7105 19.6056C32.6114 19.4068 31.6292 18.2274 31.4353 18.0286C30.8451 17.2423 30.6512 16.9442 30.5522 16.5511C30.4531 16.0586 30.5522 15.4667 31.0433 14.7754L31.7326 14.9741L33.9943 13.6953Z" stroke="white" stroke-width="0.24"/>
<path d="M33.9949 8.47209L29.2776 8.76588L27.9033 10.6366L28.9846 13.0992L29.8678 13.393C29.9669 13.393 31.0482 12.9998 31.5393 12.9998C31.3411 13.2936 31.3411 13.6911 31.3411 13.9849L31.6341 14.0843L33.7967 12.8054L33.9949 8.46777V8.47209Z" stroke="white" stroke-width="0.24"/>
<path d="M33.9002 8.57129C33.9002 8.86507 33.702 12.6108 33.702 12.8096L31.6385 13.9934L31.4403 13.894C31.4403 13.6953 31.5394 13.3021 31.6385 12.9089V12.8096H31.5394C31.0483 12.9089 30.066 13.2027 29.8679 13.3021L29.0838 13.0083L28.1016 10.6451L29.282 8.86939L33.9002 8.57561V8.57129Z" stroke="white" stroke-width="0.24"/>
<path d="M33.9949 8.47209L29.2776 8.76588L27.9033 10.6366L28.9846 13.0992L29.8678 13.393C29.9669 13.393 31.0482 12.9998 31.5393 12.9998C31.3411 13.2936 31.3411 13.6911 31.3411 13.9849L31.6341 14.0843L33.7967 12.8054L33.9949 8.46777V8.47209Z" stroke="white" stroke-width="0.24"/>
<path d="M33.9002 8.57129C33.9002 8.86507 33.702 12.6108 33.702 12.8096L31.6385 13.9934L31.4403 13.894C31.4403 13.6953 31.5394 13.3021 31.6385 12.9089V12.8096H31.5394C31.0483 12.9089 30.066 13.2027 29.8679 13.3021L29.0838 13.0083L28.1016 10.6451L29.282 8.86939L33.9002 8.57561V8.57129Z" stroke="white" stroke-width="0.24"/>
<path d="M26.236 12.81L24.5645 14.4863V16.8495L25.3485 17.7352H26.921V17.0439C27.02 16.1583 27.6102 15.3676 28.6916 14.3826L28.3986 13.6913L26.236 12.8057V12.81Z" stroke="white" stroke-width="0.24"/>
<path d="M26.2359 12.9092C26.335 13.0085 28.2004 13.6955 28.2995 13.6955L28.5924 14.2874C27.5111 15.2724 26.9209 16.1581 26.8218 17.0481V17.64H25.3485C25.3485 17.5406 24.7583 16.9487 24.6592 16.7543V14.4861L26.2316 12.9092H26.2359Z" stroke="white" stroke-width="0.24"/>
<path d="M26.236 12.81L24.5645 14.4863V16.8495L25.3485 17.7352H26.921V17.0439C27.02 16.1583 27.6102 15.3676 28.6916 14.3826L28.3986 13.6913L26.236 12.8057V12.81Z" stroke="white" stroke-width="0.24"/>
<path d="M26.2359 12.9092C26.335 13.0085 28.2004 13.6955 28.2995 13.6955L28.5924 14.2874C27.5111 15.2724 26.9209 16.1581 26.8218 17.0481V17.64H25.3485C25.3485 17.5406 24.7583 16.9487 24.6592 16.7543V14.4861L26.2316 12.9092H26.2359Z" stroke="white" stroke-width="0.24"/>
<path d="M17.0947 12.8096L14.9363 13.6952L13.9541 15.8641L15.8195 17.7348H18.6671V14.4859L17.0947 12.8096Z" stroke="white" stroke-width="0.24"/>
<path d="M17.0942 12.9092L18.5718 14.4861V17.64H15.819L14.1475 15.8643L14.9358 13.6955L17.0942 12.9092Z" stroke="white" stroke-width="0.24"/>
<path d="M17.0947 12.8096L14.9363 13.6952L13.9541 15.8641L15.8195 17.7348H18.6671V14.4859L17.0947 12.8096Z" stroke="white" stroke-width="0.24"/>
<path d="M17.0942 12.9092L18.5718 14.4861V17.64H15.819L14.1475 15.8643L14.9358 13.6955L17.0942 12.9092Z" stroke="white" stroke-width="0.24"/>
<path d="M9.33594 8.47266L9.5298 12.8103L11.6924 14.0891L14.3462 13.1041L15.4275 10.6415L14.0489 8.77076L9.33594 8.47266Z" stroke="white" stroke-width="0.24"/>
<path d="M9.43066 8.5717L14.0489 8.86549L15.2293 10.6412C15.2293 10.7405 14.3461 12.9094 14.2471 13.0044L11.6924 13.9895L9.62883 12.8057L9.43066 8.56738V8.5717Z" stroke="white" stroke-width="0.24"/>
<path d="M9.33594 8.47266L9.5298 12.8103L11.6924 14.0891L14.3462 13.1041L15.4275 10.6415L14.0489 8.77076L9.33594 8.47266Z" stroke="white" stroke-width="0.24"/>
<path d="M9.43066 8.5717L14.0489 8.86549L15.2293 10.6412C15.2293 10.7405 14.3461 12.9094 14.2471 13.0044L11.6924 13.9895L9.62883 12.8057L9.43066 8.56738V8.5717Z" stroke="white" stroke-width="0.24"/>
<path d="M9.33601 13.5967L8.64673 14.6811L9.33601 16.258L7.27246 17.4418H9.82713L9.92622 19.3125L10.9084 19.9044L12.5757 17.7356H14.7383L13.1659 16.0636L13.9542 13.9942L11.5934 14.8798L9.33601 13.5967Z" stroke="white" stroke-width="0.24"/>
<path d="M9.33518 13.6953L11.5969 14.9741L13.8586 14.1878L12.9755 16.0586L14.5479 17.6355H12.4844L10.9119 19.8043L10.0288 19.3118L9.92969 17.3417H7.66797L9.53335 16.2573L8.74929 14.7797C8.84837 14.581 9.2404 13.894 9.33949 13.6953" stroke="white" stroke-width="0.24"/>
<path d="M9.33601 13.5967L8.64673 14.6811L9.33601 16.258L7.27246 17.4418H9.82713L9.92622 19.3125L10.9084 19.9044L12.5757 17.7356H14.7383L13.1659 16.0636L13.9542 13.9942L11.5934 14.8798L9.33601 13.5967Z" stroke="white" stroke-width="0.24"/>
<path d="M9.33518 13.6953L11.5969 14.9741L13.8586 14.1878L12.9755 16.0586L14.5479 17.6355H12.4844L10.9119 19.8043L10.0288 19.3118L9.92969 17.3417H7.66797L9.53335 16.2573L8.74929 14.7797C8.84837 14.581 9.2404 13.894 9.33949 13.6953H9.33518Z" stroke="white" stroke-width="0.24"/>
<path d="M8.54708 8.37695L5.69946 10.0489L4.3252 12.3171L6.58261 11.034L7.46576 12.6109L8.84433 12.7103L8.54708 8.37695Z" stroke="white" stroke-width="0.24"/>
<path d="M8.44842 8.57129L8.74136 12.5115H7.56096L6.67781 10.9345L4.61426 12.1183L5.69558 10.1482L8.44842 8.57129Z" stroke="white" stroke-width="0.24"/>
<path d="M8.54708 8.37695L5.69946 10.0489L4.3252 12.3171L6.58261 11.034L7.46576 12.6109L8.84433 12.7103L8.54708 8.37695Z" stroke="white" stroke-width="0.24"/>
<path d="M8.44842 8.57129L8.74136 12.5115H7.56096L6.67781 10.9345L4.61426 12.1183L5.69558 10.1482L8.44842 8.57129Z" stroke="white" stroke-width="0.24"/>
<path d="M25.249 2.76074L24.9561 6.10903L26.5285 8.27786L28.885 8.07912L30.4574 5.91029L25.249 2.76074Z" stroke="white" stroke-width="0.24"/>
<path d="M25.348 2.85547C25.4471 2.95484 30.1644 5.90997 30.3583 5.90997L28.7859 7.97943L26.5241 8.17817L25.0508 6.00934L25.3437 2.85547H25.348Z" stroke="white" stroke-width="0.24"/>
<path d="M25.249 2.76074L24.9561 6.10903L26.5285 8.27786L28.885 8.07912L30.4574 5.91029L25.249 2.76074Z" stroke="white" stroke-width="0.24"/>
<path d="M25.348 2.85547C25.4471 2.95484 30.1644 5.90997 30.3583 5.90997L28.7859 7.97943L26.5241 8.17817L25.0508 6.00934L25.3437 2.85547H25.348Z" stroke="white" stroke-width="0.24"/>
<path d="M24.8579 7.19377L24.6597 9.55702C24.5606 9.55702 22.4971 10.5421 22.4971 10.5421L24.5606 11.4277V13.3978L26.034 12.0196L27.9984 12.7109L27.1153 10.5421L28.2957 8.86576L26.1331 8.96513L24.8579 7.18945V7.19377Z" stroke="white" stroke-width="0.24"/>
<path d="M24.9562 7.4873L26.0375 9.06424L28.1011 8.96487L27.0197 10.5418L27.9029 12.6113L25.9384 11.92L24.6632 13.1988V11.3281L22.7979 10.5418C22.996 10.4424 24.7623 9.55676 24.7623 9.55676L24.9605 7.4873H24.9562Z" stroke="white" stroke-width="0.24"/>
<path d="M24.8579 7.19377L24.6597 9.55702C24.5606 9.55702 22.4971 10.5421 22.4971 10.5421L24.5606 11.4277V13.3978L26.034 12.0196L27.9984 12.7109L27.1153 10.5421L28.2957 8.86576L26.1331 8.96513L24.8579 7.18945V7.19377Z" stroke="white" stroke-width="0.24"/>
<path d="M24.9562 7.4873L26.0375 9.06424L28.1011 8.96487L27.0197 10.5418L27.9029 12.6113L25.9384 11.92L24.6632 13.1988V11.3281L22.7979 10.5418C22.996 10.4424 24.7623 9.55676 24.7623 9.55676L24.9605 7.4873H24.9562Z" stroke="white" stroke-width="0.24"/>
<path d="M22.6943 1.18359L22.1084 2.06927L24.2667 5.22314L24.564 2.26801L22.6943 1.18359Z" stroke="white" stroke-width="0.24"/>
<path d="M22.6952 1.2793C22.8934 1.37867 24.3667 2.26434 24.4658 2.36371L24.2677 4.92569L22.2041 2.06992L22.6952 1.28362V1.2793Z" stroke="white" stroke-width="0.24"/>
<path d="M22.6943 1.18359L22.1084 2.06927L24.2667 5.22314L24.564 2.26801L22.6943 1.18359Z" stroke="white" stroke-width="0.24"/>
<path d="M22.6952 1.2793C22.8934 1.37867 24.3667 2.26434 24.4658 2.36371L24.2677 4.92569L22.2041 2.06992L22.6952 1.28362V1.2793Z" stroke="white" stroke-width="0.24"/>
<path d="M21.6181 2.66113L19.1582 6.30753L19.3564 9.06392L21.6181 10.1483L23.9746 9.06392L24.1728 6.30753L21.6181 2.66113Z" stroke="white" stroke-width="0.24"/>
<path d="M21.618 2.85547C21.8162 3.05421 23.9745 6.20376 24.0736 6.30313L23.8755 8.96447L21.6137 10.0489L19.4511 8.96447L19.2529 6.30313L21.6094 2.85547H21.618Z" stroke="white" stroke-width="0.24"/>
<path d="M21.6181 2.66113L19.1582 6.30753L19.3564 9.06392L21.6181 10.1483L23.9746 9.06392L24.1728 6.30753L21.6181 2.66113Z" stroke="white" stroke-width="0.24"/>
<path d="M21.618 2.85547C21.8162 3.05421 23.9745 6.20376 24.0736 6.30313L23.8755 8.96447L21.6137 10.0489L19.4511 8.96447L19.2529 6.30313L21.6094 2.85547H21.618Z" stroke="white" stroke-width="0.24"/>
<path d="M20.7301 1.2793L18.7656 2.16929L19.0629 5.2238L21.2212 2.06992L20.7301 1.2793Z" stroke="white" stroke-width="0.24"/>
<path d="M20.6358 1.37793L21.127 2.06919L19.0634 4.92495L18.8652 2.26361C18.9643 2.16424 20.5368 1.4773 20.6358 1.37793Z" stroke="white" stroke-width="0.24"/>
<path d="M20.7301 1.2793L18.7656 2.16929L19.0629 5.2238L21.2212 2.06992L20.7301 1.2793Z" stroke="white" stroke-width="0.24"/>
<path d="M20.6358 1.37793L21.127 2.06919L19.0634 4.92495L18.8652 2.26361C18.9643 2.16424 20.5368 1.4773 20.6358 1.37793Z" stroke="white" stroke-width="0.24"/>
<path d="M18.473 7.19336L17.1978 8.96903L15.0352 8.86966L16.2156 10.546L15.3324 12.7148L17.2969 12.0235L18.6711 13.4017V11.4316L20.8338 10.546L18.6711 9.56092C18.6711 9.36219 18.473 7.19768 18.473 7.19768" stroke="white" stroke-width="0.24"/>
<path d="M18.3734 7.4873C18.3734 7.78109 18.5716 9.55676 18.5716 9.55676L20.536 10.5418L18.5716 11.3281V13.1988L17.3912 11.92L15.4267 12.6113L16.3098 10.5418L15.2285 8.96487L17.193 9.06424L18.3734 7.4873Z" stroke="white" stroke-width="0.24"/>
<path d="M18.473 7.19336L17.1978 8.96903L15.0352 8.86966L16.2156 10.546L15.3324 12.7148L17.2969 12.0235L18.6711 13.4017V11.4316L20.8338 10.546L18.6711 9.56092C18.6711 9.36219 18.473 7.19768 18.473 7.19768V7.19336Z" stroke="white" stroke-width="0.24"/>
<path d="M18.3734 7.4873C18.3734 7.78109 18.5716 9.55676 18.5716 9.55676L20.536 10.5418L18.5716 11.3281V13.1988L17.3912 11.92L15.4267 12.6113L16.3098 10.5418L15.2285 8.96487L17.193 9.06424L18.3734 7.4873Z" stroke="white" stroke-width="0.24"/>
<path d="M18.0805 3.05469L12.8721 5.91045L14.4445 8.07928L16.801 8.27802L18.3734 6.10919L18.0805 3.05469Z" stroke="white" stroke-width="0.24"/>
<path d="M17.9814 3.15373C18.0804 3.44752 18.2743 5.91445 18.2743 6.10887L16.801 8.17833L14.5392 7.97959L12.9668 5.91013L17.977 3.14941L17.9814 3.15373Z" stroke="white" stroke-width="0.24"/>
<path d="M18.0805 3.05469L12.8721 5.91045L14.4445 8.07928L16.801 8.27802L18.3734 6.10919L18.0805 3.05469Z" stroke="white" stroke-width="0.24"/>
<path d="M17.9814 3.15373C18.0804 3.44752 18.2743 5.91445 18.2743 6.10887L16.801 8.17833L14.5392 7.97959L12.9668 5.91013L17.977 3.14941L17.9814 3.15373Z" stroke="white" stroke-width="0.24"/>
<path d="M30.5565 13.9936C27.3125 16.2618 27.1186 17.64 28.4929 19.4113C30.2635 21.6795 33.8004 26.0129 35.6658 28.3761C39.4009 33.2063 38.3195 37.9328 31.2457 43.6486C38.7116 39.6091 42.6448 33.5994 37.4364 26.9979C33.2102 21.6752 32.1289 20.1976 30.7546 18.6207C29.7724 17.4369 28.8892 16.2575 30.5565 13.9893V13.9936Z" fill="white"/>
<path d="M4.71684 29.6591C5.89724 28.4754 7.56446 27.4903 8.74486 28.8728C10.6102 30.9423 15.1294 36.6581 16.4089 38.3345C14.6383 39.7126 15.1337 39.3195 14.6383 39.7126C11.9845 36.6581 7.46537 35.9669 6.09111 34.5887C5.30704 40.499 15.6205 56.7608 30.8494 48.8762C17.585 58.3378 -0.788837 44.6379 4.41959 30.251C4.41959 30.251 8.34852 34.5887 10.2182 34.1912C8.15466 31.7286 6.48314 29.1666 4.71684 29.6591Z" fill="white"/>
<path d="M35.2747 31.6293C34.7836 31.0374 34.3916 30.4455 33.9004 29.8536C32.9182 28.6698 31.6387 26.9978 30.5617 25.6153C26.3355 20.392 25.2542 18.9144 23.8799 17.3375C22.8977 16.0587 22.0146 14.8749 23.6818 12.7061C23.2897 12.9048 22.8977 13.1986 22.6004 13.4924C20.4378 15.268 20.4378 16.5469 21.6182 18.1238C23.3888 20.2926 26.9257 24.7253 28.7911 27.0886C29.9715 28.6655 31.8369 30.9294 33.0173 32.4113C33.0173 32.5106 33.3102 32.7051 33.5084 33.0032C33.7066 33.3963 33.9995 33.6944 34.0986 33.8888C33.8057 33.7895 32.1341 33.5951 31.251 33.3963C31.251 32.8044 31.251 33.5951 31.251 32.3119C31.1519 29.2574 26.9257 29.158 27.0248 28.4711C25.1594 29.9487 24.4701 34.4807 26.7319 34.8739C27.1239 34.9733 29.6786 35.3664 30.0706 35.4658V37.1421C29.4804 36.9433 27.4168 36.6496 26.5337 36.4508C26.4346 36.3515 26.2407 36.157 26.1417 35.9583C25.9435 35.7596 25.8487 35.5651 25.6505 35.3664C24.6683 34.1826 24.0781 33.3963 22.8029 31.8194C18.6758 26.5961 17.4954 25.1185 16.2202 23.4422C15.238 22.2584 14.2558 21.0789 15.9273 18.8107C12.7824 21.0789 12.4895 22.4571 13.9628 24.3279C15.7334 26.4967 19.1712 30.83 21.0366 33.2926C22.0189 34.4764 22.8072 35.4615 23.3931 36.2478C23.7852 36.6409 23.8842 36.8397 24.3754 37.4315C25.9478 39.4016 25.6549 40.2873 24.4744 41.1773C23.3931 39.8985 21.5277 37.5309 20.1492 35.8546C16.0221 30.5319 14.7469 29.0543 13.4674 27.3824C12.5843 26.1986 11.6968 25.1142 12.9763 23.0447C10.6198 25.0148 9.83141 26.393 11.2057 28.1687C12.9763 30.4369 16.4141 34.7702 18.3786 37.1334C18.9688 38.0191 19.8519 39.1035 20.7351 40.2873C22.6995 42.6506 23.4879 44.9187 22.7986 46.3963C23.2897 46.0032 24.0781 45.4113 24.4701 45.0181H24.5692C24.6683 44.9187 24.7674 44.8194 24.8622 44.8194V44.72C25.0603 44.6206 25.1551 44.5213 25.3533 44.3269C26.4346 43.2424 28.1061 41.2724 27.7098 39.0042C28.5929 39.1035 30.2645 39.3973 31.3458 39.5961C31.3458 39.1035 31.2467 35.7552 31.2467 35.6559C32.1298 35.8546 34.0943 36.2478 35.3738 36.4422C36.2569 35.6559 37.0453 33.8802 35.2747 31.612V31.6293ZM27.4125 32.7137C26.3312 32.515 26.6285 31.2361 26.9214 30.843C27.4125 31.828 30.0663 30.9423 30.0663 33.2062C29.5752 33.1069 28.0027 32.8131 27.4125 32.7137Z" fill="white"/>
<path d="M22.5996 26.9979C22.7978 27.391 23.2889 28.2767 23.3837 28.4754C23.9739 28.0823 24.9561 27.8836 25.4472 27.9829C25.4472 27.9829 25.3481 26.7041 24.465 26.5054C23.6809 26.3066 22.5996 26.8985 22.5996 26.9979Z" fill="white"/>
<path d="M21.6178 0C21.6178 0 21.1266 0.393154 20.4374 0.885676C16.9995 2.95513 13.2645 4.4327 9.92573 6.50216C6.587 8.67099 3.54121 11.3323 1.86969 14.8794C0.392032 17.9339 0 21.2822 0 24.6348V32.7139L1.67152 33.8976V24.5354C1.67152 21.3815 1.96447 18.2277 3.34304 15.4713C4.91548 12.218 7.76309 9.7554 10.8089 7.78531C13.9537 5.81522 17.3916 4.53207 20.5364 2.56198C21.0276 2.2682 21.5187 1.87072 21.6178 1.77567C21.6178 1.77567 22.208 2.16883 22.7982 2.56198C25.943 4.53207 29.3808 5.81522 32.5257 7.78531C35.5715 9.7554 38.4191 12.218 39.9916 15.4713C41.3658 18.232 41.6631 21.3815 41.6631 24.5354V33.8976L43.3346 32.7139V24.6348C43.3346 21.2865 42.9426 17.9339 41.4692 14.8794C39.7977 11.3323 36.7519 8.67099 33.4132 6.50216C30.0744 4.4327 26.3394 2.95513 22.9016 0.885676C22.2123 0.393154 21.6264 0 21.6264 0L21.6178 0Z" fill="white"/>
<path d="M101.976 25.9697C101.118 24.7557 103.707 23.3559 104.138 24.8982C104.621 26.6264 102.324 26.4665 101.976 25.9697Z" fill="white"/>
<path d="M98.5039 20.7893H105.444C105.056 20.1542 103.187 19.3161 102.528 19.1562C101.636 18.9402 100.705 19.0828 99.805 19.0568C102.179 13.1811 106.422 20.1499 108.783 20.6943C111.355 21.2861 112.574 20.9362 112.596 18.1971C113.573 21.3855 117.619 22.323 117.158 18.1971C117.925 18.2705 118.437 22.0897 119.756 20.7893C120.156 20.3918 118.373 18.3008 119.329 17.333C120.871 17.6657 119.992 20.8195 121.276 20.8023C123.904 20.7634 124.624 17.4497 127.122 16.901C128.014 18.9056 129.229 20.5862 128.867 22.9538C127.398 23.7228 124.977 21.7614 124.313 21.8003C123.952 21.8219 123.06 22.8069 121.72 22.9624C118.95 23.2822 113.974 22.9322 110.885 22.9711C105.1 23.0445 99.3052 22.8804 93.5195 22.9538C92.1194 22.8242 92.4167 21.4374 92.4382 20.3616L97.6423 20.7893C98.603 17.4237 93.4075 16.7282 95.6908 14.3174C97.7586 15.9246 98.7581 18.1409 98.5083 20.7893H98.5039ZM126.691 19.0612C125.787 18.4304 124.693 20.3227 127.127 20.7893C127.23 20.664 126.765 19.113 126.691 19.0612Z" fill="white"/>
<path d="M58.6024 16.9012C58.6842 16.9703 58.1845 18.9231 58.1027 18.9922C57.8786 19.1823 53.8765 19.6749 52.3945 20.4352C47.7806 22.7942 48.724 27.1966 53.7214 28.0348C55.0009 28.2465 56.2545 28.0521 57.5297 28.1341C58.1759 28.1774 58.7833 27.8058 58.6024 28.7779C56.5948 31.6207 49.4263 30.0913 48.724 26.9633C47.7634 22.6991 49.5124 21.0703 52.5324 18.6336L48.6293 19.057C50.1845 14.7367 55.0913 17.5795 58.6024 16.9055V16.9012Z" fill="white"/>
<path d="M75.5158 20.7896C71.169 20.0854 74.3957 13.6178 76.791 15.8298C78.1394 17.0784 77.6009 19.1565 77.6827 20.7896H80.7199C80.3623 18.3097 80.1038 15.8082 79.7506 13.3283C79.617 12.3951 78.1868 10.6238 79.8454 9.55664C79.5869 10.8268 81.4393 10.5071 81.6073 11.1293C82.1157 13.0475 80.7673 13.0691 80.7716 13.1944C80.8534 16.0674 82.581 19.8262 82.0209 22.9498H70.9622C70.7252 22.9498 69.7645 21.645 69.6396 21.2432C69.3639 20.3835 69.8033 18.8282 69.0192 18.6294C68.0112 23.1658 64.5001 23.8009 60.3429 23.3775C60.1188 22.09 60.6832 22.6949 61.3595 22.4702C64.2718 21.5025 66.7058 21.1007 68.149 18.1931C68.5798 17.3203 68.9934 16.9661 69.0365 15.7996C69.1011 14.1362 67.6794 11.8378 69.4457 10.8484C70.2427 12.6241 70.1307 19.1997 70.9406 20.3792C71.393 21.0359 73.3618 20.7939 74.2191 20.7853C74.8265 21.1093 76.4722 21.1266 75.5201 20.7853L75.5158 20.7896ZM76.3817 19.0571V18.4177C74.6499 16.0415 73.6289 19.3077 76.3817 19.0571Z" fill="white"/>
<path d="M68.1444 18.1933C66.4298 17.273 66.4126 14.9832 64.3792 14.4648C63.9872 14.3654 63.4228 14.6765 62.9274 14.5382C61.4411 14.1235 60.558 12.3219 60.7734 10.8486C64.2672 11.3325 68.1315 14.5166 68.1444 18.1933Z" fill="white"/>
<path d="M84.1968 22.9494C85.1015 19.0481 81.6205 13.3236 84.6233 10.416C84.2915 14.2482 87.1952 20.0116 84.1968 22.9494Z" fill="white"/>
<path d="M76.821 11.7163L76.3772 13.4359L74.2275 12.3644C75.0633 11.1979 75.5587 11.2757 76.821 11.7207V11.7163Z" fill="white"/>
<path d="M128.828 36.5674H42.1934V37.5784H128.828V36.5674Z" fill="white"/>
<path d="M67.3399 28.8564C67.5553 28.8651 67.7448 28.8694 67.9171 28.8694C68.0895 28.8694 68.3092 28.8694 68.5935 28.8564L68.6064 29.0033L68.1799 29.1373C68.1282 29.1546 68.1024 29.1934 68.0981 29.2539C68.0938 29.4051 68.0895 29.5909 68.0895 29.8199V32.5849C68.0895 32.8528 68.0895 33.0774 68.0981 33.2632C68.0981 33.3151 68.1325 33.3496 68.1928 33.3712L68.6021 33.4965L68.6107 33.6434C68.3135 33.6348 68.0248 33.6348 67.7534 33.6348C67.482 33.6348 67.2192 33.6348 66.9607 33.6434L66.9478 33.4965L67.3399 33.3756C67.3959 33.3583 67.4217 33.3194 67.426 33.2546C67.4303 33.0731 67.4346 32.8528 67.4346 32.5849V29.6298L65.7459 33.6305L65.496 33.6564L63.7986 29.6298V32.5849C63.7986 32.8528 63.7986 33.0774 63.8073 33.2546C63.8073 33.3194 63.8374 33.3583 63.8977 33.3756L64.2768 33.4965L64.2855 33.6434C64.014 33.6348 63.79 33.6348 63.6091 33.6348C63.4282 33.6348 63.1955 33.6348 62.9069 33.6434L62.894 33.4965L63.3118 33.3712C63.3722 33.354 63.4023 33.3194 63.4023 33.2632C63.4066 33.0774 63.4109 32.8528 63.4109 32.5849V29.8199C63.4109 29.5909 63.4109 29.4051 63.4023 29.2539C63.4023 29.1934 63.3721 29.1546 63.3205 29.1373L62.8983 29.0033L62.8896 28.8564C63.1826 28.8651 63.4152 28.8694 63.5832 28.8694C63.7771 28.8694 63.9796 28.8694 64.1907 28.8564L65.7717 32.5979L67.3485 28.8564H67.3399Z" fill="white"/>
<path d="M72.1737 28.787L73.6816 32.9561C73.7376 33.1117 73.7893 33.2197 73.8366 33.2758C73.884 33.332 73.9487 33.3752 74.0348 33.4011L74.3536 33.4962L74.3622 33.6431C74.065 33.6344 73.7893 33.6344 73.5351 33.6344C73.2809 33.6344 72.9707 33.6344 72.6218 33.6431L72.6088 33.4962L72.9319 33.4011C72.975 33.3838 73.0095 33.3666 73.0267 33.3493C73.044 33.332 73.0569 33.3018 73.0569 33.2585C73.0569 33.211 73.044 33.1549 73.0224 33.0814C73.0009 33.008 72.9664 32.9086 72.9233 32.7876L72.6045 31.8717H70.9675L70.6099 32.7833C70.5625 32.9086 70.5238 33.0123 70.4979 33.0857C70.4721 33.1592 70.4591 33.2197 70.4591 33.2629C70.4591 33.3017 70.4678 33.332 70.4936 33.3493C70.5151 33.3666 70.5453 33.3838 70.5884 33.3968L70.9029 33.4875L70.9115 33.6387C70.5884 33.6301 70.3256 33.6301 70.1231 33.6301C69.9206 33.6301 69.6923 33.6301 69.4381 33.6387L69.4209 33.4918L69.7655 33.3838C69.8517 33.3579 69.9163 33.3147 69.9551 33.2585C69.9939 33.2024 70.0413 33.1117 70.093 32.9907L71.8291 28.8302L72.178 28.7783L72.1737 28.787ZM71.0881 31.5606H72.4882L71.8248 29.6813L71.0881 31.5606Z" fill="white"/>
<path d="M77.6664 29.1672C77.4294 29.0894 77.2097 29.0462 77.0115 29.0462C76.7143 29.0462 76.473 29.1196 76.2964 29.2622C76.1198 29.4048 76.0293 29.6122 76.0293 29.8714C76.0293 30.0183 76.0595 30.1479 76.1241 30.2602C76.1844 30.3725 76.2705 30.4676 76.3739 30.554C76.4773 30.6404 76.598 30.7138 76.7315 30.7787C76.8651 30.8435 77.0029 30.9083 77.1451 30.9731C77.3002 31.0422 77.4553 31.1113 77.6017 31.1891C77.7482 31.2669 77.8818 31.3533 78.0024 31.4569C78.123 31.5606 78.2178 31.6816 78.2867 31.8242C78.3556 31.9668 78.3944 32.1352 78.3944 32.3253C78.3944 32.779 78.2178 33.1246 77.8645 33.3622C77.5113 33.5999 77.0546 33.7208 76.4946 33.7208C76.1327 33.7208 75.7364 33.6603 75.2969 33.5351L75.2754 33.5091L75.4434 32.3513L75.5942 32.3253L75.8311 33.2931C76.0724 33.3882 76.3179 33.4357 76.5678 33.4357C76.9038 33.4357 77.1709 33.3622 77.3562 33.211C77.5414 33.0598 77.6405 32.8481 77.6405 32.5716C77.6405 32.4247 77.6103 32.2994 77.55 32.1871C77.4897 32.0748 77.4079 31.984 77.3045 31.9019C77.2011 31.8242 77.0848 31.7507 76.9512 31.6859C76.8177 31.6211 76.6841 31.5563 76.542 31.4915C76.3826 31.4224 76.2275 31.3489 76.081 31.2712C75.9302 31.1934 75.7967 31.0984 75.676 30.9947C75.5554 30.891 75.4563 30.7614 75.3831 30.6058C75.3099 30.4503 75.2754 30.2732 75.2754 30.0701C75.2754 29.6597 75.4477 29.34 75.7924 29.1153C76.137 28.8906 76.5635 28.7783 77.0675 28.7783C77.4251 28.7783 77.7999 28.8215 78.1919 28.9036L78.2178 28.9295L78.0153 29.9923L77.8775 30.0139L77.6577 29.1672H77.6664Z" fill="white"/>
<path d="M79.4714 28.8557C79.7644 28.8644 80.0444 28.8687 80.3158 28.8687C80.5872 28.8687 80.8672 28.8687 81.1559 28.8557L81.1731 29.0026L80.7509 29.1279C80.6949 29.1409 80.6647 29.1754 80.6604 29.2316C80.6604 29.3094 80.6604 29.4001 80.6561 29.4908C80.6561 29.5859 80.6561 29.6896 80.6561 29.7976V32.8866C80.6561 33.1113 80.6475 33.3144 80.6303 33.4958C80.613 33.6773 80.5829 33.8414 80.5398 33.984C80.4967 34.1266 80.4364 34.2562 80.3589 34.3685C80.2813 34.4809 80.1822 34.5802 80.0616 34.6666C79.941 34.753 79.7945 34.8308 79.6265 34.8956C79.4585 34.9604 79.256 35.0209 79.0234 35.0771L78.9717 34.9086C79.2086 34.8092 79.3939 34.6969 79.5274 34.5759C79.661 34.4549 79.7644 34.3167 79.8333 34.1612C79.9022 34.0056 79.9453 33.8328 79.9668 33.6384C79.9841 33.444 79.997 33.2279 79.997 32.986V29.8062C79.997 29.6896 79.997 29.5859 79.997 29.4908C79.997 29.3958 79.997 29.3137 79.9927 29.2402C79.9927 29.1798 79.9625 29.1409 79.9108 29.1236L79.4886 28.9897L79.48 28.8428L79.4714 28.8557Z" fill="white"/>
<path d="M83.5513 32.5849C83.5513 32.7232 83.5513 32.8441 83.5513 32.9565C83.5513 33.0688 83.5513 33.1682 83.5556 33.2589C83.5556 33.3151 83.5987 33.354 83.6763 33.3756L84.0597 33.4965L84.0683 33.6434C83.7753 33.6348 83.4953 33.6348 83.2239 33.6348C82.9525 33.6348 82.6682 33.6348 82.3795 33.6434L82.3666 33.4965L82.7845 33.3712C82.8405 33.354 82.8707 33.3194 82.875 33.2632C82.875 33.1725 82.875 33.0688 82.8793 32.9565C82.8793 32.8441 82.8793 32.7189 82.8793 32.5849V29.8199C82.8793 29.7032 82.8793 29.5995 82.8793 29.5045C82.8793 29.4095 82.8793 29.3274 82.875 29.2539C82.875 29.1934 82.8448 29.1546 82.7931 29.1373L82.3709 29.0033L82.3623 28.8564C82.6553 28.8651 82.9353 28.8694 83.2067 28.8694C83.4781 28.8694 83.7581 28.8694 84.0511 28.8564L84.064 29.0033L83.6418 29.1286C83.5858 29.1416 83.5599 29.1762 83.5513 29.2323C83.5513 29.3101 83.5513 29.4008 83.547 29.4915C83.547 29.5866 83.547 29.6903 83.547 29.7983V32.5763L83.5513 32.5849Z" fill="white"/>
<path d="M86.261 33.6349C85.9853 33.6349 85.7053 33.6349 85.4166 33.6435L85.4037 33.4966L85.8216 33.3714C85.8819 33.3541 85.9121 33.3195 85.9121 33.2633C85.9121 33.1726 85.9121 33.0689 85.9164 32.9566C85.9164 32.8443 85.9164 32.719 85.9164 32.585V29.82C85.9164 29.7034 85.9164 29.5997 85.9164 29.5046C85.9164 29.4096 85.9164 29.3275 85.9121 29.254C85.9121 29.1936 85.8819 29.1547 85.8302 29.1374L85.408 29.0035L85.3994 28.8566C85.6924 28.8652 85.9767 28.8695 86.2524 28.8695C86.4807 28.8695 86.6961 28.8652 86.9072 28.8522C87.1183 28.8393 87.3337 28.835 87.5577 28.835C88.3504 28.835 88.9449 29.0164 89.3456 29.3793C89.7462 29.7422 89.9444 30.278 89.9444 30.9951C89.9444 31.8376 89.7247 32.49 89.281 32.9566C88.8372 33.4232 88.2169 33.6522 87.4156 33.6522C87.1959 33.6522 87.002 33.6522 86.8297 33.6435C86.6574 33.6349 86.4678 33.6349 86.261 33.6349ZM86.5884 33.3281C86.722 33.3454 86.8512 33.3584 86.9805 33.3627C87.1097 33.367 87.239 33.3714 87.3682 33.3714C87.967 33.3714 88.4237 33.1942 88.7338 32.8399C89.044 32.4857 89.2034 31.9456 89.2034 31.2155C89.2034 30.4853 89.0569 29.9799 88.7597 29.6386C88.4624 29.2972 87.9929 29.1244 87.3467 29.1244C87.2433 29.1244 87.1313 29.1244 87.0063 29.1331C86.8814 29.1417 86.7435 29.146 86.5884 29.1547V33.3238V33.3281Z" fill="white"/>
<path d="M91.3789 31.7158H93.2701V32.1608H91.3789V31.7158Z" fill="white"/>
<path d="M96.7382 28.787L98.246 32.9561C98.302 33.1117 98.3537 33.2197 98.4011 33.2758C98.4485 33.332 98.5131 33.3752 98.5993 33.4011L98.9181 33.4962L98.9267 33.6431C98.6294 33.6344 98.3537 33.6344 98.0995 33.6344C97.8454 33.6344 97.5352 33.6344 97.1862 33.6431L97.1733 33.4962L97.4964 33.4011C97.5395 33.3838 97.5739 33.3666 97.5912 33.3493C97.6084 33.332 97.6213 33.3018 97.6213 33.2585C97.6213 33.211 97.6084 33.1549 97.5869 33.0814C97.5653 33.008 97.5309 32.9086 97.4878 32.7876L97.169 31.8717H95.5319L95.1744 32.7833C95.127 32.9086 95.0882 33.0123 95.0624 33.0857C95.0365 33.1592 95.0236 33.2197 95.0236 33.2629C95.0236 33.3017 95.0322 33.332 95.058 33.3493C95.0796 33.3666 95.1097 33.3838 95.1528 33.3968L95.4673 33.4875L95.4759 33.6387C95.1528 33.6301 94.89 33.6301 94.6876 33.6301C94.4851 33.6301 94.2568 33.6301 94.0026 33.6387L93.9854 33.4918L94.33 33.3838C94.4162 33.3579 94.4808 33.3147 94.5195 33.2585C94.5583 33.2024 94.6057 33.1117 94.6574 32.9907L96.3935 28.8302L96.7425 28.7783L96.7382 28.787ZM95.6526 31.5606H97.0527L96.3892 29.6813L95.6526 31.5606Z" fill="white"/>
<path d="M101.054 29.8069V32.5806C101.054 32.8312 101.054 33.0818 101.063 33.328H102.717L103.152 32.4251L103.303 32.3991L103.23 33.6218L103.208 33.6434C102.622 33.6348 102.08 33.6348 101.58 33.6348H100.727C100.451 33.6348 100.171 33.6348 99.8825 33.6434L99.8695 33.4965L100.287 33.3712C100.343 33.354 100.374 33.3194 100.378 33.2632C100.378 33.1725 100.378 33.0688 100.382 32.9565C100.382 32.8441 100.382 32.7189 100.382 32.5849V29.8199C100.382 29.7032 100.382 29.5995 100.382 29.5045C100.382 29.4095 100.382 29.3274 100.378 29.2539C100.378 29.1934 100.348 29.1546 100.296 29.1373L99.8739 29.0033L99.8652 28.8564C100.158 28.8651 100.438 28.8694 100.71 28.8694C100.981 28.8694 101.261 28.8694 101.554 28.8564L101.567 29.0033L101.145 29.1286C101.089 29.1416 101.063 29.1762 101.054 29.2323C101.054 29.3101 101.054 29.4267 101.05 29.5823C101.05 29.7335 101.05 29.8069 101.05 29.8026L101.054 29.8069Z" fill="white"/>
<path d="M105.595 32.5844C105.595 32.8522 105.595 33.0726 105.604 33.2454C105.604 33.3015 105.634 33.3361 105.694 33.3491L106.164 33.4916L106.172 33.6385C105.845 33.6299 105.543 33.6299 105.276 33.6299C105.009 33.6299 104.725 33.6299 104.432 33.6385L104.419 33.4916L104.837 33.3664C104.897 33.3491 104.927 33.3145 104.927 33.2583C104.932 33.0726 104.936 32.8479 104.936 32.58V29.815C104.936 29.6984 104.936 29.5947 104.936 29.4996C104.936 29.4046 104.936 29.3225 104.932 29.249C104.932 29.1886 104.901 29.1497 104.85 29.1324L104.428 28.9985L104.419 28.8516C104.712 28.8602 104.992 28.8645 105.263 28.8645H106.09C106.599 28.8645 107.133 28.8645 107.697 28.8516L107.719 28.8775L107.521 29.9317L107.383 29.9576L107.172 29.1713H105.599V31.1198H105.927C106.164 31.1198 106.426 31.1198 106.715 31.1111C106.775 31.1111 106.814 31.0809 106.831 31.0204L106.969 30.5581L107.133 30.5495C107.124 30.8692 107.124 31.1025 107.124 31.2537C107.124 31.4049 107.124 31.6339 107.133 31.9493L106.969 31.9622L106.827 31.4956C106.81 31.4351 106.775 31.4049 106.724 31.4049C106.426 31.4006 106.159 31.3963 105.922 31.3963H105.599V32.5714L105.595 32.5844Z" fill="white"/>
<path d="M110.623 28.787L112.131 32.9561C112.187 33.1117 112.238 33.2197 112.286 33.2758C112.333 33.332 112.398 33.3752 112.484 33.4011L112.803 33.4962L112.811 33.6431C112.514 33.6344 112.238 33.6344 111.984 33.6344C111.73 33.6344 111.42 33.6344 111.071 33.6431L111.058 33.4962L111.381 33.4011C111.424 33.3838 111.459 33.3666 111.476 33.3493C111.493 33.332 111.506 33.3018 111.506 33.2585C111.506 33.211 111.493 33.1549 111.472 33.0814C111.45 33.008 111.416 32.9086 111.373 32.7876L111.054 31.8717H109.417L109.059 32.7833C109.012 32.9086 108.973 33.0123 108.947 33.0857C108.921 33.1592 108.908 33.2197 108.908 33.2629C108.908 33.3017 108.917 33.332 108.943 33.3493C108.964 33.3666 108.995 33.3838 109.038 33.3968L109.352 33.4875L109.361 33.6387C109.038 33.6301 108.775 33.6301 108.572 33.6301C108.37 33.6301 108.142 33.6301 107.887 33.6387L107.87 33.4918L108.215 33.3838C108.301 33.3579 108.366 33.3147 108.404 33.2585C108.443 33.2024 108.49 33.1117 108.542 32.9907L110.278 28.8302L110.627 28.7783L110.623 28.787ZM109.537 31.5606H110.937L110.274 29.6813L109.537 31.5606Z" fill="white"/>
<path d="M114.939 29.8069V32.5806C114.939 32.8312 114.939 33.0818 114.948 33.328H116.602L117.037 32.4251L117.188 32.3991L117.115 33.6218L117.093 33.6434C116.507 33.6348 115.964 33.6348 115.465 33.6348H114.612C114.336 33.6348 114.056 33.6348 113.767 33.6434L113.754 33.4965L114.172 33.3712C114.228 33.354 114.258 33.3194 114.263 33.2632C114.263 33.1725 114.263 33.0688 114.267 32.9565C114.267 32.8441 114.267 32.7189 114.267 32.5849V29.8199C114.267 29.7032 114.267 29.5995 114.267 29.5045C114.267 29.4095 114.267 29.3274 114.263 29.2539C114.263 29.1934 114.233 29.1546 114.181 29.1373L113.759 29.0033L113.75 28.8564C114.043 28.8651 114.323 28.8694 114.594 28.8694C114.866 28.8694 115.146 28.8694 115.439 28.8564L115.452 29.0033L115.029 29.1286C114.973 29.1416 114.948 29.1762 114.939 29.2323C114.939 29.3101 114.939 29.4267 114.935 29.5823C114.935 29.7335 114.935 29.8069 114.935 29.8026L114.939 29.8069Z" fill="white"/>
<path d="M120.695 28.787L122.203 32.9561C122.259 33.1117 122.311 33.2197 122.358 33.2758C122.406 33.332 122.47 33.3752 122.556 33.4011L122.875 33.4962L122.884 33.6431C122.586 33.6344 122.311 33.6344 122.057 33.6344C121.802 33.6344 121.492 33.6344 121.143 33.6431L121.13 33.4962L121.453 33.4011C121.497 33.3838 121.531 33.3666 121.548 33.3493C121.565 33.332 121.578 33.3018 121.578 33.2585C121.578 33.211 121.565 33.1549 121.544 33.0814C121.522 33.008 121.488 32.9086 121.445 32.7876L121.126 31.8717H119.489L119.131 32.7833C119.084 32.9086 119.045 33.0123 119.019 33.0857C118.994 33.1592 118.981 33.2197 118.981 33.2629C118.981 33.3017 118.989 33.332 119.015 33.3493C119.037 33.3666 119.067 33.3838 119.11 33.3968L119.424 33.4875L119.433 33.6387C119.11 33.6301 118.847 33.6301 118.645 33.6301C118.442 33.6301 118.214 33.6301 117.96 33.6387L117.942 33.4918L118.287 33.3838C118.373 33.3579 118.438 33.3147 118.477 33.2585C118.515 33.2024 118.563 33.1117 118.614 32.9907L120.351 28.8302L120.7 28.7783L120.695 28.787ZM119.61 31.5606H121.01L120.346 29.6813L119.61 31.5606Z" fill="white"/>
<path d="M125.012 31.2715V32.5849C125.012 32.8528 125.012 33.0775 125.02 33.2589C125.02 33.3194 125.051 33.3583 125.111 33.3756L125.49 33.4965L125.499 33.6434C125.227 33.6348 124.96 33.6348 124.689 33.6348C124.417 33.6348 124.137 33.6348 123.844 33.6434L123.831 33.4965L124.249 33.3712C124.31 33.354 124.34 33.3194 124.34 33.2632C124.344 33.0774 124.348 32.8528 124.348 32.5849V29.8199C124.348 29.5909 124.348 29.4051 124.34 29.2539C124.34 29.1934 124.31 29.1546 124.258 29.1373L123.836 29.0033L123.827 28.8564C124.12 28.8651 124.4 28.8694 124.672 28.8694C124.943 28.8694 125.214 28.8694 125.477 28.8564L125.494 29.0033L125.107 29.1243C125.051 29.1373 125.02 29.1718 125.016 29.228C125.012 29.3922 125.008 29.5823 125.008 29.8026V30.9605H127.485V29.8026C127.485 29.5823 127.485 29.3879 127.476 29.228C127.476 29.1718 127.446 29.1373 127.386 29.1243L127.006 29.0033L126.998 28.8564C127.274 28.8651 127.549 28.8694 127.816 28.8694C128.083 28.8694 128.364 28.8694 128.648 28.8564L128.661 29.0033L128.234 29.1373C128.183 29.1546 128.157 29.1934 128.152 29.2539C128.148 29.4051 128.144 29.5909 128.144 29.8199V32.5849C128.144 32.8528 128.144 33.0774 128.152 33.2632C128.152 33.3151 128.187 33.3496 128.243 33.3712L128.656 33.4965L128.665 33.6434C128.368 33.6348 128.079 33.6348 127.808 33.6348C127.536 33.6348 127.274 33.6348 127.015 33.6434L127.002 33.4965L127.386 33.3756C127.442 33.3583 127.472 33.3194 127.476 33.2589C127.48 33.0775 127.485 32.8528 127.485 32.5849V31.2715H125.008H125.012Z" fill="white"/>
<path d="M42.6367 43.1132V39.9248H42.7056L44.8209 42.3701V39.9248H45.1354V43.1132H45.0621L42.9641 40.6981V43.1132H42.6367Z" fill="white"/>
<path d="M48.1982 39.8428C48.6807 39.8428 49.0814 40.0026 49.4088 40.3267C49.7319 40.6507 49.8956 41.0438 49.8956 41.5148C49.8956 41.9857 49.7319 42.3788 49.4088 42.7029C49.0857 43.0269 48.6894 43.1911 48.2241 43.1911C47.7588 43.1911 47.3539 43.0312 47.0308 42.7072C46.7076 42.3832 46.5439 41.99 46.5439 41.532C46.5439 41.2253 46.6172 40.9401 46.7637 40.6809C46.9101 40.4174 47.1126 40.2143 47.3668 40.0674C47.621 39.9205 47.8967 39.8471 48.1939 39.8471L48.1982 39.8428ZM48.2112 40.1538C47.9742 40.1538 47.7545 40.2143 47.5434 40.3396C47.3323 40.4649 47.1686 40.6291 47.048 40.8365C46.9317 41.0438 46.8714 41.2771 46.8714 41.532C46.8714 41.9122 47.0006 42.2319 47.2634 42.4912C47.5262 42.7504 47.8407 42.8843 48.2112 42.8843C48.4567 42.8843 48.685 42.8238 48.8961 42.7029C49.1072 42.5819 49.2709 42.4177 49.3873 42.2103C49.5036 42.003 49.5639 41.7697 49.5639 41.5148C49.5639 41.2599 49.5036 41.0309 49.3873 40.8278C49.2709 40.6248 49.1029 40.4606 48.8918 40.3353C48.6807 40.21 48.4524 40.1495 48.2112 40.1495V40.1538Z" fill="white"/>
<path d="M51.3213 39.9248H51.9546C52.3078 39.9248 52.5448 39.9378 52.674 39.968C52.8636 40.0112 53.0143 40.1063 53.135 40.2488C53.2513 40.3914 53.3116 40.5685 53.3116 40.7759C53.3116 40.9487 53.2728 41.1043 53.191 41.2339C53.1091 41.3635 52.9928 41.4629 52.842 41.532C52.6912 41.6011 52.4802 41.6357 52.2174 41.6357L53.359 43.1176H52.967L51.8253 41.6357H51.6444V43.1176H51.3256V39.9291L51.3213 39.9248ZM51.6401 40.2359V41.3203H52.1872C52.3983 41.3246 52.5577 41.303 52.6568 41.2641C52.7559 41.2252 52.8377 41.1604 52.8937 41.0697C52.9497 40.979 52.9799 40.8796 52.9799 40.7716C52.9799 40.6636 52.9497 40.5685 52.8937 40.4821C52.8377 40.3957 52.7602 40.3309 52.6654 40.2964C52.5706 40.2618 52.4155 40.2402 52.2001 40.2402H51.6401V40.2359Z" fill="white"/>
<path d="M54.4496 40.2359V39.9248H56.1901V40.2359H55.4792V43.1132H55.1561V40.2359H54.4453H54.4496Z" fill="white"/>
<path d="M57.418 39.9248H57.7368V41.2598H59.3566V39.9248H59.6754V43.1132H59.3566V41.5752H57.7368V43.1132H57.418V39.9248Z" fill="white"/>
<path d="M63.1729 39.9248H63.4916V43.1132H63.1729V39.9248Z" fill="white"/>
<path d="M64.9951 39.9248H65.3139V42.8065H66.5374V43.1132H64.9951V39.9248Z" fill="white"/>
<path d="M67.8125 39.9252H69.4065V40.2363H68.1313V41.2343H69.4065V41.5454H68.1313V43.1093H67.8125V39.9209V39.9252Z" fill="white"/>
<path d="M72.2461 39.8428C72.7286 39.8428 73.1292 40.0026 73.4566 40.3267C73.7797 40.6507 73.9435 41.0438 73.9435 41.5148C73.9435 41.9857 73.7797 42.3788 73.4566 42.7029C73.1335 43.0269 72.7372 43.1911 72.2719 43.1911C71.8067 43.1911 71.4017 43.0312 71.0786 42.7072C70.7555 42.3832 70.5918 41.99 70.5918 41.532C70.5918 41.2253 70.665 40.9401 70.8115 40.6809C70.958 40.4174 71.1605 40.2143 71.4146 40.0674C71.6688 39.9205 71.9445 39.8471 72.2418 39.8471L72.2461 39.8428ZM72.2633 40.1538C72.0264 40.1538 71.8067 40.2143 71.5956 40.3396C71.3845 40.4649 71.2208 40.6291 71.1001 40.8365C70.9838 41.0438 70.9235 41.2771 70.9235 41.532C70.9235 41.9122 71.0528 42.2319 71.3155 42.4912C71.5783 42.7504 71.8928 42.8843 72.2633 42.8843C72.5089 42.8843 72.7372 42.8238 72.9483 42.7029C73.1594 42.5819 73.3231 42.4177 73.4394 42.2103C73.5557 42.003 73.616 41.7697 73.616 41.5148C73.616 41.2599 73.5557 41.0309 73.4394 40.8278C73.3231 40.6248 73.1551 40.4606 72.944 40.3353C72.7329 40.21 72.5046 40.1495 72.2633 40.1495V40.1538Z" fill="white"/>
<path d="M75.373 39.9248H76.0063C76.3596 39.9248 76.5965 39.9378 76.7258 39.968C76.9153 40.0112 77.0661 40.1063 77.1867 40.2488C77.303 40.3914 77.3634 40.5685 77.3634 40.7759C77.3634 40.9487 77.3246 41.1043 77.2427 41.2339C77.1609 41.3635 77.0446 41.4629 76.8938 41.532C76.743 41.6011 76.5319 41.6357 76.2691 41.6357L77.4107 43.1176H77.0187L75.8771 41.6357H75.6961V43.1176H75.3774V39.9291L75.373 39.9248ZM75.6875 40.2359V41.3203H76.2347C76.4457 41.3246 76.6051 41.303 76.7042 41.2641C76.8033 41.2252 76.8852 41.1604 76.9412 41.0697C76.9972 40.979 77.0273 40.8796 77.0273 40.7716C77.0273 40.6636 76.9972 40.5685 76.9412 40.4821C76.8852 40.3957 76.8076 40.3309 76.7128 40.2964C76.6181 40.2618 76.463 40.2402 76.2476 40.2402H75.6875V40.2359Z" fill="white"/>
<path d="M78.8154 43.1132V39.9248H79.4746C79.9484 39.9248 80.2931 39.9637 80.5085 40.0415C80.8187 40.1495 81.0556 40.3396 81.2322 40.6031C81.4046 40.871 81.4907 41.1907 81.4907 41.5579C81.4907 41.8776 81.4218 42.1584 81.2839 42.4004C81.1461 42.6423 80.9695 42.8238 80.7497 42.9361C80.53 43.0528 80.2242 43.1089 79.8278 43.1089H78.8154V43.1132ZM79.1213 42.8108H79.4875C79.9269 42.8108 80.2328 42.7849 80.4008 42.7287C80.6377 42.651 80.8273 42.5127 80.9651 42.3096C81.103 42.1066 81.1719 41.8603 81.1719 41.5665C81.1719 41.2598 81.0987 40.9963 80.9479 40.7802C80.8014 40.5642 80.5947 40.413 80.3276 40.3309C80.1294 40.2704 79.802 40.2402 79.3453 40.2402H79.1213V42.8151V42.8108Z" fill="white"/>
<path d="M84.8379 39.9248H85.1567V43.1132H84.8379V39.9248Z" fill="white"/>
<path d="M86.3291 42.5171L86.6005 42.3529C86.7901 42.7029 87.0098 42.88 87.2596 42.88C87.3673 42.88 87.4664 42.8541 87.5612 42.8065C87.656 42.759 87.7249 42.6899 87.7766 42.6078C87.824 42.5257 87.8498 42.435 87.8498 42.3399C87.8498 42.2319 87.8154 42.1282 87.7421 42.0246C87.6431 41.882 87.4621 41.7135 87.1993 41.5148C86.9322 41.316 86.7685 41.1691 86.7039 41.0784C86.5919 40.9272 86.5359 40.7673 86.5359 40.5902C86.5359 40.4519 86.5704 40.3267 86.635 40.21C86.6996 40.0977 86.7944 40.0069 86.915 39.9421C87.0356 39.8773 87.1649 39.8428 87.307 39.8428C87.4578 39.8428 87.5957 39.8817 87.7292 39.9551C87.8628 40.0286 87.9963 40.1668 88.1428 40.3655L87.8843 40.5643C87.7637 40.4044 87.6646 40.3007 87.5784 40.2489C87.4923 40.197 87.4018 40.1711 87.3027 40.1711C87.1735 40.1711 87.0701 40.21 86.9882 40.2878C86.9064 40.3655 86.8676 40.4606 86.8676 40.5772C86.8676 40.6464 86.8805 40.7155 86.9107 40.7803C86.9408 40.8451 86.9925 40.9142 87.0701 40.992C87.1132 41.0309 87.251 41.1389 87.4793 41.3117C87.7551 41.5148 87.9446 41.6962 88.0437 41.8561C88.1471 42.0159 88.1988 42.1758 88.1988 42.3356C88.1988 42.5689 88.1126 42.7677 87.936 42.9362C87.7594 43.1047 87.5483 43.1911 87.2984 43.1911C87.1045 43.1911 86.9322 43.1392 86.7728 43.0355C86.6134 42.9318 86.4713 42.759 86.3377 42.5171H86.3291Z" fill="white"/>
<path d="M89.6377 39.9248H89.9565V42.8065H91.18V43.1132H89.6377V39.9248Z" fill="white"/>
<path d="M93.7519 39.9248L95.2339 43.1132H94.8893L94.3895 42.0634H93.0196L92.5242 43.1132H92.1709L93.6744 39.9248H93.7519ZM93.7132 40.5988L93.1704 41.7523H94.256L93.7132 40.5988Z" fill="white"/>
<path d="M96.3584 43.1132L96.815 39.9248H96.8668L98.1592 42.5386L99.4387 39.9248H99.4903L99.947 43.1132H99.6368L99.3223 40.8321L98.1979 43.1132H98.1161L96.9788 40.8148L96.6643 43.1132H96.3584Z" fill="white"/>
<path d="M101.3 39.9248H101.619V43.1132H101.3V39.9248Z" fill="white"/>
<path d="M106.081 40.5168L105.831 40.7112C105.693 40.5297 105.525 40.3915 105.332 40.3007C105.138 40.2057 104.927 40.1625 104.694 40.1625C104.44 40.1625 104.207 40.223 103.987 40.3439C103.772 40.4649 103.604 40.6291 103.483 40.8365C103.363 41.0438 103.307 41.2728 103.307 41.532C103.307 41.9209 103.44 42.2449 103.707 42.5041C103.974 42.7633 104.311 42.893 104.711 42.893C105.155 42.893 105.53 42.7201 105.827 42.3702L106.077 42.5603C105.917 42.7633 105.719 42.9189 105.482 43.0312C105.245 43.1435 104.983 43.1954 104.69 43.1954C104.134 43.1954 103.694 43.0096 103.376 42.6381C103.109 42.3227 102.971 41.9468 102.971 41.5018C102.971 41.0352 103.134 40.642 103.462 40.3223C103.789 40.0026 104.198 39.8428 104.69 39.8428C104.987 39.8428 105.254 39.9033 105.495 40.0199C105.736 40.1366 105.93 40.3007 106.081 40.5168Z" fill="white"/>
<path d="M112.453 40.5168L112.203 40.7112C112.065 40.5297 111.897 40.3915 111.704 40.3007C111.51 40.2057 111.299 40.1625 111.066 40.1625C110.812 40.1625 110.579 40.223 110.359 40.3439C110.144 40.4649 109.976 40.6291 109.855 40.8365C109.735 41.0438 109.679 41.2728 109.679 41.532C109.679 41.9209 109.812 42.2449 110.079 42.5041C110.347 42.7633 110.683 42.893 111.083 42.893C111.527 42.893 111.902 42.7201 112.199 42.3702L112.449 42.5603C112.289 42.7633 112.091 42.9189 111.854 43.0312C111.617 43.1435 111.355 43.1954 111.062 43.1954C110.506 43.1954 110.067 43.0096 109.748 42.6381C109.481 42.3227 109.343 41.9468 109.343 41.5018C109.343 41.0352 109.506 40.642 109.834 40.3223C110.161 40.0026 110.571 39.8428 111.062 39.8428C111.359 39.8428 111.626 39.9033 111.867 40.0199C112.109 40.1366 112.302 40.3007 112.453 40.5168Z" fill="white"/>
<path d="M113.866 39.9252H115.689V40.2363H114.185V41.2343H115.676V41.5454H114.185V42.7983H115.676V43.1093H113.866V39.9209V39.9252Z" fill="white"/>
<path d="M117.011 43.1132V39.9248H117.08L119.195 42.3701V39.9248H119.509V43.1132H119.436L117.338 40.6981V43.1132H117.011Z" fill="white"/>
<path d="M120.742 40.2359V39.9248H122.482V40.2359H121.771V43.1132H121.448V40.2359H120.737H120.742Z" fill="white"/>
<path d="M123.735 39.9248H124.369C124.722 39.9248 124.959 39.9378 125.088 39.968C125.278 40.0112 125.428 40.1063 125.549 40.2488C125.665 40.3914 125.726 40.5685 125.726 40.7759C125.726 40.9487 125.687 41.1043 125.605 41.2339C125.523 41.3635 125.407 41.4629 125.256 41.532C125.105 41.6011 124.894 41.6357 124.631 41.6357L125.773 43.1176H125.381L124.239 41.6357H124.058V43.1176H123.74V39.9291L123.735 39.9248ZM124.05 40.2359V41.3203H124.597C124.808 41.3246 124.967 41.303 125.067 41.2641C125.166 41.2252 125.247 41.1604 125.303 41.0697C125.359 40.979 125.39 40.8796 125.39 40.7716C125.39 40.6636 125.359 40.5685 125.303 40.4821C125.247 40.3957 125.17 40.3309 125.075 40.2964C124.98 40.2618 124.825 40.2402 124.61 40.2402H124.05V40.2359Z" fill="white"/>
<path d="M127.178 39.9252H129V40.2363H127.497V41.2343H128.987V41.5454H127.497V42.7983H128.987V43.1093H127.178V39.9209V39.9252Z" fill="white"/>
</g>
<defs>
<clipPath id="clip0_11750_14474">
<rect width="129" height="52" fill="white"/>
</clipPath>
</defs>
</svg>
