<svg preserveAspectRatio="none" width="100%" height="100%" overflow="visible" style="display: block;" viewBox="0 0 19.7647 34.5882" fill="none" xmlns="http://www.w3.org/2000/svg">
<g id="icon" clip-path="url(#clip0_41_14168)">
<path id="Vector" d="M8.09206 22.008C7.92352 22.2943 7.756 22.5827 7.5854 22.8681C6.82594 24.1372 5.31214 24.2661 4.38618 23.1063C3.05428 21.4394 1.74602 19.753 0.443925 18.0625C-0.248744 17.1625 -0.11206 16.011 0.725515 15.3789C1.57542 14.7367 2.69356 14.9003 3.40473 15.789C4.14981 16.7197 4.87947 17.6616 5.65847 18.6525C6.31003 17.4959 6.93179 16.4026 7.54327 15.3033C7.81664 14.8113 8.07562 14.3123 8.32843 13.8101C9.22356 12.0317 11.1988 11.0714 13.136 11.4794C15.1102 11.8957 16.5007 13.5596 16.6024 15.5794C16.7874 19.2222 16.9765 22.864 17.1954 26.5047C17.2746 27.8219 16.9745 28.996 16.0197 30.1261C16.6651 30.1261 17.1882 30.0954 17.7062 30.1322C18.8151 30.212 19.6722 31.0935 19.7585 32.2011C19.8397 33.2371 19.1295 34.2362 18.1008 34.5031C17.8562 34.5666 17.5931 34.5819 17.3383 34.5829C13.0394 34.587 8.73951 34.588 4.44065 34.585C3.32045 34.5839 2.50652 34.0665 2.16532 33.1634C1.81385 32.2328 2.05844 31.3359 2.86929 30.5801C4.60611 28.9612 6.34908 27.3474 8.07151 25.7121C8.24005 25.5516 8.3644 25.2509 8.35926 25.0188C8.33665 24.0227 8.25752 23.0286 8.19894 22.0335C8.16297 22.0254 8.127 22.0172 8.09206 22.008Z" fill="var(--fill-0, white)"/>
<path id="Vector_2" d="M11.7487 10.1951C8.78888 10.1737 6.87839 7.01971 8.24523 4.42618C8.41069 4.11324 8.5597 4.0212 8.92043 4.15415C11.0354 4.93855 13.1576 5.70352 15.285 6.45417C15.6344 6.57791 15.7176 6.73541 15.6385 7.08721C15.2284 8.89634 13.6006 10.2074 11.7487 10.1951Z" fill="var(--fill-0, white)"/>
<path id="Vector_3" d="M17.0392 2.54955C16.6138 3.71746 16.2089 4.82912 15.7834 5.99703C13.4207 5.14411 11.1002 4.30653 8.71591 3.44543C9.13521 2.29388 9.5391 1.18222 9.96971 0C12.3221 0.847806 14.6416 1.68539 17.0392 2.54955Z" fill="var(--fill-0, white)"/>
</g>
<defs>
<clipPath id="clip0_41_14168">
<rect width="19.7647" height="34.5882" fill="white"/>
</clipPath>
</defs>
</svg>
